{
.appVersion = "1056";
DisplayStrings = (
/question.alt1,
/ellipsis,
/minus,
E/strokeshortcomb,
/strokeshortcomb,
"-",
/endash,
/emdash,
"@",
"[",
"]",
P,
O,
"+",
"\U00A7",
"&",
/copyright.alt1,
",",
/ringcomb,
I,
"!",
"\U00A1",
"?",
"\U00BF",
v,
V,
/radical,
/ampersand.alt1
);
date = "2018-10-04 12:50:48 +0000";
familyName = "Nouvelle police";
fontMaster = (
{
ascender = 500;
capHeight = 500;
descender = -200;
id = "ADA7F6FF-5955-4EF3-8FA7-BADC10F8EE4C";
userData = {
GSOffsetHorizontal = 45;
GSOffsetVertical = 10;
};
width = Extended;
xHeight = 500;
}
);
glyphs = (
{
glyphname = A;
lastChange = "2018-11-22 08:52:51 +0000";
layers = (
{
associatedMasterId = "ADA7F6FF-5955-4EF3-8FA7-BADC10F8EE4C";
layerId = "3508DF4F-807E-4F0E-BA5A-4A654B2D75EC";
name = path;
paths = (
{
closed = 0;
nodes = (
"50 0 LINE",
"420 500 LINE",
"580 500 LINE",
"950 0 LINE"
);
},
{
closed = 0;
nodes = (
"140 100 LINE",
"860 100 LINE"
);
}
);
width = 1000;
},
{
associatedMasterId = "ADA7F6FF-5955-4EF3-8FA7-BADC10F8EE4C";
layerId = "28939298-B466-42F3-A7D6-17C2C5D824BA";
name = "Oct 4 18, 15:38";
paths = (
{
closed = 1;
nodes = (
"90 -45 OFFCURVE",
"104 -37 OFFCURVE",
"112 -25 CURVE SMOOTH",
"168 55 LINE",
"882 55 LINE",
"938 -25 LINE SMOOTH",
"946 -37 OFFCURVE",
"960 -45 OFFCURVE",
"975 -45 CURVE SMOOTH",
"1000 -45 OFFCURVE",
"1020 -25 OFFCURVE",
"1020 0 CURVE SMOOTH",
"1020 10 OFFCURVE",
"1017 19 OFFCURVE",
"1012 26 CURVE SMOOTH",
"679 502 LINE SMOOTH",
"666 519 OFFCURVE",
"657 528 OFFCURVE",
"643 535 CURVE SMOOTH",
"630 542 OFFCURVE",
"617 545 OFFCURVE",
"595 545 CURVE SMOOTH",
"455 545 LINE SMOOTH",
"433 545 OFFCURVE",
"420 542 OFFCURVE",
"407 535 CURVE SMOOTH",
"393 528 OFFCURVE",
"384 519 OFFCURVE",
"371 502 CURVE SMOOTH",
"38 26 LINE SMOOTH",
"33 19 OFFCURVE",
"30 10 OFFCURVE",
"30 0 CURVE SMOOTH",
"30 -25 OFFCURVE",
"50 -45 OFFCURVE",
"75 -45 CURVE SMOOTH"
);
},
{
closed = 1;
nodes = (
"448 455 LINE",
"602 455 LINE",
"819 145 LINE",
"231 145 LINE"
);
}
);
width = 1050;
},
{
layerId = "ADA7F6FF-5955-4EF3-8FA7-BADC10F8EE4C";
paths = (
{
closed = 1;
nodes = (
"90 -45 OFFCURVE",
"103 -38 OFFCURVE",
"111 -27 CURVE SMOOTH",
"175 55 LINE",
"875 55 LINE",
"939 -27 LINE SMOOTH",
"947 -38 OFFCURVE",
"960 -45 OFFCURVE",
"975 -45 CURVE SMOOTH",
"1000 -45 OFFCURVE",
"1020 -25 OFFCURVE",
"1020 0 CURVE SMOOTH",
"1020 11 OFFCURVE",
"1016 20 OFFCURVE",
"1010 28 CURVE SMOOTH",
"638 505 LINE SMOOTH",
"625 521 OFFCURVE",
"616 530 OFFCURVE",
"603 536 CURVE SMOOTH",
"590 543 OFFCURVE",
"577 545 OFFCURVE",
"556 545 CURVE SMOOTH",
"494 545 LINE SMOOTH",
"473 545 OFFCURVE",
"460 543 OFFCURVE",
"447 536 CURVE SMOOTH",
"434 530 OFFCURVE",
"425 521 OFFCURVE",
"412 505 CURVE SMOOTH",
"40 28 LINE SMOOTH",
"34 20 OFFCURVE",
"30 11 OFFCURVE",
"30 0 CURVE SMOOTH",
"30 -25 OFFCURVE",
"50 -45 OFFCURVE",
"75 -45 CURVE SMOOTH"
);
},
{
closed = 1;
nodes = (
"487 455 LINE",
"563 455 LINE",
"805 145 LINE",
"245 145 LINE"
);
}
);
width = 1050;
}
);
unicode = 0041;
},
{
glyphname = AE;
lastChange = "2018-11-21 21:28:43 +0000";
layers = (
{
layerId = "ADA7F6FF-5955-4EF3-8FA7-BADC10F8EE4C";
paths = (
{
closed = 1;
nodes = (
"90 -45 OFFCURVE",
"103 -38 OFFCURVE",
"111 -26 CURVE SMOOTH",
"172 55 LINE",
"480 55 LINE",
"480 28 LINE SMOOTH",
"480 8 OFFCURVE",
"487 -7 OFFCURVE",
"503 -23 CURVE SMOOTH",
"518 -38 OFFCURVE",
"534 -45 OFFCURVE",
"558 -45 CURVE SMOOTH",
"975 -45 LINE SMOOTH",
"1000 -45 OFFCURVE",
"1020 -25 OFFCURVE",
"1020 0 CURVE SMOOTH",
"1020 25 OFFCURVE",
"1000 45 OFFCURVE",
"975 45 CURVE SMOOTH",
"570 45 LINE",
"570 205 LINE",
"975 205 LINE SMOOTH",
"1000 205 OFFCURVE",
"1020 225 OFFCURVE",
"1020 250 CURVE SMOOTH",
"1020 275 OFFCURVE",
"1000 295 OFFCURVE",
"975 295 CURVE SMOOTH",
"570 295 LINE",
"570 455 LINE",
"975 455 LINE SMOOTH",
"1000 455 OFFCURVE",
"1020 475 OFFCURVE",
"1020 500 CURVE SMOOTH",
"1020 525 OFFCURVE",
"1000 545 OFFCURVE",
"975 545 CURVE SMOOTH",
"474 545 LINE SMOOTH",
"453 545 OFFCURVE",
"440 543 OFFCURVE",
"427 536 CURVE SMOOTH",
"414 529 OFFCURVE",
"404 520 OFFCURVE",
"391 503 CURVE SMOOTH",
"39 27 LINE SMOOTH",
"33 20 OFFCURVE",
"30 10 OFFCURVE",
"30 0 CURVE SMOOTH",
"30 -25 OFFCURVE",
"50 -45 OFFCURVE",
"75 -45 CURVE SMOOTH"
);
},
{
closed = 1;
nodes = (
"468 455 LINE",
"480 455 LINE",
"480 145 LINE",
"238 145 LINE"
);
}
);
width = 1050;
},
{
associatedMasterId = "ADA7F6FF-5955-4EF3-8FA7-BADC10F8EE4C";
layerId = "EAB11028-FE95-4805-B850-AB707480930A";
name = path;
paths = (
{
closed = 0;
nodes = (
"50 0 LINE",
"420 500 LINE",
"500 500 LINE"
);
},
{
closed = 0;
nodes = (
"140 100 LINE",
"500 100 LINE"
);
},
{
closed = 0;
nodes = (
"950 0 LINE",
"500 0 LINE",
"500 500 LINE",
"950 500 LINE"
);
},
{
closed = 0;
nodes = (
"500 250 LINE",
"950 250 LINE"
);
}
);
width = 1000;
}
);
unicode = 00C6;
},
{
glyphname = B;
lastChange = "2018-11-22 08:54:19 +0000";
layers = (
{
layerId = "ADA7F6FF-5955-4EF3-8FA7-BADC10F8EE4C";
paths = (
{
closed = 1;
nodes = (
"966 -46 OFFCURVE",
"981 -39 OFFCURVE",
"997 -24 CURVE SMOOTH",
"1013 -8 OFFCURVE",
"1020 8 OFFCURVE",
"1020 32 CURVE SMOOTH",
"1020 124 LINE SMOOTH",
"1020 208 OFFCURVE",
"970 272 OFFCURVE",
"895 290 CURVE",
"895 375 LINE SMOOTH",
"895 475 OFFCURVE",
"825 545 OFFCURVE",
"725 545 CURVE SMOOTH",
"108 545 LINE SMOOTH",
"84 545 OFFCURVE",
"68 538 OFFCURVE",
"53 523 CURVE SMOOTH",
"37 507 OFFCURVE",
"30 491 OFFCURVE",
"30 467 CURVE SMOOTH",
"30 33 LINE SMOOTH",
"30 9 OFFCURVE",
"37 -7 OFFCURVE",
"52 -23 CURVE SMOOTH",
"68 -38 OFFCURVE",
"84 -45 OFFCURVE",
"107 -45 CURVE SMOOTH",
"942 -46 LINE SMOOTH"
);
},
{
closed = 1;
nodes = (
"120 45 LINE",
"120 205 LINE",
"850 205 LINE SMOOTH",
"900 205 OFFCURVE",
"930 174 OFFCURVE",
"930 124 CURVE SMOOTH",
"930 44 LINE"
);
},
{
closed = 1;
nodes = (
"120 455 LINE",
"725 455 LINE SMOOTH",
"775 455 OFFCURVE",
"805 425 OFFCURVE",
"805 375 CURVE SMOOTH",
"805 295 LINE",
"120 295 LINE"
);
}
);
width = 1050;
},
{
associatedMasterId = "ADA7F6FF-5955-4EF3-8FA7-BADC10F8EE4C";
layerId = "AA821380-8FA2-4B76-A7B3-A4843A61C970";
name = path;
paths = (
{
closed = 0;
nodes = (
"701 250 LINE",
"825 250 LINE",
"900 250 OFFCURVE",
"950 199 OFFCURVE",
"950 124 CURVE SMOOTH",
"950 -1 LINE",
"50 0 LINE",
"50 500 LINE",
"825 500 LINE",
"825 375 LINE SMOOTH",
"825 300 OFFCURVE",
"775 250 OFFCURVE",
"700 250 CURVE SMOOTH",
"50 250 LINE"
);
}
);
width = 1000;
},
{
associatedMasterId = "ADA7F6FF-5955-4EF3-8FA7-BADC10F8EE4C";
layerId = "9E12B609-D221-4B4E-BA27-049819E4A726";
name = path2;
paths = (
{
closed = 0;
nodes = (
"50 250 LINE",
"825 250 LINE",
"900 250 OFFCURVE",
"950 199 OFFCURVE",
"950 124 CURVE",
"950 -1 LINE",
"50 0 LINE",
"50 500 LINE",
"700 500 LINE",
"775 500 OFFCURVE",
"825 450 OFFCURVE",
"825 375 CURVE",
"825 250 LINE"
);
}
);
width = 1000;
}
);
unicode = 0042;
},
{
glyphname = C;
lastChange = "2018-11-21 21:33:49 +0000";
layers = (
{
layerId = "ADA7F6FF-5955-4EF3-8FA7-BADC10F8EE4C";
paths = (
{
closed = 1;
nodes = (
"975 -45 LINE SMOOTH",
"1000 -45 OFFCURVE",
"1020 -25 OFFCURVE",
"1020 0 CURVE SMOOTH",
"1020 25 OFFCURVE",
"1000 45 OFFCURVE",
"975 45 CURVE SMOOTH",
"120 45 LINE",
"120 455 LINE",
"975 455 LINE SMOOTH",
"1000 455 OFFCURVE",
"1020 475 OFFCURVE",
"1020 500 CURVE SMOOTH",
"1020 525 OFFCURVE",
"1000 545 OFFCURVE",
"975 545 CURVE SMOOTH",
"108 545 LINE SMOOTH",
"84 545 OFFCURVE",
"68 538 OFFCURVE",
"53 523 CURVE SMOOTH",
"37 507 OFFCURVE",
"30 491 OFFCURVE",
"30 467 CURVE SMOOTH",
"30 33 LINE SMOOTH",
"30 9 OFFCURVE",
"37 -7 OFFCURVE",
"53 -23 CURVE SMOOTH",
"68 -38 OFFCURVE",
"84 -45 OFFCURVE",
"108 -45 CURVE SMOOTH"
);
}
);
width = 1050;
},
{
associatedMasterId = "ADA7F6FF-5955-4EF3-8FA7-BADC10F8EE4C";
layerId = "332286D3-EEB6-4991-B7F5-D635A3454B82";
name = path;
paths = (
{
closed = 0;
nodes = (
"950 0 LINE",
"50 0 LINE",
"50 500 LINE",
"950 500 LINE"
);
}
);
width = 1000;
}
);
unicode = 0043;
},
{
glyphname = D;
lastChange = "2018-11-21 21:33:49 +0000";
layers = (
{
layerId = "ADA7F6FF-5955-4EF3-8FA7-BADC10F8EE4C";
paths = (
{
closed = 1;
nodes = (
"850 -45 LINE SMOOTH",
"950 -45 OFFCURVE",
"1020 25 OFFCURVE",
"1020 125 CURVE SMOOTH",
"1020 375 LINE SMOOTH",
"1020 475 OFFCURVE",
"950 545 OFFCURVE",
"850 545 CURVE SMOOTH",
"107 543 LINE SMOOTH",
"84 543 OFFCURVE",
"68 536 OFFCURVE",
"52 521 CURVE SMOOTH",
"36 505 OFFCURVE",
"30 489 OFFCURVE",
"30 465 CURVE SMOOTH",
"30 31 LINE SMOOTH",
"30 7 OFFCURVE",
"37 -9 OFFCURVE",
"53 -25 CURVE SMOOTH",
"69 -40 OFFCURVE",
"85 -47 OFFCURVE",
"108 -47 CURVE SMOOTH"
);
},
{
closed = 1;
nodes = (
"120 453 LINE",
"850 455 LINE SMOOTH",
"900 455 OFFCURVE",
"930 425 OFFCURVE",
"930 375 CURVE SMOOTH",
"930 125 LINE SMOOTH",
"930 75 OFFCURVE",
"900 45 OFFCURVE",
"850 45 CURVE SMOOTH",
"120 43 LINE"
);
}
);
width = 1050;
}
);
unicode = 0044;
},
{
glyphname = Eth;
lastChange = "2018-11-23 12:56:04 +0000";
layers = (
{
layerId = "ADA7F6FF-5955-4EF3-8FA7-BADC10F8EE4C";
paths = (
{
closed = 1;
nodes = (
"850 -45 LINE SMOOTH",
"950 -45 OFFCURVE",
"1020 25 OFFCURVE",
"1020 125 CURVE SMOOTH",
"1020 375 LINE SMOOTH",
"1020 475 OFFCURVE",
"950 545 OFFCURVE",
"850 545 CURVE SMOOTH",
"237 543 LINE SMOOTH",
"214 543 OFFCURVE",
"198 536 OFFCURVE",
"182 521 CURVE SMOOTH",
"166 505 OFFCURVE",
"160 489 OFFCURVE",
"160 465 CURVE SMOOTH",
"160 31 LINE SMOOTH",
"160 7 OFFCURVE",
"167 -9 OFFCURVE",
"183 -25 CURVE SMOOTH",
"199 -40 OFFCURVE",
"215 -47 OFFCURVE",
"238 -47 CURVE SMOOTH"
);
},
{
closed = 1;
nodes = (
"250 453 LINE",
"850 455 LINE SMOOTH",
"900 455 OFFCURVE",
"930 425 OFFCURVE",
"930 375 CURVE SMOOTH",
"930 125 LINE SMOOTH",
"930 75 OFFCURVE",
"900 45 OFFCURVE",
"850 45 CURVE SMOOTH",
"250 43 LINE"
);
},
{
closed = 1;
nodes = (
"550 203 LINE SMOOTH",
"575 203 OFFCURVE",
"595 223 OFFCURVE",
"595 248 CURVE SMOOTH",
"595 273 OFFCURVE",
"575 293 OFFCURVE",
"550 293 CURVE SMOOTH",
"75 293 LINE SMOOTH",
"50 293 OFFCURVE",
"30 273 OFFCURVE",
"30 248 CURVE SMOOTH",
"30 223 OFFCURVE",
"50 203 OFFCURVE",
"75 203 CURVE SMOOTH"
);
}
);
width = 1050;
},
{
associatedMasterId = "ADA7F6FF-5955-4EF3-8FA7-BADC10F8EE4C";
layerId = "0DDD53D2-B483-4144-9C43-A5464F350EDB";
name = "Nov 21 18, 22:22";
width = 600;
}
);
unicode = 00D0;
},
{
glyphname = E;
lastChange = "2018-11-21 21:33:49 +0000";
layers = (
{
layerId = "ADA7F6FF-5955-4EF3-8FA7-BADC10F8EE4C";
paths = (
{
closed = 1;
nodes = (
"975 -45 LINE SMOOTH",
"1000 -45 OFFCURVE",
"1020 -25 OFFCURVE",
"1020 0 CURVE SMOOTH",
"1020 25 OFFCURVE",
"1000 45 OFFCURVE",
"975 45 CURVE SMOOTH",
"120 45 LINE",
"120 205 LINE",
"975 205 LINE SMOOTH",
"1000 205 OFFCURVE",
"1020 225 OFFCURVE",
"1020 250 CURVE SMOOTH",
"1020 275 OFFCURVE",
"1000 295 OFFCURVE",
"975 295 CURVE SMOOTH",
"120 295 LINE",
"120 455 LINE",
"975 455 LINE SMOOTH",
"1000 455 OFFCURVE",
"1020 475 OFFCURVE",
"1020 500 CURVE SMOOTH",
"1020 525 OFFCURVE",
"1000 545 OFFCURVE",
"975 545 CURVE SMOOTH",
"108 545 LINE SMOOTH",
"84 545 OFFCURVE",
"68 538 OFFCURVE",
"53 523 CURVE SMOOTH",
"37 507 OFFCURVE",
"30 491 OFFCURVE",
"30 467 CURVE SMOOTH",
"30 33 LINE SMOOTH",
"30 9 OFFCURVE",
"37 -7 OFFCURVE",
"53 -23 CURVE SMOOTH",
"68 -38 OFFCURVE",
"84 -45 OFFCURVE",
"108 -45 CURVE SMOOTH"
);
}
);
width = 1050;
},
{
associatedMasterId = "ADA7F6FF-5955-4EF3-8FA7-BADC10F8EE4C";
layerId = "AA2E2A66-64FD-437E-8DDD-DB419572DEA2";
name = path;
paths = (
{
closed = 0;
nodes = (
"950 0 LINE",
"50 0 LINE",
"50 500 LINE",
"950 500 LINE"
);
},
{
closed = 0;
nodes = (
"50 250 LINE",
"950 250 LINE"
);
}
);
width = 1000;
}
);
unicode = 0045;
},
{
glyphname = Eacute;
lastChange = "2018-11-23 09:40:05 +0000";
layers = (
{
layerId = "ADA7F6FF-5955-4EF3-8FA7-BADC10F8EE4C";
paths = (
{
closed = 1;
nodes = (
"975 -45 LINE SMOOTH",
"1000 -45 OFFCURVE",
"1020 -25 OFFCURVE",
"1020 0 CURVE SMOOTH",
"1020 25 OFFCURVE",
"1000 45 OFFCURVE",
"975 45 CURVE SMOOTH",
"120 45 LINE",
"120 205 LINE",
"975 205 LINE SMOOTH",
"1000 205 OFFCURVE",
"1020 225 OFFCURVE",
"1020 250 CURVE SMOOTH",
"1020 275 OFFCURVE",
"1000 295 OFFCURVE",
"975 295 CURVE SMOOTH",
"120 295 LINE",
"120 455 LINE",
"975 455 LINE SMOOTH",
"1000 455 OFFCURVE",
"1020 475 OFFCURVE",
"1020 500 CURVE SMOOTH",
"1020 525 OFFCURVE",
"1000 545 OFFCURVE",
"975 545 CURVE SMOOTH",
"108 545 LINE SMOOTH",
"84 545 OFFCURVE",
"68 538 OFFCURVE",
"53 523 CURVE SMOOTH",
"37 507 OFFCURVE",
"30 491 OFFCURVE",
"30 467 CURVE SMOOTH",
"30 33 LINE SMOOTH",
"30 9 OFFCURVE",
"37 -7 OFFCURVE",
"53 -23 CURVE SMOOTH",
"68 -38 OFFCURVE",
"84 -45 OFFCURVE",
"108 -45 CURVE SMOOTH"
);
},
{
closed = 1;
nodes = (
"975 635 LINE SMOOTH",
"1000 635 OFFCURVE",
"1020 655 OFFCURVE",
"1020 680 CURVE SMOOTH",
"1020 705 OFFCURVE",
"1000 725 OFFCURVE",
"975 725 CURVE SMOOTH",
"75 725 LINE SMOOTH",
"50 725 OFFCURVE",
"30 705 OFFCURVE",
"30 680 CURVE SMOOTH",
"30 655 OFFCURVE",
"50 635 OFFCURVE",
"75 635 CURVE SMOOTH"
);
}
);
width = 1050;
},
{
associatedMasterId = "ADA7F6FF-5955-4EF3-8FA7-BADC10F8EE4C";
layerId = "DC68B7DF-B9FD-48E2-9687-B33AA6DBBD9D";
name = path;
paths = (
{
closed = 0;
nodes = (
"950 0 LINE",
"50 0 LINE",
"50 500 LINE",
"950 500 LINE"
);
},
{
closed = 0;
nodes = (
"50 250 LINE",
"950 250 LINE"
);
},
{
closed = 0;
nodes = (
"50 633 LINE",
"950 633 LINE"
);
}
);
width = 1000;
}
);
unicode = 00C9;
},
{
color = 1;
glyphname = Ecircumflex;
lastChange = "2018-11-23 09:45:52 +0000";
layers = (
{
layerId = "ADA7F6FF-5955-4EF3-8FA7-BADC10F8EE4C";
paths = (
{
closed = 1;
nodes = (
"975 -45 LINE SMOOTH",
"1000 -45 OFFCURVE",
"1020 -25 OFFCURVE",
"1020 0 CURVE SMOOTH",
"1020 25 OFFCURVE",
"1000 45 OFFCURVE",
"975 45 CURVE SMOOTH",
"120 45 LINE",
"120 205 LINE",
"975 205 LINE SMOOTH",
"1000 205 OFFCURVE",
"1020 225 OFFCURVE",
"1020 250 CURVE SMOOTH",
"1020 275 OFFCURVE",
"1000 295 OFFCURVE",
"975 295 CURVE SMOOTH",
"120 295 LINE",
"120 455 LINE",
"975 455 LINE SMOOTH",
"1000 455 OFFCURVE",
"1020 475 OFFCURVE",
"1020 500 CURVE SMOOTH",
"1020 525 OFFCURVE",
"1000 545 OFFCURVE",
"975 545 CURVE SMOOTH",
"108 545 LINE SMOOTH",
"84 545 OFFCURVE",
"68 538 OFFCURVE",
"53 523 CURVE SMOOTH",
"37 507 OFFCURVE",
"30 491 OFFCURVE",
"30 467 CURVE SMOOTH",
"30 33 LINE SMOOTH",
"30 9 OFFCURVE",
"37 -7 OFFCURVE",
"53 -23 CURVE SMOOTH",
"68 -38 OFFCURVE",
"84 -45 OFFCURVE",
"108 -45 CURVE SMOOTH"
);
},
{
closed = 1;
nodes = (
"77 588 OFFCURVE",
"79 588 OFFCURVE",
"82 588 CURVE SMOOTH",
"525 648 LINE",
"968 588 LINE SMOOTH",
"971 588 OFFCURVE",
"973 588 OFFCURVE",
"975 588 CURVE SMOOTH",
"1000 588 OFFCURVE",
"1020 608 OFFCURVE",
"1020 633 CURVE SMOOTH",
"1020 656 OFFCURVE",
"1003 675 OFFCURVE",
"980 678 CURVE SMOOTH",
"531 738 LINE",
"519 738 LINE",
"70 678 LINE SMOOTH",
"47 675 OFFCURVE",
"30 656 OFFCURVE",
"30 633 CURVE SMOOTH",
"30 608 OFFCURVE",
"50 588 OFFCURVE",
"75 588 CURVE SMOOTH"
);
}
);
width = 1050;
},
{
associatedMasterId = "ADA7F6FF-5955-4EF3-8FA7-BADC10F8EE4C";
layerId = "A2CF80C9-8CF4-45D2-9C39-528972778750";
name = path;
paths = (
{
closed = 0;
nodes = (
"905 0 LINE",
"5 0 LINE",
"5 500 LINE",
"905 500 LINE"
);
},
{
closed = 0;
nodes = (
"5 250 LINE",
"905 250 LINE"
);
},
{
closed = 0;
nodes = (
"5 633 LINE",
"455 693 LINE",
"905 633 LINE"
);
}
);
width = 600;
}
);
unicode = 00CA;
},
{
color = 1;
glyphname = Edieresis;
lastChange = "2018-11-23 09:45:54 +0000";
layers = (
{
layerId = "ADA7F6FF-5955-4EF3-8FA7-BADC10F8EE4C";
paths = (
{
closed = 1;
nodes = (
"975 -45 LINE SMOOTH",
"1000 -45 OFFCURVE",
"1020 -25 OFFCURVE",
"1020 0 CURVE SMOOTH",
"1020 25 OFFCURVE",
"1000 45 OFFCURVE",
"975 45 CURVE SMOOTH",
"120 45 LINE",
"120 205 LINE",
"975 205 LINE SMOOTH",
"1000 205 OFFCURVE",
"1020 225 OFFCURVE",
"1020 250 CURVE SMOOTH",
"1020 275 OFFCURVE",
"1000 295 OFFCURVE",
"975 295 CURVE SMOOTH",
"120 295 LINE",
"120 455 LINE",
"975 455 LINE SMOOTH",
"1000 455 OFFCURVE",
"1020 475 OFFCURVE",
"1020 500 CURVE SMOOTH",
"1020 525 OFFCURVE",
"1000 545 OFFCURVE",
"975 545 CURVE SMOOTH",
"108 545 LINE SMOOTH",
"84 545 OFFCURVE",
"68 538 OFFCURVE",
"53 523 CURVE SMOOTH",
"37 507 OFFCURVE",
"30 491 OFFCURVE",
"30 467 CURVE SMOOTH",
"30 33 LINE SMOOTH",
"30 9 OFFCURVE",
"37 -7 OFFCURVE",
"53 -23 CURVE SMOOTH",
"68 -38 OFFCURVE",
"84 -45 OFFCURVE",
"108 -45 CURVE SMOOTH"
);
},
{
closed = 1;
nodes = (
"425 635 LINE SMOOTH",
"450 635 OFFCURVE",
"470 655 OFFCURVE",
"470 680 CURVE SMOOTH",
"470 705 OFFCURVE",
"450 725 OFFCURVE",
"425 725 CURVE SMOOTH",
"75 725 LINE SMOOTH",
"50 725 OFFCURVE",
"30 705 OFFCURVE",
"30 680 CURVE SMOOTH",
"30 655 OFFCURVE",
"50 635 OFFCURVE",
"75 635 CURVE SMOOTH"
);
},
{
closed = 1;
nodes = (
"975 635 LINE SMOOTH",
"1000 635 OFFCURVE",
"1020 655 OFFCURVE",
"1020 680 CURVE SMOOTH",
"1020 705 OFFCURVE",
"1000 725 OFFCURVE",
"975 725 CURVE SMOOTH",
"625 725 LINE SMOOTH",
"600 725 OFFCURVE",
"580 705 OFFCURVE",
"580 680 CURVE SMOOTH",
"580 655 OFFCURVE",
"600 635 OFFCURVE",
"625 635 CURVE SMOOTH"
);
}
);
width = 1050;
},
{
associatedMasterId = "ADA7F6FF-5955-4EF3-8FA7-BADC10F8EE4C";
layerId = "3FBD971D-5092-4BB3-A77A-0B3922C1CEC9";
name = path;
paths = (
{
closed = 0;
nodes = (
"905 0 LINE",
"5 0 LINE",
"5 500 LINE",
"905 500 LINE"
);
},
{
closed = 0;
nodes = (
"5 250 LINE",
"905 250 LINE"
);
},
{
closed = 0;
nodes = (
"5 633 LINE",
"355 633 LINE"
);
},
{
closed = 0;
nodes = (
"555 633 LINE",
"905 633 LINE"
);
}
);
width = 910;
}
);
unicode = 00CB;
},
{
glyphname = Egrave;
lastChange = "2018-11-23 09:45:12 +0000";
layers = (
{
layerId = "ADA7F6FF-5955-4EF3-8FA7-BADC10F8EE4C";
paths = (
{
closed = 1;
nodes = (
"975 -45 LINE SMOOTH",
"1000 -45 OFFCURVE",
"1020 -25 OFFCURVE",
"1020 0 CURVE SMOOTH",
"1020 25 OFFCURVE",
"1000 45 OFFCURVE",
"975 45 CURVE SMOOTH",
"120 45 LINE",
"120 205 LINE",
"975 205 LINE SMOOTH",
"1000 205 OFFCURVE",
"1020 225 OFFCURVE",
"1020 250 CURVE SMOOTH",
"1020 275 OFFCURVE",
"1000 295 OFFCURVE",
"975 295 CURVE SMOOTH",
"120 295 LINE",
"120 455 LINE",
"975 455 LINE SMOOTH",
"1000 455 OFFCURVE",
"1020 475 OFFCURVE",
"1020 500 CURVE SMOOTH",
"1020 525 OFFCURVE",
"1000 545 OFFCURVE",
"975 545 CURVE SMOOTH",
"108 545 LINE SMOOTH",
"84 545 OFFCURVE",
"68 538 OFFCURVE",
"53 523 CURVE SMOOTH",
"37 507 OFFCURVE",
"30 491 OFFCURVE",
"30 467 CURVE SMOOTH",
"30 33 LINE SMOOTH",
"30 9 OFFCURVE",
"37 -7 OFFCURVE",
"53 -23 CURVE SMOOTH",
"68 -38 OFFCURVE",
"84 -45 OFFCURVE",
"108 -45 CURVE SMOOTH"
);
},
{
closed = 1;
nodes = (
"975 635 LINE SMOOTH",
"1000 635 OFFCURVE",
"1020 655 OFFCURVE",
"1020 680 CURVE SMOOTH",
"1020 705 OFFCURVE",
"1000 725 OFFCURVE",
"975 725 CURVE SMOOTH",
"75 725 LINE SMOOTH",
"50 725 OFFCURVE",
"30 705 OFFCURVE",
"30 680 CURVE SMOOTH",
"30 655 OFFCURVE",
"50 635 OFFCURVE",
"75 635 CURVE SMOOTH"
);
}
);
width = 1050;
},
{
associatedMasterId = "ADA7F6FF-5955-4EF3-8FA7-BADC10F8EE4C";
layerId = "313EAB88-CB6D-4569-AFD7-F9D7B8783A96";
name = path;
paths = (
{
closed = 0;
nodes = (
"905 0 LINE",
"5 0 LINE",
"5 500 LINE",
"905 500 LINE"
);
},
{
closed = 0;
nodes = (
"5 250 LINE",
"905 250 LINE"
);
},
{
closed = 0;
nodes = (
"5 633 LINE",
"905 693 LINE"
);
}
);
width = 910;
}
);
unicode = 00C8;
},
{
glyphname = F;
lastChange = "2018-11-21 21:33:49 +0000";
layers = (
{
layerId = "ADA7F6FF-5955-4EF3-8FA7-BADC10F8EE4C";
paths = (
{
closed = 1;
nodes = (
"100 -45 OFFCURVE",
"120 -25 OFFCURVE",
"120 0 CURVE SMOOTH",
"120 205 LINE",
"975 205 LINE SMOOTH",
"1000 205 OFFCURVE",
"1020 225 OFFCURVE",
"1020 250 CURVE SMOOTH",
"1020 275 OFFCURVE",
"1000 295 OFFCURVE",
"975 295 CURVE SMOOTH",
"120 295 LINE",
"120 455 LINE",
"975 455 LINE SMOOTH",
"1000 455 OFFCURVE",
"1020 475 OFFCURVE",
"1020 500 CURVE SMOOTH",
"1020 525 OFFCURVE",
"1000 545 OFFCURVE",
"975 545 CURVE SMOOTH",
"108 545 LINE SMOOTH",
"84 545 OFFCURVE",
"68 538 OFFCURVE",
"53 523 CURVE SMOOTH",
"37 507 OFFCURVE",
"30 491 OFFCURVE",
"30 467 CURVE SMOOTH",
"30 0 LINE SMOOTH",
"30 -25 OFFCURVE",
"50 -45 OFFCURVE",
"75 -45 CURVE SMOOTH"
);
}
);
width = 1050;
},
{
associatedMasterId = "ADA7F6FF-5955-4EF3-8FA7-BADC10F8EE4C";
layerId = "427ECFA4-C9B0-48A6-B163-E606606A64B9";
name = path;
paths = (
{
closed = 0;
nodes = (
"50 250 LINE",
"950 250 LINE"
);
},
{
closed = 0;
nodes = (
"50 0 LINE",
"50 500 LINE",
"950 500 LINE"
);
}
);
width = 1000;
}
);
unicode = 0046;
},
{
glyphname = G;
lastChange = "2018-11-21 21:33:49 +0000";
layers = (
{
layerId = "ADA7F6FF-5955-4EF3-8FA7-BADC10F8EE4C";
paths = (
{
closed = 1;
nodes = (
"942 -45 LINE SMOOTH",
"966 -45 OFFCURVE",
"982 -38 OFFCURVE",
"998 -23 CURVE SMOOTH",
"1013 -7 OFFCURVE",
"1020 9 OFFCURVE",
"1020 33 CURVE SMOOTH",
"1020 217 LINE SMOOTH",
"1020 241 OFFCURVE",
"1013 257 OFFCURVE",
"998 273 CURVE SMOOTH",
"982 288 OFFCURVE",
"966 295 OFFCURVE",
"942 295 CURVE SMOOTH",
"300 295 LINE SMOOTH",
"275 295 OFFCURVE",
"255 275 OFFCURVE",
"255 250 CURVE SMOOTH",
"255 225 OFFCURVE",
"275 205 OFFCURVE",
"300 205 CURVE SMOOTH",
"930 205 LINE",
"930 45 LINE",
"120 45 LINE",
"120 455 LINE",
"975 455 LINE SMOOTH",
"1000 455 OFFCURVE",
"1020 475 OFFCURVE",
"1020 500 CURVE SMOOTH",
"1020 525 OFFCURVE",
"1000 545 OFFCURVE",
"975 545 CURVE SMOOTH",
"108 545 LINE SMOOTH",
"84 545 OFFCURVE",
"68 538 OFFCURVE",
"53 523 CURVE SMOOTH",
"37 507 OFFCURVE",
"30 491 OFFCURVE",
"30 467 CURVE SMOOTH",
"30 33 LINE SMOOTH",
"30 9 OFFCURVE",
"37 -7 OFFCURVE",
"53 -23 CURVE SMOOTH",
"68 -38 OFFCURVE",
"84 -45 OFFCURVE",
"108 -45 CURVE SMOOTH"
);
}
);
width = 1050;
},
{
associatedMasterId = "ADA7F6FF-5955-4EF3-8FA7-BADC10F8EE4C";
layerId = "256E4E47-26CD-4593-902B-7BF63D1F9F21";
name = path;
paths = (
{
closed = 0;
nodes = (
"930 500 LINE",
"30 500 LINE",
"30 0 LINE",
"930 0 LINE",
"930 250 LINE",
"255 250 LINE"
);
}
);
width = 960;
}
);
unicode = 0047;
},
{
glyphname = H;
lastChange = "2018-11-21 21:33:49 +0000";
layers = (
{
layerId = "ADA7F6FF-5955-4EF3-8FA7-BADC10F8EE4C";
paths = (
{
closed = 1;
nodes = (
"100 -45 OFFCURVE",
"120 -25 OFFCURVE",
"120 0 CURVE SMOOTH",
"120 205 LINE",
"930 205 LINE",
"930 0 LINE SMOOTH",
"930 -25 OFFCURVE",
"950 -45 OFFCURVE",
"975 -45 CURVE SMOOTH",
"1000 -45 OFFCURVE",
"1020 -25 OFFCURVE",
"1020 0 CURVE SMOOTH",
"1020 500 LINE SMOOTH",
"1020 525 OFFCURVE",
"1000 545 OFFCURVE",
"975 545 CURVE SMOOTH",
"950 545 OFFCURVE",
"930 525 OFFCURVE",
"930 500 CURVE SMOOTH",
"930 295 LINE",
"120 295 LINE",
"120 500 LINE SMOOTH",
"120 525 OFFCURVE",
"100 545 OFFCURVE",
"75 545 CURVE SMOOTH",
"50 545 OFFCURVE",
"30 525 OFFCURVE",
"30 500 CURVE SMOOTH",
"30 0 LINE SMOOTH",
"30 -25 OFFCURVE",
"50 -45 OFFCURVE",
"75 -45 CURVE SMOOTH"
);
}
);
width = 1050;
},
{
associatedMasterId = "ADA7F6FF-5955-4EF3-8FA7-BADC10F8EE4C";
layerId = "476FBEA2-CEC8-4C52-87A5-635122290EBE";
name = path;
paths = (
{
closed = 0;
nodes = (
"50 250 LINE",
"950 250 LINE"
);
},
{
closed = 0;
nodes = (
"50 0 LINE",
"50 500 LINE"
);
},
{
closed = 0;
nodes = (
"950 0 LINE",
"950 500 LINE"
);
}
);
width = 1000;
}
);
unicode = 0048;
},
{
glyphname = I;
lastChange = "2018-11-21 21:33:49 +0000";
layers = (
{
layerId = "ADA7F6FF-5955-4EF3-8FA7-BADC10F8EE4C";
paths = (
{
closed = 1;
nodes = (
"975 -45 LINE SMOOTH",
"1000 -45 OFFCURVE",
"1020 -25 OFFCURVE",
"1020 0 CURVE SMOOTH",
"1020 25 OFFCURVE",
"1000 45 OFFCURVE",
"975 45 CURVE SMOOTH",
"570 45 LINE",
"570 455 LINE",
"975 455 LINE SMOOTH",
"1000 455 OFFCURVE",
"1020 475 OFFCURVE",
"1020 500 CURVE SMOOTH",
"1020 525 OFFCURVE",
"1000 545 OFFCURVE",
"975 545 CURVE SMOOTH",
"75 545 LINE SMOOTH",
"50 545 OFFCURVE",
"30 525 OFFCURVE",
"30 500 CURVE SMOOTH",
"30 475 OFFCURVE",
"50 455 OFFCURVE",
"75 455 CURVE SMOOTH",
"480 455 LINE",
"480 45 LINE",
"75 45 LINE SMOOTH",
"50 45 OFFCURVE",
"30 25 OFFCURVE",
"30 0 CURVE SMOOTH",
"30 -25 OFFCURVE",
"50 -45 OFFCURVE",
"75 -45 CURVE SMOOTH"
);
}
);
width = 1050;
},
{
associatedMasterId = "ADA7F6FF-5955-4EF3-8FA7-BADC10F8EE4C";
layerId = "EA01F030-C0F9-46D4-92C4-F2A57DB2F300";
name = path;
paths = (
{
closed = 0;
nodes = (
"950 0 LINE",
"50 0 LINE"
);
},
{
closed = 0;
nodes = (
"950 500 LINE",
"50 500 LINE"
);
},
{
closed = 0;
nodes = (
"500 500 LINE",
"500 0 LINE"
);
}
);
width = 980;
}
);
unicode = 0049;
},
{
glyphname = J;
lastChange = "2018-11-21 21:33:49 +0000";
layers = (
{
layerId = "ADA7F6FF-5955-4EF3-8FA7-BADC10F8EE4C";
paths = (
{
closed = 1;
nodes = (
"942 -45 LINE SMOOTH",
"966 -45 OFFCURVE",
"982 -38 OFFCURVE",
"998 -23 CURVE SMOOTH",
"1013 -7 OFFCURVE",
"1020 9 OFFCURVE",
"1020 33 CURVE SMOOTH",
"1020 467 LINE SMOOTH",
"1020 491 OFFCURVE",
"1013 507 OFFCURVE",
"998 523 CURVE SMOOTH",
"982 538 OFFCURVE",
"966 545 OFFCURVE",
"942 545 CURVE SMOOTH",
"75 545 LINE SMOOTH",
"50 545 OFFCURVE",
"30 525 OFFCURVE",
"30 500 CURVE SMOOTH",
"30 475 OFFCURVE",
"50 455 OFFCURVE",
"75 455 CURVE SMOOTH",
"930 455 LINE",
"930 45 LINE",
"120 45 LINE",
"120 250 LINE SMOOTH",
"120 275 OFFCURVE",
"100 295 OFFCURVE",
"75 295 CURVE SMOOTH",
"50 295 OFFCURVE",
"30 275 OFFCURVE",
"30 250 CURVE SMOOTH",
"30 33 LINE SMOOTH",
"30 9 OFFCURVE",
"37 -7 OFFCURVE",
"53 -23 CURVE SMOOTH",
"68 -38 OFFCURVE",
"84 -45 OFFCURVE",
"108 -45 CURVE SMOOTH"
);
}
);
width = 1050;
},
{
associatedMasterId = "ADA7F6FF-5955-4EF3-8FA7-BADC10F8EE4C";
layerId = "80317083-6BE9-46B6-9AFF-137B963A54F7";
name = path;
paths = (
{
closed = 0;
nodes = (
"50 500 LINE",
"950 500 LINE",
"950 0 LINE",
"50 0 LINE",
"50 250 LINE"
);
}
);
width = 1000;
}
);
unicode = 004A;
},
{
glyphname = K;
lastChange = "2018-11-21 21:33:49 +0000";
layers = (
{
layerId = "ADA7F6FF-5955-4EF3-8FA7-BADC10F8EE4C";
paths = (
{
closed = 1;
nodes = (
"100 -45 OFFCURVE",
"120 -25 OFFCURVE",
"120 0 CURVE SMOOTH",
"120 168 LINE",
"281 221 LINE",
"958 -42 LINE SMOOTH",
"963 -44 OFFCURVE",
"969 -45 OFFCURVE",
"975 -45 CURVE SMOOTH",
"1000 -45 OFFCURVE",
"1020 -25 OFFCURVE",
"1020 0 CURVE SMOOTH",
"1020 19 OFFCURVE",
"1008 36 OFFCURVE",
"990 42 CURVE SMOOTH",
"415 266 LINE",
"988 457 LINE SMOOTH",
"1007 463 OFFCURVE",
"1020 480 OFFCURVE",
"1020 500 CURVE SMOOTH",
"1020 525 OFFCURVE",
"1000 545 OFFCURVE",
"975 545 CURVE SMOOTH",
"970 545 OFFCURVE",
"965 544 OFFCURVE",
"960 542 CURVE SMOOTH",
"120 262 LINE",
"120 500 LINE SMOOTH",
"120 525 OFFCURVE",
"100 545 OFFCURVE",
"75 545 CURVE SMOOTH",
"50 545 OFFCURVE",
"30 525 OFFCURVE",
"30 500 CURVE SMOOTH",
"30 0 LINE SMOOTH",
"30 -25 OFFCURVE",
"50 -45 OFFCURVE",
"75 -45 CURVE SMOOTH"
);
}
);
width = 1050;
},
{
associatedMasterId = "ADA7F6FF-5955-4EF3-8FA7-BADC10F8EE4C";
layerId = "733DF08D-5D85-4832-95FF-7D0568EBB909";
name = path;
paths = (
{
closed = 0;
nodes = (
"50 200 LINE",
"950 500 LINE"
);
},
{
closed = 0;
nodes = (
"50 0 LINE",
"50 500 LINE"
);
},
{
closed = 0;
nodes = (
"950 0 LINE",
"258 269 LINE"
);
}
);
width = 1000;
}
);
unicode = 004B;
},
{
glyphname = L;
lastChange = "2018-11-21 21:33:49 +0000";
layers = (
{
associatedMasterId = "ADA7F6FF-5955-4EF3-8FA7-BADC10F8EE4C";
layerId = "15F4C9DE-D177-4BDB-A281-2C4B881DC727";
name = path;
paths = (
{
closed = 0;
nodes = (
"950 0 LINE",
"50 0 LINE",
"50 500 LINE"
);
}
);
width = 1000;
},
{
layerId = "ADA7F6FF-5955-4EF3-8FA7-BADC10F8EE4C";
paths = (
{
closed = 1;
nodes = (
"975 -45 LINE SMOOTH",
"1000 -45 OFFCURVE",
"1020 -25 OFFCURVE",
"1020 0 CURVE SMOOTH",
"1020 25 OFFCURVE",
"1000 45 OFFCURVE",
"975 45 CURVE SMOOTH",
"120 45 LINE",
"120 500 LINE SMOOTH",
"120 525 OFFCURVE",
"100 545 OFFCURVE",
"75 545 CURVE SMOOTH",
"50 545 OFFCURVE",
"30 525 OFFCURVE",
"30 500 CURVE SMOOTH",
"30 33 LINE SMOOTH",
"30 9 OFFCURVE",
"37 -7 OFFCURVE",
"53 -23 CURVE SMOOTH",
"68 -38 OFFCURVE",
"84 -45 OFFCURVE",
"108 -45 CURVE SMOOTH"
);
}
);
width = 1050;
}
);
unicode = 004C;
},
{
glyphname = M;
lastChange = "2018-11-21 21:33:49 +0000";
layers = (
{
layerId = "ADA7F6FF-5955-4EF3-8FA7-BADC10F8EE4C";
paths = (
{
closed = 1;
nodes = (
"100 -45 OFFCURVE",
"120 -25 OFFCURVE",
"120 0 CURVE SMOOTH",
"120 383 LINE",
"469 -5 LINE SMOOTH",
"485 -23 OFFCURVE",
"501 -30 OFFCURVE",
"525 -30 CURVE SMOOTH",
"525 -30 LINE SMOOTH",
"549 -30 OFFCURVE",
"565 -23 OFFCURVE",
"581 -5 CURVE SMOOTH",
"930 383 LINE",
"930 0 LINE SMOOTH",
"930 -25 OFFCURVE",
"950 -45 OFFCURVE",
"975 -45 CURVE SMOOTH",
"1000 -45 OFFCURVE",
"1020 -25 OFFCURVE",
"1020 0 CURVE SMOOTH",
"1020 462 LINE SMOOTH",
"1020 488 OFFCURVE",
"1009 504 OFFCURVE",
"984 514 CURVE SMOOTH",
"977 516 LINE SMOOTH",
"953 526 OFFCURVE",
"933 521 OFFCURVE",
"916 502 CURVE SMOOTH",
"525 67 LINE",
"134 502 LINE SMOOTH",
"117 521 OFFCURVE",
"97 526 OFFCURVE",
"73 516 CURVE SMOOTH",
"66 514 LINE SMOOTH",
"41 504 OFFCURVE",
"30 488 OFFCURVE",
"30 462 CURVE SMOOTH",
"30 0 LINE SMOOTH",
"30 -25 OFFCURVE",
"50 -45 OFFCURVE",
"75 -45 CURVE SMOOTH"
);
}
);
width = 1050;
},
{
associatedMasterId = "ADA7F6FF-5955-4EF3-8FA7-BADC10F8EE4C";
layerId = "506D02AE-B350-4DDF-91D2-AB967CA9A9DF";
name = path;
paths = (
{
closed = 0;
nodes = (
"50 0 LINE",
"50 500 LINE",
"500 0 LINE",
"950 500 LINE",
"950 0 LINE"
);
}
);
width = 1000;
}
);
unicode = 004D;
},
{
glyphname = N;
lastChange = "2018-11-21 21:33:49 +0000";
layers = (
{
layerId = "ADA7F6FF-5955-4EF3-8FA7-BADC10F8EE4C";
paths = (
{
closed = 1;
nodes = (
"100 -45 OFFCURVE",
"120 -25 OFFCURVE",
"120 0 CURVE SMOOTH",
"120 424 LINE",
"922 -22 LINE SMOOTH",
"944 -34 OFFCURVE",
"963 -34 OFFCURVE",
"984 -21 CURVE SMOOTH",
"989 -18 LINE SMOOTH",
"1011 -6 OFFCURVE",
"1020 11 OFFCURVE",
"1020 36 CURVE SMOOTH",
"1020 500 LINE SMOOTH",
"1020 525 OFFCURVE",
"1000 545 OFFCURVE",
"975 545 CURVE SMOOTH",
"950 545 OFFCURVE",
"930 525 OFFCURVE",
"930 500 CURVE SMOOTH",
"930 76 LINE",
"128 522 LINE SMOOTH",
"106 534 OFFCURVE",
"87 534 OFFCURVE",
"66 521 CURVE SMOOTH",
"61 518 LINE SMOOTH",
"39 506 OFFCURVE",
"30 489 OFFCURVE",
"30 464 CURVE SMOOTH",
"30 0 LINE SMOOTH",
"30 -25 OFFCURVE",
"50 -45 OFFCURVE",
"75 -45 CURVE SMOOTH"
);
}
);
width = 1050;
},
{
associatedMasterId = "ADA7F6FF-5955-4EF3-8FA7-BADC10F8EE4C";
layerId = "02F44D51-9545-49D3-80AC-0F86BEAF3628";
name = path;
paths = (
{
closed = 0;
nodes = (
"50 0 LINE",
"50 500 LINE",
"950 0 LINE",
"950 500 LINE"
);
}
);
width = 1000;
}
);
unicode = 004E;
},
{
glyphname = O;
lastChange = "2018-11-21 21:33:49 +0000";
layers = (
{
layerId = "ADA7F6FF-5955-4EF3-8FA7-BADC10F8EE4C";
paths = (
{
closed = 1;
nodes = (
"942 -45 LINE SMOOTH",
"966 -45 OFFCURVE",
"982 -38 OFFCURVE",
"998 -23 CURVE SMOOTH",
"1013 -7 OFFCURVE",
"1020 9 OFFCURVE",
"1020 33 CURVE SMOOTH",
"1020 467 LINE SMOOTH",
"1020 491 OFFCURVE",
"1013 507 OFFCURVE",
"998 523 CURVE SMOOTH",
"982 538 OFFCURVE",
"966 545 OFFCURVE",
"942 545 CURVE SMOOTH",
"108 545 LINE SMOOTH",
"84 545 OFFCURVE",
"68 538 OFFCURVE",
"53 523 CURVE SMOOTH",
"37 507 OFFCURVE",
"30 491 OFFCURVE",
"30 467 CURVE SMOOTH",
"30 33 LINE SMOOTH",
"30 9 OFFCURVE",
"37 -7 OFFCURVE",
"53 -23 CURVE SMOOTH",
"68 -38 OFFCURVE",
"84 -45 OFFCURVE",
"108 -45 CURVE SMOOTH"
);
},
{
closed = 1;
nodes = (
"120 455 LINE",
"930 455 LINE",
"930 45 LINE",
"120 45 LINE"
);
}
);
width = 1050;
},
{
associatedMasterId = "ADA7F6FF-5955-4EF3-8FA7-BADC10F8EE4C";
layerId = "ACCF6737-4D79-4163-B459-3563FA1143C3";
name = path;
paths = (
{
closed = 1;
nodes = (
"950 500 LINE",
"950 0 LINE",
"50 0 LINE",
"50 500 LINE"
);
}
);
width = 1000;
}
);
unicode = 004F;
},
{
glyphname = OE;
lastChange = "2018-11-21 21:33:49 +0000";
layers = (
{
layerId = "ADA7F6FF-5955-4EF3-8FA7-BADC10F8EE4C";
paths = (
{
closed = 1;
nodes = (
"975 -45 LINE SMOOTH",
"1000 -45 OFFCURVE",
"1020 -25 OFFCURVE",
"1020 0 CURVE SMOOTH",
"1020 25 OFFCURVE",
"1000 45 OFFCURVE",
"975 45 CURVE SMOOTH",
"570 45 LINE",
"570 205 LINE",
"975 205 LINE SMOOTH",
"1000 205 OFFCURVE",
"1020 225 OFFCURVE",
"1020 250 CURVE SMOOTH",
"1020 275 OFFCURVE",
"1000 295 OFFCURVE",
"975 295 CURVE SMOOTH",
"570 295 LINE",
"570 455 LINE",
"975 455 LINE SMOOTH",
"1000 455 OFFCURVE",
"1020 475 OFFCURVE",
"1020 500 CURVE SMOOTH",
"1020 525 OFFCURVE",
"1000 545 OFFCURVE",
"975 545 CURVE SMOOTH",
"108 545 LINE SMOOTH",
"84 545 OFFCURVE",
"68 538 OFFCURVE",
"53 523 CURVE SMOOTH",
"37 507 OFFCURVE",
"30 491 OFFCURVE",
"30 467 CURVE SMOOTH",
"30 33 LINE SMOOTH",
"30 9 OFFCURVE",
"37 -7 OFFCURVE",
"53 -23 CURVE SMOOTH",
"68 -38 OFFCURVE",
"84 -45 OFFCURVE",
"108 -45 CURVE SMOOTH"
);
},
{
closed = 1;
nodes = (
"120 455 LINE",
"480 455 LINE",
"480 45 LINE",
"120 45 LINE"
);
}
);
width = 1050;
},
{
associatedMasterId = "ADA7F6FF-5955-4EF3-8FA7-BADC10F8EE4C";
layerId = "3C8C7874-19F9-4531-AD05-FB43404CBF44";
name = path;
paths = (
{
closed = 0;
nodes = (
"500 0 LINE",
"50 0 LINE",
"50 500 LINE",
"500 500 LINE"
);
},
{
closed = 0;
nodes = (
"950 0 LINE",
"500 0 LINE",
"500 500 LINE",
"950 500 LINE"
);
},
{
closed = 0;
nodes = (
"500 250 LINE",
"950 250 LINE"
);
}
);
width = 1000;
}
);
unicode = 0152;
},
{
glyphname = P;
lastChange = "2018-11-21 21:33:49 +0000";
layers = (
{
layerId = "ADA7F6FF-5955-4EF3-8FA7-BADC10F8EE4C";
paths = (
{
closed = 1;
nodes = (
"100 -45 OFFCURVE",
"120 -25 OFFCURVE",
"120 0 CURVE SMOOTH",
"120 205 LINE",
"942 205 LINE SMOOTH",
"966 205 OFFCURVE",
"982 212 OFFCURVE",
"998 228 CURVE SMOOTH",
"1013 243 OFFCURVE",
"1020 259 OFFCURVE",
"1020 283 CURVE SMOOTH",
"1020 467 LINE SMOOTH",
"1020 491 OFFCURVE",
"1013 507 OFFCURVE",
"998 523 CURVE SMOOTH",
"982 538 OFFCURVE",
"966 545 OFFCURVE",
"942 545 CURVE SMOOTH",
"108 545 LINE SMOOTH",
"84 545 OFFCURVE",
"68 538 OFFCURVE",
"53 523 CURVE SMOOTH",
"37 507 OFFCURVE",
"30 491 OFFCURVE",
"30 467 CURVE SMOOTH",
"30 0 LINE SMOOTH",
"30 -25 OFFCURVE",
"50 -45 OFFCURVE",
"75 -45 CURVE SMOOTH"
);
},
{
closed = 1;
nodes = (
"120 455 LINE",
"930 455 LINE",
"930 295 LINE",
"120 295 LINE"
);
}
);
width = 1050;
},
{
associatedMasterId = "ADA7F6FF-5955-4EF3-8FA7-BADC10F8EE4C";
layerId = "681473A0-42C1-4B6F-ADB2-BDF2D3C97F72";
name = path;
paths = (
{
closed = 0;
nodes = (
"50 0 LINE",
"50 500 LINE",
"950 500 LINE",
"950 250 LINE",
"50 250 LINE"
);
}
);
width = 1000;
}
);
unicode = 0050;
},
{
glyphname = Thorn;
lastChange = "2018-11-23 13:18:40 +0000";
layers = (
{
layerId = "ADA7F6FF-5955-4EF3-8FA7-BADC10F8EE4C";
paths = (
{
closed = 1;
nodes = (
"100 -45 OFFCURVE",
"120 -25 OFFCURVE",
"120 0 CURVE SMOOTH",
"120 500 LINE SMOOTH",
"120 525 OFFCURVE",
"100 545 OFFCURVE",
"75 545 CURVE SMOOTH",
"50 545 OFFCURVE",
"30 525 OFFCURVE",
"30 500 CURVE SMOOTH",
"30 0 LINE SMOOTH",
"30 -25 OFFCURVE",
"50 -45 OFFCURVE",
"75 -45 CURVE SMOOTH"
);
},
{
closed = 1;
nodes = (
"830 57 LINE SMOOTH",
"930 57 OFFCURVE",
"1000 127 OFFCURVE",
"1000 227 CURVE SMOOTH",
"1000 277 LINE SMOOTH",
"1000 377 OFFCURVE",
"930 447 OFFCURVE",
"830 447 CURVE SMOOTH",
"120 445 LINE",
"93 406 LINE",
"120 355 LINE",
"830 357 LINE SMOOTH",
"880 357 OFFCURVE",
"910 327 OFFCURVE",
"910 277 CURVE SMOOTH",
"910 227 LINE SMOOTH",
"910 177 OFFCURVE",
"880 147 OFFCURVE",
"830 147 CURVE SMOOTH",
"120 145 LINE",
"97 114 LINE",
"120 55 LINE"
);
}
);
width = 1030;
}
);
unicode = 00DE;
},
{
glyphname = Q;
lastChange = "2018-11-21 21:33:49 +0000";
layers = (
{
layerId = "ADA7F6FF-5955-4EF3-8FA7-BADC10F8EE4C";
paths = (
{
closed = 1;
nodes = (
"942 -45 LINE SMOOTH",
"966 -45 OFFCURVE",
"982 -38 OFFCURVE",
"998 -23 CURVE SMOOTH",
"1013 -7 OFFCURVE",
"1020 9 OFFCURVE",
"1020 33 CURVE SMOOTH",
"1020 467 LINE SMOOTH",
"1020 491 OFFCURVE",
"1013 507 OFFCURVE",
"998 523 CURVE SMOOTH",
"982 538 OFFCURVE",
"966 545 OFFCURVE",
"942 545 CURVE SMOOTH",
"108 545 LINE SMOOTH",
"84 545 OFFCURVE",
"68 538 OFFCURVE",
"53 523 CURVE SMOOTH",
"37 507 OFFCURVE",
"30 491 OFFCURVE",
"30 467 CURVE SMOOTH",
"30 33 LINE SMOOTH",
"30 9 OFFCURVE",
"37 -7 OFFCURVE",
"53 -23 CURVE SMOOTH",
"68 -38 OFFCURVE",
"84 -45 OFFCURVE",
"108 -45 CURVE SMOOTH"
);
},
{
closed = 1;
nodes = (
"120 455 LINE",
"930 455 LINE",
"930 76 LINE",
"548 289 LINE SMOOTH",
"541 293 OFFCURVE",
"533 295 OFFCURVE",
"525 295 CURVE SMOOTH",
"500 295 OFFCURVE",
"480 275 OFFCURVE",
"480 250 CURVE SMOOTH",
"480 233 OFFCURVE",
"490 218 OFFCURVE",
"504 210 CURVE SMOOTH",
"801 45 LINE",
"120 45 LINE"
);
}
);
width = 1050;
},
{
associatedMasterId = "ADA7F6FF-5955-4EF3-8FA7-BADC10F8EE4C";
layerId = "C9BC58A6-B2B6-45DE-B6AE-DFE327D452F5";
name = path;
paths = (
{
closed = 1;
nodes = (
"950 500 LINE",
"950 0 LINE",
"50 0 LINE",
"50 500 LINE"
);
},
{
closed = 0;
nodes = (
"500 250 LINE",
"950 0 LINE"
);
}
);
width = 1000;
}
);
unicode = 0051;
},
{
glyphname = R;
lastChange = "2018-11-21 21:33:49 +0000";
layers = (
{
layerId = "ADA7F6FF-5955-4EF3-8FA7-BADC10F8EE4C";
paths = (
{
closed = 1;
nodes = (
"1000 -46 OFFCURVE",
"1020 -26 OFFCURVE",
"1020 -1 CURVE SMOOTH",
"1020 124 LINE SMOOTH",
"1020 176 OFFCURVE",
"1001 219 OFFCURVE",
"969 250 CURVE",
"1001 280 OFFCURVE",
"1020 323 OFFCURVE",
"1020 375 CURVE SMOOTH",
"1020 467 LINE SMOOTH",
"1020 491 OFFCURVE",
"1013 507 OFFCURVE",
"998 523 CURVE SMOOTH",
"982 538 OFFCURVE",
"966 545 OFFCURVE",
"942 545 CURVE SMOOTH",
"108 545 LINE SMOOTH",
"84 545 OFFCURVE",
"68 538 OFFCURVE",
"53 523 CURVE SMOOTH",
"37 507 OFFCURVE",
"30 491 OFFCURVE",
"30 467 CURVE SMOOTH",
"30 0 LINE SMOOTH",
"30 -25 OFFCURVE",
"50 -45 OFFCURVE",
"75 -45 CURVE SMOOTH",
"100 -45 OFFCURVE",
"120 -25 OFFCURVE",
"120 0 CURVE SMOOTH",
"120 205 LINE",
"850 205 LINE",
"850 205 LINE SMOOTH",
"850 204 OFFCURVE",
"857 206 OFFCURVE",
"876 201 CURVE SMOOTH",
"910 192 OFFCURVE",
"930 165 OFFCURVE",
"930 124 CURVE SMOOTH",
"930 -1 LINE SMOOTH",
"930 -26 OFFCURVE",
"950 -46 OFFCURVE",
"975 -46 CURVE SMOOTH"
);
},
{
closed = 1;
nodes = (
"120 455 LINE",
"930 455 LINE",
"930 375 LINE SMOOTH",
"930 325 OFFCURVE",
"900 295 OFFCURVE",
"850 295 CURVE SMOOTH",
"120 295 LINE"
);
}
);
width = 1050;
},
{
associatedMasterId = "ADA7F6FF-5955-4EF3-8FA7-BADC10F8EE4C";
layerId = "04FBDE31-C792-4FD3-81D4-42867D99793E";
name = path;
paths = (
{
closed = 0;
nodes = (
"50 0 LINE",
"50 500 LINE",
"950 500 LINE",
"950 375 LINE SMOOTH",
"950 300 OFFCURVE",
"900 250 OFFCURVE",
"825 250 CURVE SMOOTH",
"50 250 LINE"
);
},
{
closed = 0;
nodes = (
"825 249 LINE SMOOTH",
"900 249 OFFCURVE",
"950 199 OFFCURVE",
"950 124 CURVE SMOOTH",
"950 -1 LINE SMOOTH"
);
}
);
width = 1000;
}
);
unicode = 0052;
},
{
glyphname = S;
lastChange = "2018-11-22 08:53:52 +0000";
layers = (
{
layerId = "ADA7F6FF-5955-4EF3-8FA7-BADC10F8EE4C";
paths = (
{
closed = 1;
nodes = (
"942 -45 LINE SMOOTH",
"966 -45 OFFCURVE",
"982 -38 OFFCURVE",
"998 -23 CURVE SMOOTH",
"1013 -7 OFFCURVE",
"1020 9 OFFCURVE",
"1020 33 CURVE SMOOTH",
"1020 217 LINE SMOOTH",
"1020 241 OFFCURVE",
"1013 257 OFFCURVE",
"998 273 CURVE SMOOTH",
"982 288 OFFCURVE",
"966 295 OFFCURVE",
"942 295 CURVE SMOOTH",
"120 295 LINE",
"120 455 LINE",
"975 455 LINE SMOOTH",
"1000 455 OFFCURVE",
"1020 475 OFFCURVE",
"1020 500 CURVE SMOOTH",
"1020 525 OFFCURVE",
"1000 545 OFFCURVE",
"975 545 CURVE SMOOTH",
"108 545 LINE SMOOTH",
"84 545 OFFCURVE",
"68 538 OFFCURVE",
"53 523 CURVE SMOOTH",
"37 507 OFFCURVE",
"30 491 OFFCURVE",
"30 467 CURVE SMOOTH",
"30 283 LINE SMOOTH",
"30 259 OFFCURVE",
"37 243 OFFCURVE",
"53 228 CURVE SMOOTH",
"68 212 OFFCURVE",
"84 205 OFFCURVE",
"108 205 CURVE SMOOTH",
"930 205 LINE",
"930 45 LINE",
"75 45 LINE SMOOTH",
"50 45 OFFCURVE",
"30 25 OFFCURVE",
"30 0 CURVE SMOOTH",
"30 -25 OFFCURVE",
"50 -45 OFFCURVE",
"75 -45 CURVE SMOOTH"
);
}
);
width = 1050;
},
{
associatedMasterId = "ADA7F6FF-5955-4EF3-8FA7-BADC10F8EE4C";
layerId = "51E03DD6-6FFF-4E2C-AC9E-A47E0399BA88";
name = path;
paths = (
{
closed = 0;
nodes = (
"950 500 LINE",
"50 500 LINE",
"50 250 LINE",
"950 250 LINE",
"950 0 LINE",
"50 0 LINE"
);
}
);
width = 1000;
}
);
unicode = 0053;
},
{
glyphname = T;
lastChange = "2018-11-23 12:57:46 +0000";
layers = (
{
layerId = "ADA7F6FF-5955-4EF3-8FA7-BADC10F8EE4C";
paths = (
{
closed = 1;
nodes = (
"550 -45 OFFCURVE",
"570 -25 OFFCURVE",
"570 0 CURVE SMOOTH",
"570 455 LINE",
"975 455 LINE SMOOTH",
"1000 455 OFFCURVE",
"1020 475 OFFCURVE",
"1020 500 CURVE SMOOTH",
"1020 525 OFFCURVE",
"1000 545 OFFCURVE",
"975 545 CURVE SMOOTH",
"75 545 LINE SMOOTH",
"50 545 OFFCURVE",
"30 525 OFFCURVE",
"30 500 CURVE SMOOTH",
"30 475 OFFCURVE",
"50 455 OFFCURVE",
"75 455 CURVE SMOOTH",
"480 455 LINE",
"480 0 LINE SMOOTH",
"480 -25 OFFCURVE",
"500 -45 OFFCURVE",
"525 -45 CURVE SMOOTH"
);
}
);
width = 1050;
},
{
associatedMasterId = "ADA7F6FF-5955-4EF3-8FA7-BADC10F8EE4C";
layerId = "C27597F6-F5AD-4D1D-8A60-8830BB7DE810";
name = path;
paths = (
{
closed = 0;
nodes = (
"950 500 LINE",
"50 500 LINE"
);
},
{
closed = 0;
nodes = (
"500 500 LINE",
"500 0 LINE"
);
}
);
width = 1000;
}
);
unicode = 0054;
},
{
glyphname = U;
lastChange = "2018-11-21 21:33:49 +0000";
layers = (
{
layerId = "ADA7F6FF-5955-4EF3-8FA7-BADC10F8EE4C";
paths = (
{
closed = 1;
nodes = (
"942 -45 LINE SMOOTH",
"966 -45 OFFCURVE",
"982 -38 OFFCURVE",
"998 -23 CURVE SMOOTH",
"1013 -7 OFFCURVE",
"1020 9 OFFCURVE",
"1020 33 CURVE SMOOTH",
"1020 500 LINE SMOOTH",
"1020 525 OFFCURVE",
"1000 545 OFFCURVE",
"975 545 CURVE SMOOTH",
"950 545 OFFCURVE",
"930 525 OFFCURVE",
"930 500 CURVE SMOOTH",
"930 45 LINE",
"120 45 LINE",
"120 500 LINE SMOOTH",
"120 525 OFFCURVE",
"100 545 OFFCURVE",
"75 545 CURVE SMOOTH",
"50 545 OFFCURVE",
"30 525 OFFCURVE",
"30 500 CURVE SMOOTH",
"30 33 LINE SMOOTH",
"30 9 OFFCURVE",
"37 -7 OFFCURVE",
"53 -23 CURVE SMOOTH",
"68 -38 OFFCURVE",
"84 -45 OFFCURVE",
"108 -45 CURVE SMOOTH"
);
}
);
width = 1050;
},
{
associatedMasterId = "ADA7F6FF-5955-4EF3-8FA7-BADC10F8EE4C";
layerId = "846C0801-3315-4FA7-B339-6147F971ED18";
name = path;
paths = (
{
closed = 0;
nodes = (
"950 500 LINE",
"950 0 LINE",
"50 0 LINE",
"50 500 LINE"
);
}
);
width = 1000;
}
);
unicode = 0055;
},
{
glyphname = V;
lastChange = "2018-11-23 13:06:48 +0000";
layers = (
{
layerId = "ADA7F6FF-5955-4EF3-8FA7-BADC10F8EE4C";
paths = (
{
closed = 1;
nodes = (
"525 -30 LINE SMOOTH",
"549 -30 OFFCURVE",
"565 -23 OFFCURVE",
"581 -5 CURVE SMOOTH",
"1008 470 LINE SMOOTH",
"1016 478 OFFCURVE",
"1020 488 OFFCURVE",
"1020 500 CURVE SMOOTH",
"1020 525 OFFCURVE",
"1000 545 OFFCURVE",
"975 545 CURVE SMOOTH",
"962 545 OFFCURVE",
"950 539 OFFCURVE",
"941 530 CURVE SMOOTH",
"525 67 LINE",
"109 530 LINE SMOOTH",
"100 539 OFFCURVE",
"88 545 OFFCURVE",
"75 545 CURVE SMOOTH",
"50 545 OFFCURVE",
"30 525 OFFCURVE",
"30 500 CURVE SMOOTH",
"30 488 OFFCURVE",
"34 478 OFFCURVE",
"42 470 CURVE SMOOTH",
"469 -5 LINE SMOOTH",
"485 -23 OFFCURVE",
"501 -30 OFFCURVE",
"525 -30 CURVE SMOOTH"
);
}
);
width = 1050;
},
{
associatedMasterId = "ADA7F6FF-5955-4EF3-8FA7-BADC10F8EE4C";
layerId = "67036B0E-AB36-43A6-B0F3-2B01F748710F";
name = path;
paths = (
{
closed = 0;
nodes = (
"50 500 LINE",
"500 0 LINE",
"950 500 LINE"
);
}
);
width = 1000;
}
);
unicode = 0056;
},
{
glyphname = W;
lastChange = "2018-11-21 21:33:49 +0000";
layers = (
{
layerId = "ADA7F6FF-5955-4EF3-8FA7-BADC10F8EE4C";
paths = (
{
closed = 1;
nodes = (
"780 -18 LINE SMOOTH",
"805 -17 OFFCURVE",
"821 -6 OFFCURVE",
"831 18 CURVE SMOOTH",
"1016 482 LINE SMOOTH",
"1019 488 OFFCURVE",
"1020 494 OFFCURVE",
"1020 500 CURVE SMOOTH",
"1020 525 OFFCURVE",
"1000 545 OFFCURVE",
"975 545 CURVE SMOOTH",
"956 545 OFFCURVE",
"939 533 OFFCURVE",
"933 516 CURVE SMOOTH",
"770 110 LINE",
"582 487 LINE SMOOTH",
"570 510 OFFCURVE",
"554 520 OFFCURVE",
"529 520 CURVE SMOOTH",
"521 520 LINE SMOOTH",
"496 520 OFFCURVE",
"480 510 OFFCURVE",
"468 487 CURVE SMOOTH",
"280 110 LINE",
"117 516 LINE SMOOTH",
"111 533 OFFCURVE",
"94 545 OFFCURVE",
"75 545 CURVE SMOOTH",
"50 545 OFFCURVE",
"30 525 OFFCURVE",
"30 500 CURVE SMOOTH",
"30 494 OFFCURVE",
"31 488 OFFCURVE",
"34 482 CURVE SMOOTH",
"219 18 LINE SMOOTH",
"229 -6 OFFCURVE",
"245 -17 OFFCURVE",
"270 -18 CURVE SMOOTH",
"278 -19 LINE SMOOTH",
"304 -20 OFFCURVE",
"320 -10 OFFCURVE",
"332 13 CURVE SMOOTH",
"525 399 LINE",
"718 13 LINE SMOOTH",
"730 -10 OFFCURVE",
"746 -20 OFFCURVE",
"772 -19 CURVE SMOOTH"
);
}
);
width = 1050;
},
{
associatedMasterId = "ADA7F6FF-5955-4EF3-8FA7-BADC10F8EE4C";
layerId = "905EDD42-EEB8-403B-99C7-FCB41D150BAA";
name = path;
paths = (
{
closed = 0;
nodes = (
"950 500 LINE",
"750 0 LINE",
"500 500 LINE",
"250 0 LINE",
"50 500 LINE"
);
}
);
width = 1000;
}
);
unicode = 0057;
},
{
glyphname = X;
lastChange = "2018-11-21 21:33:49 +0000";
layers = (
{
layerId = "ADA7F6FF-5955-4EF3-8FA7-BADC10F8EE4C";
paths = (
{
closed = 1;
nodes = (
"83 -45 OFFCURVE",
"91 -43 OFFCURVE",
"98 -39 CURVE SMOOTH",
"525 199 LINE",
"952 -39 LINE SMOOTH",
"959 -43 OFFCURVE",
"967 -45 OFFCURVE",
"975 -45 CURVE SMOOTH",
"1000 -45 OFFCURVE",
"1020 -25 OFFCURVE",
"1020 0 CURVE SMOOTH",
"1020 17 OFFCURVE",
"1010 32 OFFCURVE",
"996 40 CURVE SMOOTH",
"618 250 LINE",
"996 460 LINE SMOOTH",
"1010 468 OFFCURVE",
"1020 483 OFFCURVE",
"1020 500 CURVE SMOOTH",
"1020 525 OFFCURVE",
"1000 545 OFFCURVE",
"975 545 CURVE SMOOTH",
"967 545 OFFCURVE",
"959 543 OFFCURVE",
"952 539 CURVE SMOOTH",
"525 301 LINE",
"98 539 LINE SMOOTH",
"91 543 OFFCURVE",
"83 545 OFFCURVE",
"75 545 CURVE SMOOTH",
"50 545 OFFCURVE",
"30 525 OFFCURVE",
"30 500 CURVE SMOOTH",
"30 483 OFFCURVE",
"40 468 OFFCURVE",
"54 460 CURVE SMOOTH",
"432 250 LINE",
"54 40 LINE SMOOTH",
"40 32 OFFCURVE",
"30 17 OFFCURVE",
"30 0 CURVE SMOOTH",
"30 -25 OFFCURVE",
"50 -45 OFFCURVE",
"75 -45 CURVE SMOOTH"
);
}
);
width = 1050;
},
{
associatedMasterId = "ADA7F6FF-5955-4EF3-8FA7-BADC10F8EE4C";
layerId = "F83150C8-03EC-4E49-819E-2CB0787160C7";
name = path;
paths = (
{
closed = 0;
nodes = (
"50 500 LINE",
"950 0 LINE"
);
},
{
closed = 0;
nodes = (
"950 500 LINE",
"50 0 LINE"
);
}
);
width = 1000;
}
);
unicode = 0058;
},
{
glyphname = Y;
lastChange = "2018-11-22 08:53:34 +0000";
layers = (
{
associatedMasterId = "ADA7F6FF-5955-4EF3-8FA7-BADC10F8EE4C";
layerId = "657B65C7-D9B0-4D8F-89FD-CE9F188AEA81";
name = path;
paths = (
{
closed = 0;
nodes = (
"50 500 LINE",
"500 100 LINE",
"950 500 LINE"
);
},
{
closed = 0;
nodes = (
"500 100 LINE",
"500 0 LINE"
);
}
);
width = 1000;
},
{
associatedMasterId = "ADA7F6FF-5955-4EF3-8FA7-BADC10F8EE4C";
layerId = "54128420-C37D-45A3-9701-221336B72E94";
name = "Oct 6 18, 16:37";
paths = (
{
closed = 1;
nodes = (
"550 -45 OFFCURVE",
"570 -25 OFFCURVE",
"570 0 CURVE SMOOTH",
"570 224 LINE",
"996 460 LINE SMOOTH",
"1010 468 OFFCURVE",
"1020 483 OFFCURVE",
"1020 500 CURVE SMOOTH",
"1020 525 OFFCURVE",
"1000 545 OFFCURVE",
"975 545 CURVE SMOOTH",
"967 545 OFFCURVE",
"959 543 OFFCURVE",
"952 539 CURVE SMOOTH",
"525 301 LINE",
"98 539 LINE SMOOTH",
"91 543 OFFCURVE",
"83 545 OFFCURVE",
"75 545 CURVE SMOOTH",
"50 545 OFFCURVE",
"30 525 OFFCURVE",
"30 500 CURVE SMOOTH",
"30 483 OFFCURVE",
"40 468 OFFCURVE",
"54 460 CURVE SMOOTH",
"480 224 LINE",
"480 0 LINE SMOOTH",
"480 -25 OFFCURVE",
"500 -45 OFFCURVE",
"525 -45 CURVE SMOOTH"
);
}
);
width = 1050;
},
{
layerId = "ADA7F6FF-5955-4EF3-8FA7-BADC10F8EE4C";
paths = (
{
closed = 1;
nodes = (
"550 -45 OFFCURVE",
"570 -25 OFFCURVE",
"570 0 CURVE SMOOTH",
"570 80 LINE",
"1005 466 LINE SMOOTH",
"1014 474 OFFCURVE",
"1020 487 OFFCURVE",
"1020 500 CURVE SMOOTH",
"1020 525 OFFCURVE",
"1000 545 OFFCURVE",
"975 545 CURVE SMOOTH",
"963 545 OFFCURVE",
"953 541 OFFCURVE",
"945 534 CURVE SMOOTH",
"525 160 LINE",
"105 534 LINE SMOOTH",
"97 541 OFFCURVE",
"87 545 OFFCURVE",
"75 545 CURVE SMOOTH",
"50 545 OFFCURVE",
"30 525 OFFCURVE",
"30 500 CURVE SMOOTH",
"30 487 OFFCURVE",
"36 474 OFFCURVE",
"45 466 CURVE SMOOTH",
"480 80 LINE",
"480 0 LINE SMOOTH",
"480 -25 OFFCURVE",
"500 -45 OFFCURVE",
"525 -45 CURVE SMOOTH"
);
}
);
width = 1050;
}
);
unicode = 0059;
},
{
glyphname = Z;
lastChange = "2018-10-06 14:15:01 +0000";
layers = (
{
layerId = "ADA7F6FF-5955-4EF3-8FA7-BADC10F8EE4C";
paths = (
{
closed = 1;
nodes = (
"975 -45 LINE SMOOTH",
"1000 -45 OFFCURVE",
"1020 -25 OFFCURVE",
"1020 0 CURVE SMOOTH",
"1020 25 OFFCURVE",
"1000 45 OFFCURVE",
"975 45 CURVE SMOOTH",
"249 45 LINE",
"962 441 LINE SMOOTH",
"985 454 OFFCURVE",
"994 473 OFFCURVE",
"987 499 CURVE SMOOTH",
"985 506 LINE SMOOTH",
"978 532 OFFCURVE",
"962 545 OFFCURVE",
"935 545 CURVE SMOOTH",
"75 545 LINE SMOOTH",
"50 545 OFFCURVE",
"30 525 OFFCURVE",
"30 500 CURVE SMOOTH",
"30 475 OFFCURVE",
"50 455 OFFCURVE",
"75 455 CURVE SMOOTH",
"801 455 LINE",
"88 59 LINE SMOOTH",
"65 46 OFFCURVE",
"56 27 OFFCURVE",
"63 1 CURVE SMOOTH",
"65 -6 LINE SMOOTH",
"72 -32 OFFCURVE",
"88 -45 OFFCURVE",
"115 -45 CURVE SMOOTH"
);
}
);
width = 1050;
},
{
associatedMasterId = "ADA7F6FF-5955-4EF3-8FA7-BADC10F8EE4C";
layerId = "12B388FB-A8AF-4469-AE23-40117660B6A7";
name = path;
paths = (
{
closed = 0;
nodes = (
"950 0 LINE",
"50 0 LINE",
"950 500 LINE",
"50 500 LINE"
);
}
);
width = 1000;
}
);
unicode = 005A;
},
{
glyphname = A.alt1;
lastChange = "2018-11-22 11:26:44 +0000";
layers = (
{
layerId = "ADA7F6FF-5955-4EF3-8FA7-BADC10F8EE4C";
paths = (
{
closed = 1;
nodes = (
"100 -45 OFFCURVE",
"120 -25 OFFCURVE",
"120 0 CURVE SMOOTH",
"120 205 LINE",
"930 205 LINE",
"930 0 LINE SMOOTH",
"930 -25 OFFCURVE",
"950 -45 OFFCURVE",
"975 -45 CURVE SMOOTH",
"1000 -45 OFFCURVE",
"1020 -25 OFFCURVE",
"1020 0 CURVE SMOOTH",
"1020 467 LINE SMOOTH",
"1020 491 OFFCURVE",
"1013 507 OFFCURVE",
"998 523 CURVE SMOOTH",
"982 538 OFFCURVE",
"966 545 OFFCURVE",
"942 545 CURVE SMOOTH",
"108 545 LINE SMOOTH",
"84 545 OFFCURVE",
"68 538 OFFCURVE",
"53 523 CURVE SMOOTH",
"37 507 OFFCURVE",
"30 491 OFFCURVE",
"30 467 CURVE SMOOTH",
"30 0 LINE SMOOTH",
"30 -25 OFFCURVE",
"50 -45 OFFCURVE",
"75 -45 CURVE SMOOTH"
);
},
{
closed = 1;
nodes = (
"120 455 LINE",
"930 455 LINE",
"930 295 LINE",
"120 295 LINE"
);
}
);
width = 1050;
},
{
associatedMasterId = "ADA7F6FF-5955-4EF3-8FA7-BADC10F8EE4C";
layerId = "C76ABC3D-1B0F-4ED1-87B2-8BB7EF0BC64A";
name = path;
paths = (
{
closed = 0;
nodes = (
"50 250 LINE",
"950 250 LINE"
);
},
{
closed = 0;
nodes = (
"50 0 LINE",
"50 500 LINE",
"950 500 LINE",
"950 0 LINE"
);
}
);
width = 1000;
}
);
},
{
glyphname = W.alt1;
lastChange = "2018-11-22 08:58:45 +0000";
layers = (
{
layerId = "ADA7F6FF-5955-4EF3-8FA7-BADC10F8EE4C";
paths = (
{
closed = 1;
nodes = (
"987 -16 LINE SMOOTH",
"1010 -5 OFFCURVE",
"1020 11 OFFCURVE",
"1020 37 CURVE SMOOTH",
"1020 500 LINE SMOOTH",
"1020 525 OFFCURVE",
"1000 545 OFFCURVE",
"975 545 CURVE SMOOTH",
"950 545 OFFCURVE",
"930 525 OFFCURVE",
"930 500 CURVE SMOOTH",
"930 92 LINE",
"577 366 LINE SMOOTH",
"560 380 OFFCURVE",
"545 386 OFFCURVE",
"525 386 CURVE SMOOTH",
"505 386 OFFCURVE",
"490 380 OFFCURVE",
"473 366 CURVE SMOOTH",
"120 92 LINE",
"120 500 LINE SMOOTH",
"120 525 OFFCURVE",
"100 545 OFFCURVE",
"75 545 CURVE SMOOTH",
"50 545 OFFCURVE",
"30 525 OFFCURVE",
"30 500 CURVE SMOOTH",
"30 37 LINE SMOOTH",
"30 11 OFFCURVE",
"40 -5 OFFCURVE",
"63 -16 CURVE SMOOTH",
"70 -19 LINE SMOOTH",
"92 -31 OFFCURVE",
"112 -29 OFFCURVE",
"132 -13 CURVE SMOOTH",
"525 293 LINE",
"918 -13 LINE SMOOTH",
"938 -29 OFFCURVE",
"958 -31 OFFCURVE",
"980 -19 CURVE SMOOTH"
);
}
);
width = 1050;
},
{
associatedMasterId = "ADA7F6FF-5955-4EF3-8FA7-BADC10F8EE4C";
layerId = "21F35DD4-6C00-4465-97E7-F5C22FD6A676";
name = "Nov 5 18, 13:25";
paths = (
{
closed = 0;
nodes = (
"900 500 LINE",
"900 0 LINE",
"450 350 LINE",
"0 0 LINE",
"0 500 LINE"
);
}
);
width = 802;
}
);
},
{
glyphname = a;
lastChange = "2018-11-23 12:51:03 +0000";
layers = (
{
layerId = "ADA7F6FF-5955-4EF3-8FA7-BADC10F8EE4C";
paths = (
{
closed = 1;
nodes = (
"90 -45 OFFCURVE",
"103 -38 OFFCURVE",
"111 -27 CURVE SMOOTH",
"175 55 LINE",
"875 55 LINE",
"939 -27 LINE SMOOTH",
"947 -38 OFFCURVE",
"960 -45 OFFCURVE",
"975 -45 CURVE SMOOTH",
"1000 -45 OFFCURVE",
"1020 -25 OFFCURVE",
"1020 0 CURVE SMOOTH",
"1020 11 OFFCURVE",
"1016 20 OFFCURVE",
"1010 28 CURVE SMOOTH",
"638 505 LINE SMOOTH",
"625 521 OFFCURVE",
"616 530 OFFCURVE",
"603 536 CURVE SMOOTH",
"590 543 OFFCURVE",
"577 545 OFFCURVE",
"556 545 CURVE SMOOTH",
"494 545 LINE SMOOTH",
"473 545 OFFCURVE",
"460 543 OFFCURVE",
"447 536 CURVE SMOOTH",
"434 530 OFFCURVE",
"425 521 OFFCURVE",
"412 505 CURVE SMOOTH",
"40 28 LINE SMOOTH",
"34 20 OFFCURVE",
"30 11 OFFCURVE",
"30 0 CURVE SMOOTH",
"30 -25 OFFCURVE",
"50 -45 OFFCURVE",
"75 -45 CURVE SMOOTH"
);
},
{
closed = 1;
nodes = (
"487 455 LINE",
"563 455 LINE",
"805 145 LINE",
"245 145 LINE"
);
}
);
width = 1050;
}
);
unicode = 0061;
},
{
glyphname = b;
lastChange = "2018-11-23 12:51:15 +0000";
layers = (
{
layerId = "ADA7F6FF-5955-4EF3-8FA7-BADC10F8EE4C";
paths = (
{
closed = 1;
nodes = (
"966 -46 OFFCURVE",
"981 -39 OFFCURVE",
"997 -24 CURVE SMOOTH",
"1013 -8 OFFCURVE",
"1020 8 OFFCURVE",
"1020 32 CURVE SMOOTH",
"1020 124 LINE SMOOTH",
"1020 208 OFFCURVE",
"970 272 OFFCURVE",
"895 290 CURVE",
"895 375 LINE SMOOTH",
"895 475 OFFCURVE",
"825 545 OFFCURVE",
"725 545 CURVE SMOOTH",
"108 545 LINE SMOOTH",
"84 545 OFFCURVE",
"68 538 OFFCURVE",
"53 523 CURVE SMOOTH",
"37 507 OFFCURVE",
"30 491 OFFCURVE",
"30 467 CURVE SMOOTH",
"30 33 LINE SMOOTH",
"30 9 OFFCURVE",
"37 -7 OFFCURVE",
"52 -23 CURVE SMOOTH",
"68 -38 OFFCURVE",
"84 -45 OFFCURVE",
"107 -45 CURVE SMOOTH",
"942 -46 LINE SMOOTH"
);
},
{
closed = 1;
nodes = (
"120 45 LINE",
"120 205 LINE",
"850 205 LINE SMOOTH",
"900 205 OFFCURVE",
"930 174 OFFCURVE",
"930 124 CURVE SMOOTH",
"930 44 LINE"
);
},
{
closed = 1;
nodes = (
"120 455 LINE",
"725 455 LINE SMOOTH",
"775 455 OFFCURVE",
"805 425 OFFCURVE",
"805 375 CURVE SMOOTH",
"805 295 LINE",
"120 295 LINE"
);
}
);
width = 1050;
}
);
unicode = 0062;
},
{
glyphname = c;
lastChange = "2018-11-23 12:51:32 +0000";
layers = (
{
layerId = "ADA7F6FF-5955-4EF3-8FA7-BADC10F8EE4C";
paths = (
{
closed = 1;
nodes = (
"975 -45 LINE SMOOTH",
"1000 -45 OFFCURVE",
"1020 -25 OFFCURVE",
"1020 0 CURVE SMOOTH",
"1020 25 OFFCURVE",
"1000 45 OFFCURVE",
"975 45 CURVE SMOOTH",
"120 45 LINE",
"120 455 LINE",
"975 455 LINE SMOOTH",
"1000 455 OFFCURVE",
"1020 475 OFFCURVE",
"1020 500 CURVE SMOOTH",
"1020 525 OFFCURVE",
"1000 545 OFFCURVE",
"975 545 CURVE SMOOTH",
"108 545 LINE SMOOTH",
"84 545 OFFCURVE",
"68 538 OFFCURVE",
"53 523 CURVE SMOOTH",
"37 507 OFFCURVE",
"30 491 OFFCURVE",
"30 467 CURVE SMOOTH",
"30 33 LINE SMOOTH",
"30 9 OFFCURVE",
"37 -7 OFFCURVE",
"53 -23 CURVE SMOOTH",
"68 -38 OFFCURVE",
"84 -45 OFFCURVE",
"108 -45 CURVE SMOOTH"
);
}
);
width = 1050;
}
);
unicode = 0063;
},
{
glyphname = d;
lastChange = "2018-11-23 12:52:04 +0000";
layers = (
{
layerId = "ADA7F6FF-5955-4EF3-8FA7-BADC10F8EE4C";
paths = (
{
closed = 1;
nodes = (
"850 -45 LINE SMOOTH",
"950 -45 OFFCURVE",
"1020 25 OFFCURVE",
"1020 125 CURVE SMOOTH",
"1020 375 LINE SMOOTH",
"1020 475 OFFCURVE",
"950 545 OFFCURVE",
"850 545 CURVE SMOOTH",
"107 543 LINE SMOOTH",
"84 543 OFFCURVE",
"68 536 OFFCURVE",
"52 521 CURVE SMOOTH",
"36 505 OFFCURVE",
"30 489 OFFCURVE",
"30 465 CURVE SMOOTH",
"30 31 LINE SMOOTH",
"30 7 OFFCURVE",
"37 -9 OFFCURVE",
"53 -25 CURVE SMOOTH",
"69 -40 OFFCURVE",
"85 -47 OFFCURVE",
"108 -47 CURVE SMOOTH"
);
},
{
closed = 1;
nodes = (
"120 453 LINE",
"850 455 LINE SMOOTH",
"900 455 OFFCURVE",
"930 425 OFFCURVE",
"930 375 CURVE SMOOTH",
"930 125 LINE SMOOTH",
"930 75 OFFCURVE",
"900 45 OFFCURVE",
"850 45 CURVE SMOOTH",
"120 43 LINE"
);
}
);
width = 1050;
}
);
unicode = 0064;
},
{
glyphname = e;
lastChange = "2018-11-23 12:52:16 +0000";
layers = (
{
layerId = "ADA7F6FF-5955-4EF3-8FA7-BADC10F8EE4C";
paths = (
{
closed = 1;
nodes = (
"975 -45 LINE SMOOTH",
"1000 -45 OFFCURVE",
"1020 -25 OFFCURVE",
"1020 0 CURVE SMOOTH",
"1020 25 OFFCURVE",
"1000 45 OFFCURVE",
"975 45 CURVE SMOOTH",
"120 45 LINE",
"120 205 LINE",
"975 205 LINE SMOOTH",
"1000 205 OFFCURVE",
"1020 225 OFFCURVE",
"1020 250 CURVE SMOOTH",
"1020 275 OFFCURVE",
"1000 295 OFFCURVE",
"975 295 CURVE SMOOTH",
"120 295 LINE",
"120 455 LINE",
"975 455 LINE SMOOTH",
"1000 455 OFFCURVE",
"1020 475 OFFCURVE",
"1020 500 CURVE SMOOTH",
"1020 525 OFFCURVE",
"1000 545 OFFCURVE",
"975 545 CURVE SMOOTH",
"108 545 LINE SMOOTH",
"84 545 OFFCURVE",
"68 538 OFFCURVE",
"53 523 CURVE SMOOTH",
"37 507 OFFCURVE",
"30 491 OFFCURVE",
"30 467 CURVE SMOOTH",
"30 33 LINE SMOOTH",
"30 9 OFFCURVE",
"37 -7 OFFCURVE",
"53 -23 CURVE SMOOTH",
"68 -38 OFFCURVE",
"84 -45 OFFCURVE",
"108 -45 CURVE SMOOTH"
);
}
);
width = 1050;
}
);
unicode = 0065;
},
{
glyphname = f;
lastChange = "2018-11-23 12:52:28 +0000";
layers = (
{
layerId = "ADA7F6FF-5955-4EF3-8FA7-BADC10F8EE4C";
paths = (
{
closed = 1;
nodes = (
"100 -45 OFFCURVE",
"120 -25 OFFCURVE",
"120 0 CURVE SMOOTH",
"120 205 LINE",
"975 205 LINE SMOOTH",
"1000 205 OFFCURVE",
"1020 225 OFFCURVE",
"1020 250 CURVE SMOOTH",
"1020 275 OFFCURVE",
"1000 295 OFFCURVE",
"975 295 CURVE SMOOTH",
"120 295 LINE",
"120 455 LINE",
"975 455 LINE SMOOTH",
"1000 455 OFFCURVE",
"1020 475 OFFCURVE",
"1020 500 CURVE SMOOTH",
"1020 525 OFFCURVE",
"1000 545 OFFCURVE",
"975 545 CURVE SMOOTH",
"108 545 LINE SMOOTH",
"84 545 OFFCURVE",
"68 538 OFFCURVE",
"53 523 CURVE SMOOTH",
"37 507 OFFCURVE",
"30 491 OFFCURVE",
"30 467 CURVE SMOOTH",
"30 0 LINE SMOOTH",
"30 -25 OFFCURVE",
"50 -45 OFFCURVE",
"75 -45 CURVE SMOOTH"
);
}
);
width = 1050;
}
);
unicode = 0066;
},
{
glyphname = g;
lastChange = "2018-11-23 12:52:44 +0000";
layers = (
{
layerId = "ADA7F6FF-5955-4EF3-8FA7-BADC10F8EE4C";
paths = (
{
closed = 1;
nodes = (
"942 -45 LINE SMOOTH",
"966 -45 OFFCURVE",
"982 -38 OFFCURVE",
"998 -23 CURVE SMOOTH",
"1013 -7 OFFCURVE",
"1020 9 OFFCURVE",
"1020 33 CURVE SMOOTH",
"1020 217 LINE SMOOTH",
"1020 241 OFFCURVE",
"1013 257 OFFCURVE",
"998 273 CURVE SMOOTH",
"982 288 OFFCURVE",
"966 295 OFFCURVE",
"942 295 CURVE SMOOTH",
"300 295 LINE SMOOTH",
"275 295 OFFCURVE",
"255 275 OFFCURVE",
"255 250 CURVE SMOOTH",
"255 225 OFFCURVE",
"275 205 OFFCURVE",
"300 205 CURVE SMOOTH",
"930 205 LINE",
"930 45 LINE",
"120 45 LINE",
"120 455 LINE",
"975 455 LINE SMOOTH",
"1000 455 OFFCURVE",
"1020 475 OFFCURVE",
"1020 500 CURVE SMOOTH",
"1020 525 OFFCURVE",
"1000 545 OFFCURVE",
"975 545 CURVE SMOOTH",
"108 545 LINE SMOOTH",
"84 545 OFFCURVE",
"68 538 OFFCURVE",
"53 523 CURVE SMOOTH",
"37 507 OFFCURVE",
"30 491 OFFCURVE",
"30 467 CURVE SMOOTH",
"30 33 LINE SMOOTH",
"30 9 OFFCURVE",
"37 -7 OFFCURVE",
"53 -23 CURVE SMOOTH",
"68 -38 OFFCURVE",
"84 -45 OFFCURVE",
"108 -45 CURVE SMOOTH"
);
}
);
width = 1050;
}
);
unicode = 0067;
},
{
glyphname = h;
lastChange = "2018-11-23 12:52:53 +0000";
layers = (
{
layerId = "ADA7F6FF-5955-4EF3-8FA7-BADC10F8EE4C";
paths = (
{
closed = 1;
nodes = (
"100 -45 OFFCURVE",
"120 -25 OFFCURVE",
"120 0 CURVE SMOOTH",
"120 205 LINE",
"930 205 LINE",
"930 0 LINE SMOOTH",
"930 -25 OFFCURVE",
"950 -45 OFFCURVE",
"975 -45 CURVE SMOOTH",
"1000 -45 OFFCURVE",
"1020 -25 OFFCURVE",
"1020 0 CURVE SMOOTH",
"1020 500 LINE SMOOTH",
"1020 525 OFFCURVE",
"1000 545 OFFCURVE",
"975 545 CURVE SMOOTH",
"950 545 OFFCURVE",
"930 525 OFFCURVE",
"930 500 CURVE SMOOTH",
"930 295 LINE",
"120 295 LINE",
"120 500 LINE SMOOTH",
"120 525 OFFCURVE",
"100 545 OFFCURVE",
"75 545 CURVE SMOOTH",
"50 545 OFFCURVE",
"30 525 OFFCURVE",
"30 500 CURVE SMOOTH",
"30 0 LINE SMOOTH",
"30 -25 OFFCURVE",
"50 -45 OFFCURVE",
"75 -45 CURVE SMOOTH"
);
}
);
width = 1050;
}
);
unicode = 0068;
},
{
glyphname = i;
lastChange = "2018-11-23 12:53:05 +0000";
layers = (
{
layerId = "ADA7F6FF-5955-4EF3-8FA7-BADC10F8EE4C";
paths = (
{
closed = 1;
nodes = (
"975 -45 LINE SMOOTH",
"1000 -45 OFFCURVE",
"1020 -25 OFFCURVE",
"1020 0 CURVE SMOOTH",
"1020 25 OFFCURVE",
"1000 45 OFFCURVE",
"975 45 CURVE SMOOTH",
"570 45 LINE",
"570 455 LINE",
"975 455 LINE SMOOTH",
"1000 455 OFFCURVE",
"1020 475 OFFCURVE",
"1020 500 CURVE SMOOTH",
"1020 525 OFFCURVE",
"1000 545 OFFCURVE",
"975 545 CURVE SMOOTH",
"75 545 LINE SMOOTH",
"50 545 OFFCURVE",
"30 525 OFFCURVE",
"30 500 CURVE SMOOTH",
"30 475 OFFCURVE",
"50 455 OFFCURVE",
"75 455 CURVE SMOOTH",
"480 455 LINE",
"480 45 LINE",
"75 45 LINE SMOOTH",
"50 45 OFFCURVE",
"30 25 OFFCURVE",
"30 0 CURVE SMOOTH",
"30 -25 OFFCURVE",
"50 -45 OFFCURVE",
"75 -45 CURVE SMOOTH"
);
}
);
width = 1050;
}
);
unicode = 0069;
},
{
glyphname = j;
lastChange = "2018-11-23 12:53:15 +0000";
layers = (
{
layerId = "ADA7F6FF-5955-4EF3-8FA7-BADC10F8EE4C";
paths = (
{
closed = 1;
nodes = (
"942 -45 LINE SMOOTH",
"966 -45 OFFCURVE",
"982 -38 OFFCURVE",
"998 -23 CURVE SMOOTH",
"1013 -7 OFFCURVE",
"1020 9 OFFCURVE",
"1020 33 CURVE SMOOTH",
"1020 467 LINE SMOOTH",
"1020 491 OFFCURVE",
"1013 507 OFFCURVE",
"998 523 CURVE SMOOTH",
"982 538 OFFCURVE",
"966 545 OFFCURVE",
"942 545 CURVE SMOOTH",
"75 545 LINE SMOOTH",
"50 545 OFFCURVE",
"30 525 OFFCURVE",
"30 500 CURVE SMOOTH",
"30 475 OFFCURVE",
"50 455 OFFCURVE",
"75 455 CURVE SMOOTH",
"930 455 LINE",
"930 45 LINE",
"120 45 LINE",
"120 250 LINE SMOOTH",
"120 275 OFFCURVE",
"100 295 OFFCURVE",
"75 295 CURVE SMOOTH",
"50 295 OFFCURVE",
"30 275 OFFCURVE",
"30 250 CURVE SMOOTH",
"30 33 LINE SMOOTH",
"30 9 OFFCURVE",
"37 -7 OFFCURVE",
"53 -23 CURVE SMOOTH",
"68 -38 OFFCURVE",
"84 -45 OFFCURVE",
"108 -45 CURVE SMOOTH"
);
}
);
width = 1050;
}
);
unicode = 006A;
},
{
glyphname = k;
lastChange = "2018-11-23 12:53:37 +0000";
layers = (
{
layerId = "ADA7F6FF-5955-4EF3-8FA7-BADC10F8EE4C";
paths = (
{
closed = 1;
nodes = (
"100 -45 OFFCURVE",
"120 -25 OFFCURVE",
"120 0 CURVE SMOOTH",
"120 168 LINE",
"281 221 LINE",
"958 -42 LINE SMOOTH",
"963 -44 OFFCURVE",
"969 -45 OFFCURVE",
"975 -45 CURVE SMOOTH",
"1000 -45 OFFCURVE",
"1020 -25 OFFCURVE",
"1020 0 CURVE SMOOTH",
"1020 19 OFFCURVE",
"1008 36 OFFCURVE",
"990 42 CURVE SMOOTH",
"415 266 LINE",
"988 457 LINE SMOOTH",
"1007 463 OFFCURVE",
"1020 480 OFFCURVE",
"1020 500 CURVE SMOOTH",
"1020 525 OFFCURVE",
"1000 545 OFFCURVE",
"975 545 CURVE SMOOTH",
"970 545 OFFCURVE",
"965 544 OFFCURVE",
"960 542 CURVE SMOOTH",
"120 262 LINE",
"120 500 LINE SMOOTH",
"120 525 OFFCURVE",
"100 545 OFFCURVE",
"75 545 CURVE SMOOTH",
"50 545 OFFCURVE",
"30 525 OFFCURVE",
"30 500 CURVE SMOOTH",
"30 0 LINE SMOOTH",
"30 -25 OFFCURVE",
"50 -45 OFFCURVE",
"75 -45 CURVE SMOOTH"
);
}
);
width = 1050;
}
);
unicode = 006B;
},
{
glyphname = l;
lastChange = "2018-11-23 12:53:45 +0000";
layers = (
{
layerId = "ADA7F6FF-5955-4EF3-8FA7-BADC10F8EE4C";
paths = (
{
closed = 1;
nodes = (
"975 -45 LINE SMOOTH",
"1000 -45 OFFCURVE",
"1020 -25 OFFCURVE",
"1020 0 CURVE SMOOTH",
"1020 25 OFFCURVE",
"1000 45 OFFCURVE",
"975 45 CURVE SMOOTH",
"120 45 LINE",
"120 500 LINE SMOOTH",
"120 525 OFFCURVE",
"100 545 OFFCURVE",
"75 545 CURVE SMOOTH",
"50 545 OFFCURVE",
"30 525 OFFCURVE",
"30 500 CURVE SMOOTH",
"30 33 LINE SMOOTH",
"30 9 OFFCURVE",
"37 -7 OFFCURVE",
"53 -23 CURVE SMOOTH",
"68 -38 OFFCURVE",
"84 -45 OFFCURVE",
"108 -45 CURVE SMOOTH"
);
}
);
width = 1050;
}
);
unicode = 006C;
},
{
glyphname = m;
lastChange = "2018-11-23 12:53:55 +0000";
layers = (
{
layerId = "ADA7F6FF-5955-4EF3-8FA7-BADC10F8EE4C";
paths = (
{
closed = 1;
nodes = (
"100 -45 OFFCURVE",
"120 -25 OFFCURVE",
"120 0 CURVE SMOOTH",
"120 383 LINE",
"469 -5 LINE SMOOTH",
"485 -23 OFFCURVE",
"501 -30 OFFCURVE",
"525 -30 CURVE SMOOTH",
"525 -30 LINE SMOOTH",
"549 -30 OFFCURVE",
"565 -23 OFFCURVE",
"581 -5 CURVE SMOOTH",
"930 383 LINE",
"930 0 LINE SMOOTH",
"930 -25 OFFCURVE",
"950 -45 OFFCURVE",
"975 -45 CURVE SMOOTH",
"1000 -45 OFFCURVE",
"1020 -25 OFFCURVE",
"1020 0 CURVE SMOOTH",
"1020 462 LINE SMOOTH",
"1020 488 OFFCURVE",
"1009 504 OFFCURVE",
"984 514 CURVE SMOOTH",
"977 516 LINE SMOOTH",
"953 526 OFFCURVE",
"933 521 OFFCURVE",
"916 502 CURVE SMOOTH",
"525 67 LINE",
"134 502 LINE SMOOTH",
"117 521 OFFCURVE",
"97 526 OFFCURVE",
"73 516 CURVE SMOOTH",
"66 514 LINE SMOOTH",
"41 504 OFFCURVE",
"30 488 OFFCURVE",
"30 462 CURVE SMOOTH",
"30 0 LINE SMOOTH",
"30 -25 OFFCURVE",
"50 -45 OFFCURVE",
"75 -45 CURVE SMOOTH"
);
}
);
width = 1050;
}
);
unicode = 006D;
},
{
glyphname = n;
lastChange = "2018-11-23 12:54:05 +0000";
layers = (
{
layerId = "ADA7F6FF-5955-4EF3-8FA7-BADC10F8EE4C";
paths = (
{
closed = 1;
nodes = (
"100 -45 OFFCURVE",
"120 -25 OFFCURVE",
"120 0 CURVE SMOOTH",
"120 424 LINE",
"922 -22 LINE SMOOTH",
"944 -34 OFFCURVE",
"963 -34 OFFCURVE",
"984 -21 CURVE SMOOTH",
"989 -18 LINE SMOOTH",
"1011 -6 OFFCURVE",
"1020 11 OFFCURVE",
"1020 36 CURVE SMOOTH",
"1020 500 LINE SMOOTH",
"1020 525 OFFCURVE",
"1000 545 OFFCURVE",
"975 545 CURVE SMOOTH",
"950 545 OFFCURVE",
"930 525 OFFCURVE",
"930 500 CURVE SMOOTH",
"930 76 LINE",
"128 522 LINE SMOOTH",
"106 534 OFFCURVE",
"87 534 OFFCURVE",
"66 521 CURVE SMOOTH",
"61 518 LINE SMOOTH",
"39 506 OFFCURVE",
"30 489 OFFCURVE",
"30 464 CURVE SMOOTH",
"30 0 LINE SMOOTH",
"30 -25 OFFCURVE",
"50 -45 OFFCURVE",
"75 -45 CURVE SMOOTH"
);
}
);
width = 1050;
}
);
unicode = 006E;
},
{
glyphname = o;
lastChange = "2018-11-23 12:54:29 +0000";
layers = (
{
layerId = "ADA7F6FF-5955-4EF3-8FA7-BADC10F8EE4C";
paths = (
{
closed = 1;
nodes = (
"942 -45 LINE SMOOTH",
"966 -45 OFFCURVE",
"982 -38 OFFCURVE",
"998 -23 CURVE SMOOTH",
"1013 -7 OFFCURVE",
"1020 9 OFFCURVE",
"1020 33 CURVE SMOOTH",
"1020 467 LINE SMOOTH",
"1020 491 OFFCURVE",
"1013 507 OFFCURVE",
"998 523 CURVE SMOOTH",
"982 538 OFFCURVE",
"966 545 OFFCURVE",
"942 545 CURVE SMOOTH",
"108 545 LINE SMOOTH",
"84 545 OFFCURVE",
"68 538 OFFCURVE",
"53 523 CURVE SMOOTH",
"37 507 OFFCURVE",
"30 491 OFFCURVE",
"30 467 CURVE SMOOTH",
"30 33 LINE SMOOTH",
"30 9 OFFCURVE",
"37 -7 OFFCURVE",
"53 -23 CURVE SMOOTH",
"68 -38 OFFCURVE",
"84 -45 OFFCURVE",
"108 -45 CURVE SMOOTH"
);
},
{
closed = 1;
nodes = (
"120 455 LINE",
"930 455 LINE",
"930 45 LINE",
"120 45 LINE"
);
}
);
width = 1050;
}
);
unicode = 006F;
},
{
glyphname = p;
lastChange = "2018-11-23 12:54:54 +0000";
layers = (
{
layerId = "ADA7F6FF-5955-4EF3-8FA7-BADC10F8EE4C";
paths = (
{
closed = 1;
nodes = (
"100 -45 OFFCURVE",
"120 -25 OFFCURVE",
"120 0 CURVE SMOOTH",
"120 205 LINE",
"942 205 LINE SMOOTH",
"966 205 OFFCURVE",
"982 212 OFFCURVE",
"998 228 CURVE SMOOTH",
"1013 243 OFFCURVE",
"1020 259 OFFCURVE",
"1020 283 CURVE SMOOTH",
"1020 467 LINE SMOOTH",
"1020 491 OFFCURVE",
"1013 507 OFFCURVE",
"998 523 CURVE SMOOTH",
"982 538 OFFCURVE",
"966 545 OFFCURVE",
"942 545 CURVE SMOOTH",
"108 545 LINE SMOOTH",
"84 545 OFFCURVE",
"68 538 OFFCURVE",
"53 523 CURVE SMOOTH",
"37 507 OFFCURVE",
"30 491 OFFCURVE",
"30 467 CURVE SMOOTH",
"30 0 LINE SMOOTH",
"30 -25 OFFCURVE",
"50 -45 OFFCURVE",
"75 -45 CURVE SMOOTH"
);
},
{
closed = 1;
nodes = (
"120 455 LINE",
"930 455 LINE",
"930 295 LINE",
"120 295 LINE"
);
}
);
width = 1050;
}
);
unicode = 0070;
},
{
glyphname = q;
lastChange = "2018-11-23 12:55:04 +0000";
layers = (
{
layerId = "ADA7F6FF-5955-4EF3-8FA7-BADC10F8EE4C";
paths = (
{
closed = 1;
nodes = (
"942 -45 LINE SMOOTH",
"966 -45 OFFCURVE",
"982 -38 OFFCURVE",
"998 -23 CURVE SMOOTH",
"1013 -7 OFFCURVE",
"1020 9 OFFCURVE",
"1020 33 CURVE SMOOTH",
"1020 467 LINE SMOOTH",
"1020 491 OFFCURVE",
"1013 507 OFFCURVE",
"998 523 CURVE SMOOTH",
"982 538 OFFCURVE",
"966 545 OFFCURVE",
"942 545 CURVE SMOOTH",
"108 545 LINE SMOOTH",
"84 545 OFFCURVE",
"68 538 OFFCURVE",
"53 523 CURVE SMOOTH",
"37 507 OFFCURVE",
"30 491 OFFCURVE",
"30 467 CURVE SMOOTH",
"30 33 LINE SMOOTH",
"30 9 OFFCURVE",
"37 -7 OFFCURVE",
"53 -23 CURVE SMOOTH",
"68 -38 OFFCURVE",
"84 -45 OFFCURVE",
"108 -45 CURVE SMOOTH"
);
},
{
closed = 1;
nodes = (
"120 455 LINE",
"930 455 LINE",
"930 76 LINE",
"548 289 LINE SMOOTH",
"541 293 OFFCURVE",
"533 295 OFFCURVE",
"525 295 CURVE SMOOTH",
"500 295 OFFCURVE",
"480 275 OFFCURVE",
"480 250 CURVE SMOOTH",
"480 233 OFFCURVE",
"490 218 OFFCURVE",
"504 210 CURVE SMOOTH",
"801 45 LINE",
"120 45 LINE"
);
}
);
width = 1050;
}
);
unicode = 0071;
},
{
glyphname = r;
lastChange = "2018-11-23 12:56:25 +0000";
layers = (
{
layerId = "ADA7F6FF-5955-4EF3-8FA7-BADC10F8EE4C";
paths = (
{
closed = 1;
nodes = (
"1000 -46 OFFCURVE",
"1020 -26 OFFCURVE",
"1020 -1 CURVE SMOOTH",
"1020 124 LINE SMOOTH",
"1020 176 OFFCURVE",
"1001 219 OFFCURVE",
"969 250 CURVE",
"1001 280 OFFCURVE",
"1020 323 OFFCURVE",
"1020 375 CURVE SMOOTH",
"1020 467 LINE SMOOTH",
"1020 491 OFFCURVE",
"1013 507 OFFCURVE",
"998 523 CURVE SMOOTH",
"982 538 OFFCURVE",
"966 545 OFFCURVE",
"942 545 CURVE SMOOTH",
"108 545 LINE SMOOTH",
"84 545 OFFCURVE",
"68 538 OFFCURVE",
"53 523 CURVE SMOOTH",
"37 507 OFFCURVE",
"30 491 OFFCURVE",
"30 467 CURVE SMOOTH",
"30 0 LINE SMOOTH",
"30 -25 OFFCURVE",
"50 -45 OFFCURVE",
"75 -45 CURVE SMOOTH",
"100 -45 OFFCURVE",
"120 -25 OFFCURVE",
"120 0 CURVE SMOOTH",
"120 205 LINE",
"850 205 LINE",
"850 205 LINE SMOOTH",
"850 204 OFFCURVE",
"857 206 OFFCURVE",
"876 201 CURVE SMOOTH",
"910 192 OFFCURVE",
"930 165 OFFCURVE",
"930 124 CURVE SMOOTH",
"930 -1 LINE SMOOTH",
"930 -26 OFFCURVE",
"950 -46 OFFCURVE",
"975 -46 CURVE SMOOTH"
);
},
{
closed = 1;
nodes = (
"120 455 LINE",
"930 455 LINE",
"930 375 LINE SMOOTH",
"930 325 OFFCURVE",
"900 295 OFFCURVE",
"850 295 CURVE SMOOTH",
"120 295 LINE"
);
}
);
width = 1050;
}
);
unicode = 0072;
},
{
glyphname = s;
lastChange = "2018-11-23 12:56:35 +0000";
layers = (
{
layerId = "ADA7F6FF-5955-4EF3-8FA7-BADC10F8EE4C";
paths = (
{
closed = 1;
nodes = (
"942 -45 LINE SMOOTH",
"966 -45 OFFCURVE",
"982 -38 OFFCURVE",
"998 -23 CURVE SMOOTH",
"1013 -7 OFFCURVE",
"1020 9 OFFCURVE",
"1020 33 CURVE SMOOTH",
"1020 217 LINE SMOOTH",
"1020 241 OFFCURVE",
"1013 257 OFFCURVE",
"998 273 CURVE SMOOTH",
"982 288 OFFCURVE",
"966 295 OFFCURVE",
"942 295 CURVE SMOOTH",
"120 295 LINE",
"120 455 LINE",
"975 455 LINE SMOOTH",
"1000 455 OFFCURVE",
"1020 475 OFFCURVE",
"1020 500 CURVE SMOOTH",
"1020 525 OFFCURVE",
"1000 545 OFFCURVE",
"975 545 CURVE SMOOTH",
"108 545 LINE SMOOTH",
"84 545 OFFCURVE",
"68 538 OFFCURVE",
"53 523 CURVE SMOOTH",
"37 507 OFFCURVE",
"30 491 OFFCURVE",
"30 467 CURVE SMOOTH",
"30 283 LINE SMOOTH",
"30 259 OFFCURVE",
"37 243 OFFCURVE",
"53 228 CURVE SMOOTH",
"68 212 OFFCURVE",
"84 205 OFFCURVE",
"108 205 CURVE SMOOTH",
"930 205 LINE",
"930 45 LINE",
"75 45 LINE SMOOTH",
"50 45 OFFCURVE",
"30 25 OFFCURVE",
"30 0 CURVE SMOOTH",
"30 -25 OFFCURVE",
"50 -45 OFFCURVE",
"75 -45 CURVE SMOOTH"
);
}
);
width = 1050;
}
);
unicode = 0073;
},
{
glyphname = t;
lastChange = "2018-11-23 12:57:40 +0000";
layers = (
{
layerId = "ADA7F6FF-5955-4EF3-8FA7-BADC10F8EE4C";
paths = (
{
closed = 1;
nodes = (
"550 -45 OFFCURVE",
"570 -25 OFFCURVE",
"570 0 CURVE SMOOTH",
"570 455 LINE",
"975 455 LINE SMOOTH",
"1000 455 OFFCURVE",
"1020 475 OFFCURVE",
"1020 500 CURVE SMOOTH",
"1020 525 OFFCURVE",
"1000 545 OFFCURVE",
"975 545 CURVE SMOOTH",
"75 545 LINE SMOOTH",
"50 545 OFFCURVE",
"30 525 OFFCURVE",
"30 500 CURVE SMOOTH",
"30 475 OFFCURVE",
"50 455 OFFCURVE",
"75 455 CURVE SMOOTH",
"480 455 LINE",
"480 0 LINE SMOOTH",
"480 -25 OFFCURVE",
"500 -45 OFFCURVE",
"525 -45 CURVE SMOOTH"
);
}
);
width = 1050;
}
);
unicode = 0074;
},
{
glyphname = u;
lastChange = "2018-11-23 12:58:14 +0000";
layers = (
{
layerId = "ADA7F6FF-5955-4EF3-8FA7-BADC10F8EE4C";
paths = (
{
closed = 1;
nodes = (
"942 -45 LINE SMOOTH",
"966 -45 OFFCURVE",
"982 -38 OFFCURVE",
"998 -23 CURVE SMOOTH",
"1013 -7 OFFCURVE",
"1020 9 OFFCURVE",
"1020 33 CURVE SMOOTH",
"1020 500 LINE SMOOTH",
"1020 525 OFFCURVE",
"1000 545 OFFCURVE",
"975 545 CURVE SMOOTH",
"950 545 OFFCURVE",
"930 525 OFFCURVE",
"930 500 CURVE SMOOTH",
"930 45 LINE",
"120 45 LINE",
"120 500 LINE SMOOTH",
"120 525 OFFCURVE",
"100 545 OFFCURVE",
"75 545 CURVE SMOOTH",
"50 545 OFFCURVE",
"30 525 OFFCURVE",
"30 500 CURVE SMOOTH",
"30 33 LINE SMOOTH",
"30 9 OFFCURVE",
"37 -7 OFFCURVE",
"53 -23 CURVE SMOOTH",
"68 -38 OFFCURVE",
"84 -45 OFFCURVE",
"108 -45 CURVE SMOOTH"
);
}
);
width = 1050;
}
);
unicode = 0075;
},
{
glyphname = v;
lastChange = "2018-11-23 12:58:25 +0000";
layers = (
{
layerId = "ADA7F6FF-5955-4EF3-8FA7-BADC10F8EE4C";
paths = (
{
closed = 1;
nodes = (
"525 -30 LINE SMOOTH",
"549 -30 OFFCURVE",
"565 -23 OFFCURVE",
"581 -5 CURVE SMOOTH",
"1008 470 LINE SMOOTH",
"1016 478 OFFCURVE",
"1020 488 OFFCURVE",
"1020 500 CURVE SMOOTH",
"1020 525 OFFCURVE",
"1000 545 OFFCURVE",
"975 545 CURVE SMOOTH",
"962 545 OFFCURVE",
"950 539 OFFCURVE",
"941 530 CURVE SMOOTH",
"525 67 LINE",
"109 530 LINE SMOOTH",
"100 539 OFFCURVE",
"88 545 OFFCURVE",
"75 545 CURVE SMOOTH",
"50 545 OFFCURVE",
"30 525 OFFCURVE",
"30 500 CURVE SMOOTH",
"30 488 OFFCURVE",
"34 478 OFFCURVE",
"42 470 CURVE SMOOTH",
"469 -5 LINE SMOOTH",
"485 -23 OFFCURVE",
"501 -30 OFFCURVE",
"525 -30 CURVE SMOOTH"
);
}
);
width = 1050;
}
);
unicode = 0076;
},
{
glyphname = w;
lastChange = "2018-11-23 12:58:34 +0000";
layers = (
{
layerId = "ADA7F6FF-5955-4EF3-8FA7-BADC10F8EE4C";
paths = (
{
closed = 1;
nodes = (
"780 -18 LINE SMOOTH",
"805 -17 OFFCURVE",
"821 -6 OFFCURVE",
"831 18 CURVE SMOOTH",
"1016 482 LINE SMOOTH",
"1019 488 OFFCURVE",
"1020 494 OFFCURVE",
"1020 500 CURVE SMOOTH",
"1020 525 OFFCURVE",
"1000 545 OFFCURVE",
"975 545 CURVE SMOOTH",
"956 545 OFFCURVE",
"939 533 OFFCURVE",
"933 516 CURVE SMOOTH",
"770 110 LINE",
"582 487 LINE SMOOTH",
"570 510 OFFCURVE",
"554 520 OFFCURVE",
"529 520 CURVE SMOOTH",
"521 520 LINE SMOOTH",
"496 520 OFFCURVE",
"480 510 OFFCURVE",
"468 487 CURVE SMOOTH",
"280 110 LINE",
"117 516 LINE SMOOTH",
"111 533 OFFCURVE",
"94 545 OFFCURVE",
"75 545 CURVE SMOOTH",
"50 545 OFFCURVE",
"30 525 OFFCURVE",
"30 500 CURVE SMOOTH",
"30 494 OFFCURVE",
"31 488 OFFCURVE",
"34 482 CURVE SMOOTH",
"219 18 LINE SMOOTH",
"229 -6 OFFCURVE",
"245 -17 OFFCURVE",
"270 -18 CURVE SMOOTH",
"278 -19 LINE SMOOTH",
"304 -20 OFFCURVE",
"320 -10 OFFCURVE",
"332 13 CURVE SMOOTH",
"525 399 LINE",
"718 13 LINE SMOOTH",
"730 -10 OFFCURVE",
"746 -20 OFFCURVE",
"772 -19 CURVE SMOOTH"
);
}
);
width = 1050;
}
);
unicode = 0077;
},
{
glyphname = x;
lastChange = "2018-11-23 12:58:43 +0000";
layers = (
{
layerId = "ADA7F6FF-5955-4EF3-8FA7-BADC10F8EE4C";
paths = (
{
closed = 1;
nodes = (
"83 -45 OFFCURVE",
"91 -43 OFFCURVE",
"98 -39 CURVE SMOOTH",
"525 199 LINE",
"952 -39 LINE SMOOTH",
"959 -43 OFFCURVE",
"967 -45 OFFCURVE",
"975 -45 CURVE SMOOTH",
"1000 -45 OFFCURVE",
"1020 -25 OFFCURVE",
"1020 0 CURVE SMOOTH",
"1020 17 OFFCURVE",
"1010 32 OFFCURVE",
"996 40 CURVE SMOOTH",
"618 250 LINE",
"996 460 LINE SMOOTH",
"1010 468 OFFCURVE",
"1020 483 OFFCURVE",
"1020 500 CURVE SMOOTH",
"1020 525 OFFCURVE",
"1000 545 OFFCURVE",
"975 545 CURVE SMOOTH",
"967 545 OFFCURVE",
"959 543 OFFCURVE",
"952 539 CURVE SMOOTH",
"525 301 LINE",
"98 539 LINE SMOOTH",
"91 543 OFFCURVE",
"83 545 OFFCURVE",
"75 545 CURVE SMOOTH",
"50 545 OFFCURVE",
"30 525 OFFCURVE",
"30 500 CURVE SMOOTH",
"30 483 OFFCURVE",
"40 468 OFFCURVE",
"54 460 CURVE SMOOTH",
"432 250 LINE",
"54 40 LINE SMOOTH",
"40 32 OFFCURVE",
"30 17 OFFCURVE",
"30 0 CURVE SMOOTH",
"30 -25 OFFCURVE",
"50 -45 OFFCURVE",
"75 -45 CURVE SMOOTH"
);
}
);
width = 1050;
}
);
unicode = 0078;
},
{
glyphname = y;
lastChange = "2018-11-23 12:58:58 +0000";
layers = (
{
layerId = "ADA7F6FF-5955-4EF3-8FA7-BADC10F8EE4C";
paths = (
{
closed = 1;
nodes = (
"550 -45 OFFCURVE",
"570 -25 OFFCURVE",
"570 0 CURVE SMOOTH",
"570 80 LINE",
"1005 466 LINE SMOOTH",
"1014 474 OFFCURVE",
"1020 487 OFFCURVE",
"1020 500 CURVE SMOOTH",
"1020 525 OFFCURVE",
"1000 545 OFFCURVE",
"975 545 CURVE SMOOTH",
"963 545 OFFCURVE",
"953 541 OFFCURVE",
"945 534 CURVE SMOOTH",
"525 160 LINE",
"105 534 LINE SMOOTH",
"97 541 OFFCURVE",
"87 545 OFFCURVE",
"75 545 CURVE SMOOTH",
"50 545 OFFCURVE",
"30 525 OFFCURVE",
"30 500 CURVE SMOOTH",
"30 487 OFFCURVE",
"36 474 OFFCURVE",
"45 466 CURVE SMOOTH",
"480 80 LINE",
"480 0 LINE SMOOTH",
"480 -25 OFFCURVE",
"500 -45 OFFCURVE",
"525 -45 CURVE SMOOTH"
);
}
);
width = 1050;
}
);
unicode = 0079;
},
{
glyphname = z;
lastChange = "2018-11-23 12:59:07 +0000";
layers = (
{
layerId = "ADA7F6FF-5955-4EF3-8FA7-BADC10F8EE4C";
paths = (
{
closed = 1;
nodes = (
"975 -45 LINE SMOOTH",
"1000 -45 OFFCURVE",
"1020 -25 OFFCURVE",
"1020 0 CURVE SMOOTH",
"1020 25 OFFCURVE",
"1000 45 OFFCURVE",
"975 45 CURVE SMOOTH",
"249 45 LINE",
"962 441 LINE SMOOTH",
"985 454 OFFCURVE",
"994 473 OFFCURVE",
"987 499 CURVE SMOOTH",
"985 506 LINE SMOOTH",
"978 532 OFFCURVE",
"962 545 OFFCURVE",
"935 545 CURVE SMOOTH",
"75 545 LINE SMOOTH",
"50 545 OFFCURVE",
"30 525 OFFCURVE",
"30 500 CURVE SMOOTH",
"30 475 OFFCURVE",
"50 455 OFFCURVE",
"75 455 CURVE SMOOTH",
"801 455 LINE",
"88 59 LINE SMOOTH",
"65 46 OFFCURVE",
"56 27 OFFCURVE",
"63 1 CURVE SMOOTH",
"65 -6 LINE SMOOTH",
"72 -32 OFFCURVE",
"88 -45 OFFCURVE",
"115 -45 CURVE SMOOTH"
);
}
);
width = 1050;
}
);
unicode = 007A;
},
{
glyphname = a.alt1;
lastChange = "2018-11-23 13:07:52 +0000";
layers = (
{
layerId = "ADA7F6FF-5955-4EF3-8FA7-BADC10F8EE4C";
paths = (
{
closed = 1;
nodes = (
"100 -45 OFFCURVE",
"120 -25 OFFCURVE",
"120 0 CURVE SMOOTH",
"120 205 LINE",
"930 205 LINE",
"930 0 LINE SMOOTH",
"930 -25 OFFCURVE",
"950 -45 OFFCURVE",
"975 -45 CURVE SMOOTH",
"1000 -45 OFFCURVE",
"1020 -25 OFFCURVE",
"1020 0 CURVE SMOOTH",
"1020 467 LINE SMOOTH",
"1020 491 OFFCURVE",
"1013 507 OFFCURVE",
"998 523 CURVE SMOOTH",
"982 538 OFFCURVE",
"966 545 OFFCURVE",
"942 545 CURVE SMOOTH",
"108 545 LINE SMOOTH",
"84 545 OFFCURVE",
"68 538 OFFCURVE",
"53 523 CURVE SMOOTH",
"37 507 OFFCURVE",
"30 491 OFFCURVE",
"30 467 CURVE SMOOTH",
"30 0 LINE SMOOTH",
"30 -25 OFFCURVE",
"50 -45 OFFCURVE",
"75 -45 CURVE SMOOTH"
);
},
{
closed = 1;
nodes = (
"120 455 LINE",
"930 455 LINE",
"930 295 LINE",
"120 295 LINE"
);
}
);
width = 1050;
}
);
},
{
glyphname = w.alt1;
lastChange = "2018-11-23 13:08:05 +0000";
layers = (
{
layerId = "ADA7F6FF-5955-4EF3-8FA7-BADC10F8EE4C";
paths = (
{
closed = 1;
nodes = (
"987 -16 LINE SMOOTH",
"1010 -5 OFFCURVE",
"1020 11 OFFCURVE",
"1020 37 CURVE SMOOTH",
"1020 500 LINE SMOOTH",
"1020 525 OFFCURVE",
"1000 545 OFFCURVE",
"975 545 CURVE SMOOTH",
"950 545 OFFCURVE",
"930 525 OFFCURVE",
"930 500 CURVE SMOOTH",
"930 92 LINE",
"577 366 LINE SMOOTH",
"560 380 OFFCURVE",
"545 386 OFFCURVE",
"525 386 CURVE SMOOTH",
"505 386 OFFCURVE",
"490 380 OFFCURVE",
"473 366 CURVE SMOOTH",
"120 92 LINE",
"120 500 LINE SMOOTH",
"120 525 OFFCURVE",
"100 545 OFFCURVE",
"75 545 CURVE SMOOTH",
"50 545 OFFCURVE",
"30 525 OFFCURVE",
"30 500 CURVE SMOOTH",
"30 37 LINE SMOOTH",
"30 11 OFFCURVE",
"40 -5 OFFCURVE",
"63 -16 CURVE SMOOTH",
"70 -19 LINE SMOOTH",
"92 -31 OFFCURVE",
"112 -29 OFFCURVE",
"132 -13 CURVE SMOOTH",
"525 293 LINE",
"918 -13 LINE SMOOTH",
"938 -29 OFFCURVE",
"958 -31 OFFCURVE",
"980 -19 CURVE SMOOTH"
);
}
);
width = 1050;
}
);
},
{
glyphname = zero;
lastChange = "2018-11-23 09:37:40 +0000";
layers = (
{
layerId = "ADA7F6FF-5955-4EF3-8FA7-BADC10F8EE4C";
paths = (
{
closed = 1;
nodes = (
"942 -45 LINE SMOOTH",
"966 -45 OFFCURVE",
"982 -38 OFFCURVE",
"998 -23 CURVE SMOOTH",
"1013 -7 OFFCURVE",
"1020 9 OFFCURVE",
"1020 33 CURVE SMOOTH",
"1020 467 LINE SMOOTH",
"1020 491 OFFCURVE",
"1013 507 OFFCURVE",
"998 523 CURVE SMOOTH",
"982 538 OFFCURVE",
"966 545 OFFCURVE",
"942 545 CURVE SMOOTH",
"108 545 LINE SMOOTH",
"84 545 OFFCURVE",
"68 538 OFFCURVE",
"53 523 CURVE SMOOTH",
"37 507 OFFCURVE",
"30 491 OFFCURVE",
"30 467 CURVE SMOOTH",
"30 33 LINE SMOOTH",
"30 9 OFFCURVE",
"37 -7 OFFCURVE",
"53 -23 CURVE SMOOTH",
"68 -38 OFFCURVE",
"84 -45 OFFCURVE",
"108 -45 CURVE SMOOTH"
);
},
{
closed = 1;
nodes = (
"120 455 LINE",
"802 455 LINE",
"120 77 LINE"
);
},
{
closed = 1;
nodes = (
"930 423 LINE",
"930 45 LINE",
"248 45 LINE"
);
}
);
width = 1050;
},
{
associatedMasterId = "ADA7F6FF-5955-4EF3-8FA7-BADC10F8EE4C";
layerId = "7480C5BB-4728-486A-A93E-3754290A7739";
name = path;
paths = (
{
closed = 1;
nodes = (
"900 500 LINE",
"900 0 LINE",
"0 0 LINE",
"0 500 LINE"
);
},
{
closed = 0;
nodes = (
"1 1 LINE",
"899 499 LINE"
);
}
);
width = 900;
}
);
unicode = 0030;
},
{
glyphname = one;
lastChange = "2018-11-21 16:23:11 +0000";
layers = (
{
layerId = "ADA7F6FF-5955-4EF3-8FA7-BADC10F8EE4C";
paths = (
{
closed = 1;
nodes = (
"975 -45 LINE SMOOTH",
"1000 -45 OFFCURVE",
"1020 -25 OFFCURVE",
"1020 0 CURVE SMOOTH",
"1020 25 OFFCURVE",
"1000 45 OFFCURVE",
"975 45 CURVE SMOOTH",
"570 45 LINE",
"570 467 LINE SMOOTH",
"570 491 OFFCURVE",
"563 507 OFFCURVE",
"548 523 CURVE SMOOTH",
"532 538 OFFCURVE",
"516 545 OFFCURVE",
"492 545 CURVE SMOOTH",
"75 545 LINE SMOOTH",
"50 545 OFFCURVE",
"30 525 OFFCURVE",
"30 500 CURVE SMOOTH",
"30 475 OFFCURVE",
"50 455 OFFCURVE",
"75 455 CURVE SMOOTH",
"480 455 LINE",
"480 45 LINE",
"75 45 LINE SMOOTH",
"50 45 OFFCURVE",
"30 25 OFFCURVE",
"30 0 CURVE SMOOTH",
"30 -25 OFFCURVE",
"50 -45 OFFCURVE",
"75 -45 CURVE SMOOTH"
);
}
);
width = 1050;
},
{
associatedMasterId = "ADA7F6FF-5955-4EF3-8FA7-BADC10F8EE4C";
layerId = "0C02CCB5-A14C-44DD-9DCF-477CB513D1FE";
name = path;
paths = (
{
closed = 0;
nodes = (
"950 0 LINE",
"50 0 LINE"
);
},
{
closed = 0;
nodes = (
"50 500 LINE",
"500 500 LINE",
"500 0 LINE"
);
}
);
width = 980;
}
);
unicode = 0031;
},
{
glyphname = two;
lastChange = "2018-11-21 16:25:20 +0000";
layers = (
{
layerId = "ADA7F6FF-5955-4EF3-8FA7-BADC10F8EE4C";
paths = (
{
closed = 1;
nodes = (
"975 -45 LINE SMOOTH",
"1000 -45 OFFCURVE",
"1020 -25 OFFCURVE",
"1020 0 CURVE SMOOTH",
"1020 25 OFFCURVE",
"1000 45 OFFCURVE",
"975 45 CURVE SMOOTH",
"120 45 LINE",
"120 205 LINE",
"942 205 LINE SMOOTH",
"966 205 OFFCURVE",
"982 212 OFFCURVE",
"998 228 CURVE SMOOTH",
"1013 243 OFFCURVE",
"1020 259 OFFCURVE",
"1020 283 CURVE SMOOTH",
"1020 467 LINE SMOOTH",
"1020 491 OFFCURVE",
"1013 507 OFFCURVE",
"998 523 CURVE SMOOTH",
"982 538 OFFCURVE",
"966 545 OFFCURVE",
"942 545 CURVE SMOOTH",
"75 545 LINE SMOOTH",
"50 545 OFFCURVE",
"30 525 OFFCURVE",
"30 500 CURVE SMOOTH",
"30 475 OFFCURVE",
"50 455 OFFCURVE",
"75 455 CURVE SMOOTH",
"930 455 LINE",
"930 295 LINE",
"108 295 LINE SMOOTH",
"84 295 OFFCURVE",
"68 288 OFFCURVE",
"53 273 CURVE SMOOTH",
"37 257 OFFCURVE",
"30 241 OFFCURVE",
"30 217 CURVE SMOOTH",
"30 33 LINE SMOOTH",
"30 9 OFFCURVE",
"37 -7 OFFCURVE",
"53 -23 CURVE SMOOTH",
"68 -38 OFFCURVE",
"84 -45 OFFCURVE",
"108 -45 CURVE SMOOTH"
);
}
);
width = 1050;
},
{
associatedMasterId = "ADA7F6FF-5955-4EF3-8FA7-BADC10F8EE4C";
layerId = "A54A7C22-C022-42EA-A1E0-70340B2D46A4";
name = path;
paths = (
{
closed = 0;
nodes = (
"50 500 LINE",
"950 500 LINE",
"950 250 LINE",
"50 250 LINE",
"50 0 LINE",
"950 0 LINE"
);
}
);
width = 980;
}
);
unicode = 0032;
},
{
glyphname = three;
lastChange = "2018-11-21 16:11:18 +0000";
layers = (
{
layerId = "ADA7F6FF-5955-4EF3-8FA7-BADC10F8EE4C";
paths = (
{
closed = 1;
nodes = (
"942 -45 LINE SMOOTH",
"966 -45 OFFCURVE",
"982 -38 OFFCURVE",
"998 -23 CURVE SMOOTH",
"1013 -7 OFFCURVE",
"1020 9 OFFCURVE",
"1020 33 CURVE SMOOTH",
"1020 467 LINE SMOOTH",
"1020 491 OFFCURVE",
"1013 507 OFFCURVE",
"998 523 CURVE SMOOTH",
"982 538 OFFCURVE",
"966 545 OFFCURVE",
"942 545 CURVE SMOOTH",
"75 545 LINE SMOOTH",
"50 545 OFFCURVE",
"30 525 OFFCURVE",
"30 500 CURVE SMOOTH",
"30 475 OFFCURVE",
"50 455 OFFCURVE",
"75 455 CURVE SMOOTH",
"930 455 LINE",
"930 295 LINE",
"75 295 LINE SMOOTH",
"50 295 OFFCURVE",
"30 275 OFFCURVE",
"30 250 CURVE SMOOTH",
"30 225 OFFCURVE",
"50 205 OFFCURVE",
"75 205 CURVE SMOOTH",
"930 205 LINE",
"930 45 LINE",
"75 45 LINE SMOOTH",
"50 45 OFFCURVE",
"30 25 OFFCURVE",
"30 0 CURVE SMOOTH",
"30 -25 OFFCURVE",
"50 -45 OFFCURVE",
"75 -45 CURVE SMOOTH"
);
}
);
width = 1050;
},
{
associatedMasterId = "ADA7F6FF-5955-4EF3-8FA7-BADC10F8EE4C";
layerId = "C79E28BD-99D4-4D6D-BA20-22E3EAA9A517";
name = path;
paths = (
{
closed = 0;
nodes = (
"50 0 LINE",
"950 0 LINE",
"950 500 LINE",
"50 500 LINE"
);
},
{
closed = 0;
nodes = (
"950 250 LINE",
"50 250 LINE"
);
}
);
width = 1000;
}
);
unicode = 0033;
},
{
glyphname = four;
lastChange = "2018-11-21 16:12:16 +0000";
layers = (
{
layerId = "ADA7F6FF-5955-4EF3-8FA7-BADC10F8EE4C";
paths = (
{
closed = 1;
nodes = (
"1000 -45 OFFCURVE",
"1020 -25 OFFCURVE",
"1020 0 CURVE SMOOTH",
"1020 500 LINE SMOOTH",
"1020 525 OFFCURVE",
"1000 545 OFFCURVE",
"975 545 CURVE SMOOTH",
"950 545 OFFCURVE",
"930 525 OFFCURVE",
"930 500 CURVE SMOOTH",
"930 295 LINE",
"120 295 LINE",
"120 500 LINE SMOOTH",
"120 525 OFFCURVE",
"100 545 OFFCURVE",
"75 545 CURVE SMOOTH",
"50 545 OFFCURVE",
"30 525 OFFCURVE",
"30 500 CURVE SMOOTH",
"30 283 LINE SMOOTH",
"30 259 OFFCURVE",
"37 243 OFFCURVE",
"53 228 CURVE SMOOTH",
"68 212 OFFCURVE",
"84 205 OFFCURVE",
"108 205 CURVE SMOOTH",
"930 205 LINE",
"930 0 LINE SMOOTH",
"930 -25 OFFCURVE",
"950 -45 OFFCURVE",
"975 -45 CURVE SMOOTH"
);
}
);
width = 1050;
},
{
associatedMasterId = "ADA7F6FF-5955-4EF3-8FA7-BADC10F8EE4C";
layerId = "BE732878-BC44-4269-8280-2E6C7F67816D";
name = path;
paths = (
{
closed = 0;
nodes = (
"950 250 LINE",
"50 250 LINE",
"50 500 LINE"
);
},
{
closed = 0;
nodes = (
"950 0 LINE",
"950 500 LINE"
);
}
);
width = 1000;
}
);
unicode = 0034;
},
{
glyphname = five;
lastChange = "2018-11-21 16:12:59 +0000";
layers = (
{
layerId = "ADA7F6FF-5955-4EF3-8FA7-BADC10F8EE4C";
paths = (
{
closed = 1;
nodes = (
"942 -45 LINE SMOOTH",
"966 -45 OFFCURVE",
"982 -38 OFFCURVE",
"998 -23 CURVE SMOOTH",
"1013 -7 OFFCURVE",
"1020 9 OFFCURVE",
"1020 33 CURVE SMOOTH",
"1020 217 LINE SMOOTH",
"1020 241 OFFCURVE",
"1013 257 OFFCURVE",
"998 273 CURVE SMOOTH",
"982 288 OFFCURVE",
"966 295 OFFCURVE",
"942 295 CURVE SMOOTH",
"120 295 LINE",
"120 455 LINE",
"975 455 LINE SMOOTH",
"1000 455 OFFCURVE",
"1020 475 OFFCURVE",
"1020 500 CURVE SMOOTH",
"1020 525 OFFCURVE",
"1000 545 OFFCURVE",
"975 545 CURVE SMOOTH",
"108 545 LINE SMOOTH",
"84 545 OFFCURVE",
"68 538 OFFCURVE",
"53 523 CURVE SMOOTH",
"37 507 OFFCURVE",
"30 491 OFFCURVE",
"30 467 CURVE SMOOTH",
"30 283 LINE SMOOTH",
"30 259 OFFCURVE",
"37 243 OFFCURVE",
"53 228 CURVE SMOOTH",
"68 212 OFFCURVE",
"84 205 OFFCURVE",
"108 205 CURVE SMOOTH",
"930 205 LINE",
"930 45 LINE",
"75 45 LINE SMOOTH",
"50 45 OFFCURVE",
"30 25 OFFCURVE",
"30 0 CURVE SMOOTH",
"30 -25 OFFCURVE",
"50 -45 OFFCURVE",
"75 -45 CURVE SMOOTH"
);
}
);
width = 1050;
},
{
associatedMasterId = "ADA7F6FF-5955-4EF3-8FA7-BADC10F8EE4C";
layerId = "B70655FA-A5B5-42C2-A027-4F7C7A53601C";
name = path;
paths = (
{
closed = 0;
nodes = (
"950 500 LINE",
"50 500 LINE",
"50 250 LINE",
"950 250 LINE",
"950 0 LINE",
"50 0 LINE"
);
}
);
width = 1000;
}
);
unicode = 0035;
},
{
glyphname = six;
lastChange = "2018-11-21 16:13:49 +0000";
layers = (
{
layerId = "ADA7F6FF-5955-4EF3-8FA7-BADC10F8EE4C";
paths = (
{
closed = 1;
nodes = (
"942 -45 LINE SMOOTH",
"966 -45 OFFCURVE",
"982 -38 OFFCURVE",
"998 -23 CURVE SMOOTH",
"1013 -7 OFFCURVE",
"1020 9 OFFCURVE",
"1020 33 CURVE SMOOTH",
"1020 217 LINE SMOOTH",
"1020 241 OFFCURVE",
"1013 257 OFFCURVE",
"998 273 CURVE SMOOTH",
"982 288 OFFCURVE",
"966 295 OFFCURVE",
"942 295 CURVE SMOOTH",
"120 295 LINE",
"120 455 LINE",
"975 455 LINE SMOOTH",
"1000 455 OFFCURVE",
"1020 475 OFFCURVE",
"1020 500 CURVE SMOOTH",
"1020 525 OFFCURVE",
"1000 545 OFFCURVE",
"975 545 CURVE SMOOTH",
"108 545 LINE SMOOTH",
"84 545 OFFCURVE",
"68 538 OFFCURVE",
"53 523 CURVE SMOOTH",
"37 507 OFFCURVE",
"30 491 OFFCURVE",
"30 467 CURVE SMOOTH",
"30 33 LINE SMOOTH",
"30 9 OFFCURVE",
"37 -7 OFFCURVE",
"53 -23 CURVE SMOOTH",
"68 -38 OFFCURVE",
"84 -45 OFFCURVE",
"108 -45 CURVE SMOOTH"
);
},
{
closed = 1;
nodes = (
"120 205 LINE",
"930 205 LINE",
"930 45 LINE",
"120 45 LINE"
);
}
);
width = 1050;
},
{
associatedMasterId = "ADA7F6FF-5955-4EF3-8FA7-BADC10F8EE4C";
layerId = "2DB9C964-297F-4314-AFBB-0A2DF2A57601";
name = path;
paths = (
{
closed = 0;
nodes = (
"930 500 LINE",
"30 500 LINE",
"30 0 LINE",
"930 0 LINE",
"930 250 LINE",
"30 250 LINE"
);
}
);
width = 960;
}
);
unicode = 0036;
},
{
glyphname = seven;
lastChange = "2018-11-21 16:14:48 +0000";
layers = (
{
associatedMasterId = "ADA7F6FF-5955-4EF3-8FA7-BADC10F8EE4C";
layerId = "CF108064-E8B7-404C-9538-D301E72EFDE7";
name = path;
paths = (
{
closed = 0;
nodes = (
"950 0 LINE",
"950 500 LINE",
"50 500 LINE"
);
}
);
width = 1000;
},
{
layerId = "ADA7F6FF-5955-4EF3-8FA7-BADC10F8EE4C";
paths = (
{
closed = 1;
nodes = (
"1000 -45 OFFCURVE",
"1020 -25 OFFCURVE",
"1020 0 CURVE SMOOTH",
"1020 467 LINE SMOOTH",
"1020 491 OFFCURVE",
"1013 507 OFFCURVE",
"998 523 CURVE SMOOTH",
"982 538 OFFCURVE",
"966 545 OFFCURVE",
"942 545 CURVE SMOOTH",
"75 545 LINE SMOOTH",
"50 545 OFFCURVE",
"30 525 OFFCURVE",
"30 500 CURVE SMOOTH",
"30 475 OFFCURVE",
"50 455 OFFCURVE",
"75 455 CURVE SMOOTH",
"930 455 LINE",
"930 0 LINE SMOOTH",
"930 -25 OFFCURVE",
"950 -45 OFFCURVE",
"975 -45 CURVE SMOOTH"
);
}
);
width = 1050;
}
);
unicode = 0037;
},
{
glyphname = eight;
lastChange = "2018-11-21 16:20:33 +0000";
layers = (
{
layerId = "ADA7F6FF-5955-4EF3-8FA7-BADC10F8EE4C";
paths = (
{
closed = 1;
nodes = (
"942 -45 LINE SMOOTH",
"966 -45 OFFCURVE",
"982 -38 OFFCURVE",
"998 -23 CURVE SMOOTH",
"1013 -7 OFFCURVE",
"1020 9 OFFCURVE",
"1020 33 CURVE SMOOTH",
"1020 467 LINE SMOOTH",
"1020 491 OFFCURVE",
"1013 507 OFFCURVE",
"998 523 CURVE SMOOTH",
"982 538 OFFCURVE",
"966 545 OFFCURVE",
"942 545 CURVE SMOOTH",
"108 545 LINE SMOOTH",
"84 545 OFFCURVE",
"68 538 OFFCURVE",
"53 523 CURVE SMOOTH",
"37 507 OFFCURVE",
"30 491 OFFCURVE",
"30 467 CURVE SMOOTH",
"30 33 LINE SMOOTH",
"30 9 OFFCURVE",
"37 -7 OFFCURVE",
"53 -23 CURVE SMOOTH",
"68 -38 OFFCURVE",
"84 -45 OFFCURVE",
"108 -45 CURVE SMOOTH"
);
},
{
closed = 1;
nodes = (
"120 205 LINE",
"930 205 LINE",
"930 45 LINE",
"120 45 LINE"
);
},
{
closed = 1;
nodes = (
"120 455 LINE",
"930 455 LINE",
"930 295 LINE",
"120 295 LINE"
);
}
);
width = 1050;
},
{
associatedMasterId = "ADA7F6FF-5955-4EF3-8FA7-BADC10F8EE4C";
layerId = "FB4D025F-ED2A-456C-A909-086A51F494B0";
name = path;
paths = (
{
closed = 1;
nodes = (
"950 500 LINE",
"950 0 LINE",
"50 0 LINE",
"50 500 LINE"
);
},
{
closed = 0;
nodes = (
"50 250 LINE",
"950 250 LINE"
);
}
);
width = 1000;
}
);
unicode = 0038;
},
{
glyphname = nine;
lastChange = "2018-11-21 16:21:15 +0000";
layers = (
{
layerId = "ADA7F6FF-5955-4EF3-8FA7-BADC10F8EE4C";
paths = (
{
closed = 1;
nodes = (
"1000 -45 OFFCURVE",
"1020 -25 OFFCURVE",
"1020 0 CURVE SMOOTH",
"1020 467 LINE SMOOTH",
"1020 491 OFFCURVE",
"1013 507 OFFCURVE",
"998 523 CURVE SMOOTH",
"982 538 OFFCURVE",
"966 545 OFFCURVE",
"942 545 CURVE SMOOTH",
"108 545 LINE SMOOTH",
"84 545 OFFCURVE",
"68 538 OFFCURVE",
"53 523 CURVE SMOOTH",
"37 507 OFFCURVE",
"30 491 OFFCURVE",
"30 467 CURVE SMOOTH",
"30 283 LINE SMOOTH",
"30 259 OFFCURVE",
"37 243 OFFCURVE",
"53 228 CURVE SMOOTH",
"68 212 OFFCURVE",
"84 205 OFFCURVE",
"108 205 CURVE SMOOTH",
"930 205 LINE",
"930 0 LINE SMOOTH",
"930 -25 OFFCURVE",
"950 -45 OFFCURVE",
"975 -45 CURVE SMOOTH"
);
},
{
closed = 1;
nodes = (
"120 455 LINE",
"930 455 LINE",
"930 295 LINE",
"120 295 LINE"
);
}
);
width = 1050;
},
{
associatedMasterId = "ADA7F6FF-5955-4EF3-8FA7-BADC10F8EE4C";
layerId = "DE3B5C19-112A-431F-BBE8-3C1AB02D511E";
name = path;
paths = (
{
closed = 0;
nodes = (
"930 0 LINE",
"930 500 LINE",
"30 500 LINE",
"30 250 LINE",
"930 250 LINE"
);
}
);
width = 960;
}
);
unicode = 0039;
},
{
glyphname = seven.alt1;
lastChange = "2018-11-22 11:22:13 +0000";
layers = (
{
layerId = "ADA7F6FF-5955-4EF3-8FA7-BADC10F8EE4C";
paths = (
{
closed = 1;
nodes = (
"346 -45 OFFCURVE",
"366 -25 OFFCURVE",
"366 0 CURVE SMOOTH",
"366 171 LINE",
"991 442 LINE SMOOTH",
"1016 453 OFFCURVE",
"1024 472 OFFCURVE",
"1019 499 CURVE SMOOTH",
"1018 505 LINE SMOOTH",
"1013 532 OFFCURVE",
"996 545 OFFCURVE",
"968 545 CURVE SMOOTH",
"75 545 LINE SMOOTH",
"50 545 OFFCURVE",
"30 525 OFFCURVE",
"30 500 CURVE SMOOTH",
"30 475 OFFCURVE",
"50 455 OFFCURVE",
"75 455 CURVE SMOOTH",
"804 455 LINE",
"330 254 LINE SMOOTH",
"310 245 OFFCURVE",
"299 235 OFFCURVE",
"289 220 CURVE SMOOTH",
"280 206 OFFCURVE",
"276 192 OFFCURVE",
"276 170 CURVE SMOOTH",
"276 0 LINE SMOOTH",
"276 -25 OFFCURVE",
"296 -45 OFFCURVE",
"321 -45 CURVE SMOOTH"
);
}
);
width = 1050;
},
{
associatedMasterId = "ADA7F6FF-5955-4EF3-8FA7-BADC10F8EE4C";
layerId = "83BFDF7F-0AFB-4074-AD03-2BC6C0C5F9B0";
name = path;
paths = (
{
closed = 0;
nodes = (
"300 0 LINE",
"300 200 LINE",
"950 500 LINE",
"50 500 LINE"
);
}
);
width = 600;
}
);
},
{
glyphname = nine.alt1;
lastChange = "2018-11-21 16:21:58 +0000";
layers = (
{
layerId = "ADA7F6FF-5955-4EF3-8FA7-BADC10F8EE4C";
paths = (
{
closed = 1;
nodes = (
"942 -45 LINE SMOOTH",
"966 -45 OFFCURVE",
"982 -38 OFFCURVE",
"998 -23 CURVE SMOOTH",
"1013 -7 OFFCURVE",
"1020 9 OFFCURVE",
"1020 33 CURVE SMOOTH",
"1020 467 LINE SMOOTH",
"1020 491 OFFCURVE",
"1013 507 OFFCURVE",
"998 523 CURVE SMOOTH",
"982 538 OFFCURVE",
"966 545 OFFCURVE",
"942 545 CURVE SMOOTH",
"108 545 LINE SMOOTH",
"84 545 OFFCURVE",
"68 538 OFFCURVE",
"53 523 CURVE SMOOTH",
"37 507 OFFCURVE",
"30 491 OFFCURVE",
"30 467 CURVE SMOOTH",
"30 283 LINE SMOOTH",
"30 259 OFFCURVE",
"37 243 OFFCURVE",
"53 228 CURVE SMOOTH",
"68 212 OFFCURVE",
"84 205 OFFCURVE",
"108 205 CURVE SMOOTH",
"930 205 LINE",
"930 45 LINE",
"75 45 LINE SMOOTH",
"50 45 OFFCURVE",
"30 25 OFFCURVE",
"30 0 CURVE SMOOTH",
"30 -25 OFFCURVE",
"50 -45 OFFCURVE",
"75 -45 CURVE SMOOTH"
);
},
{
closed = 1;
nodes = (
"120 455 LINE",
"930 455 LINE",
"930 295 LINE",
"120 295 LINE"
);
}
);
width = 1050;
},
{
associatedMasterId = "ADA7F6FF-5955-4EF3-8FA7-BADC10F8EE4C";
layerId = "5C7D2E79-3006-48EB-9E4A-9C7A22790322";
name = path;
paths = (
{
closed = 0;
nodes = (
"30 0 LINE",
"930 0 LINE",
"930 500 LINE",
"30 500 LINE",
"30 250 LINE",
"930 250 LINE"
);
}
);
width = 960;
}
);
},
{
glyphname = seven.alt2;
lastChange = "2018-11-24 15:41:44 +0000";
layers = (
{
associatedMasterId = "ADA7F6FF-5955-4EF3-8FA7-BADC10F8EE4C";
layerId = "E76CB519-347C-4CD5-A62E-E69F1D82C4F4";
name = path;
paths = (
{
closed = 1;
nodes = (
"58.214 -45 OFFCURVE",
"65.913 -42.799 OFFCURVE",
"72.542 -38.955 CURVE SMOOTH",
"936.955 441.275 LINE SMOOTH",
"960.469 454.338 OFFCURVE",
"968.587 473.271 OFFCURVE",
"961.84 499.31 CURVE SMOOTH",
"960.014 506.353 LINE SMOOTH",
"953.267 532.392 OFFCURVE",
"936.976 545 OFFCURVE",
"910.077 545 CURVE SMOOTH",
"50 545 LINE SMOOTH",
"25.147 545 OFFCURVE",
"5 524.853 OFFCURVE",
"5 500 CURVE SMOOTH",
"5 475.147 OFFCURVE",
"25.147 455 OFFCURVE",
"50 455 CURVE SMOOTH",
"776.339 455 LINE",
"28.908 39.76 LINE SMOOTH",
"14.685 32.2 OFFCURVE",
"5 17.231 OFFCURVE",
"5 0 CURVE SMOOTH",
"5 -24.853 OFFCURVE",
"25.147 -45 OFFCURVE",
"50 -45 CURVE SMOOTH"
);
}
);
width = 600;
},
{
associatedMasterId = "ADA7F6FF-5955-4EF3-8FA7-BADC10F8EE4C";
layerId = "D6D5C93D-FE7C-4F89-9D4D-D915E2FC9C15";
name = "Nov 21 18, 21:11";
paths = (
{
closed = 1;
nodes = (
"58.214 -45 OFFCURVE",
"65.913 -42.799 OFFCURVE",
"72.542 -38.955 CURVE SMOOTH",
"936.955 441.275 LINE SMOOTH",
"960.469 454.338 OFFCURVE",
"968.587 473.271 OFFCURVE",
"961.84 499.31 CURVE SMOOTH",
"960.014 506.353 LINE SMOOTH",
"953.267 532.392 OFFCURVE",
"936.976 545 OFFCURVE",
"910.077 545 CURVE SMOOTH",
"50 545 LINE SMOOTH",
"25.147 545 OFFCURVE",
"5 524.853 OFFCURVE",
"5 500 CURVE SMOOTH",
"5 475.147 OFFCURVE",
"25.147 455 OFFCURVE",
"50 455 CURVE SMOOTH",
"776.339 455 LINE",
"28.908 39.76 LINE SMOOTH",
"14.685 32.2 OFFCURVE",
"5 17.231 OFFCURVE",
"5 0 CURVE SMOOTH",
"5 -24.853 OFFCURVE",
"25.147 -45 OFFCURVE",
"50 -45 CURVE SMOOTH"
);
}
);
width = 600;
},
{
layerId = "ADA7F6FF-5955-4EF3-8FA7-BADC10F8EE4C";
paths = (
{
closed = 1;
nodes = (
"83 -45 OFFCURVE",
"91 -43 OFFCURVE",
"98 -39 CURVE SMOOTH",
"537 205 LINE",
"975 205 LINE SMOOTH",
"1000 205 OFFCURVE",
"1020 225 OFFCURVE",
"1020 250 CURVE SMOOTH",
"1020 275 OFFCURVE",
"1000 295 OFFCURVE",
"975 295 CURVE SMOOTH",
"699 295 LINE",
"962 441 LINE SMOOTH",
"985 454 OFFCURVE",
"994 473 OFFCURVE",
"987 499 CURVE SMOOTH",
"985 506 LINE SMOOTH",
"978 532 OFFCURVE",
"962 545 OFFCURVE",
"935 545 CURVE SMOOTH",
"75 545 LINE SMOOTH",
"50 545 OFFCURVE",
"30 525 OFFCURVE",
"30 500 CURVE SMOOTH",
"30 475 OFFCURVE",
"50 455 OFFCURVE",
"75 455 CURVE SMOOTH",
"801 455 LINE",
"513 295 LINE",
"75 295 LINE SMOOTH",
"50 295 OFFCURVE",
"30 275 OFFCURVE",
"30 250 CURVE SMOOTH",
"30 225 OFFCURVE",
"50 205 OFFCURVE",
"75 205 CURVE SMOOTH",
"351 205 LINE",
"54 40 LINE SMOOTH",
"40 32 OFFCURVE",
"30 17 OFFCURVE",
"30 0 CURVE SMOOTH",
"30 -25 OFFCURVE",
"50 -45 OFFCURVE",
"75 -45 CURVE SMOOTH"
);
}
);
width = 1050;
}
);
},
{
glyphname = fraction;
lastChange = "2018-11-24 15:41:40 +0000";
layers = (
{
layerId = "ADA7F6FF-5955-4EF3-8FA7-BADC10F8EE4C";
paths = (
{
closed = 1;
nodes = (
"339 -45 OFFCURVE",
"352 -38 OFFCURVE",
"360 -28 CURVE SMOOTH",
"760 472 LINE SMOOTH",
"766 479 OFFCURVE",
"770 489 OFFCURVE",
"770 500 CURVE SMOOTH",
"770 525 OFFCURVE",
"750 545 OFFCURVE",
"725 545 CURVE SMOOTH",
"711 545 OFFCURVE",
"698 538 OFFCURVE",
"690 528 CURVE SMOOTH",
"290 28 LINE SMOOTH",
"284 21 OFFCURVE",
"280 11 OFFCURVE",
"280 0 CURVE SMOOTH",
"280 -25 OFFCURVE",
"300 -45 OFFCURVE",
"325 -45 CURVE SMOOTH"
);
}
);
width = 1050;
},
{
associatedMasterId = "ADA7F6FF-5955-4EF3-8FA7-BADC10F8EE4C";
layerId = "00BD0CBD-498E-4066-A9EF-A5802CEFA9E8";
name = path;
paths = (
{
closed = 0;
nodes = (
"0 0 LINE",
"400 500 LINE"
);
}
);
width = 900;
}
);
unicode = 2044;
},
{
glyphname = periodcentered;
lastChange = "2018-11-24 15:40:45 +0000";
layers = (
{
layerId = "ADA7F6FF-5955-4EF3-8FA7-BADC10F8EE4C";
paths = (
{
closed = 1;
nodes = (
"650 320 OFFCURVE",
"594 375 OFFCURVE",
"525 375 CURVE SMOOTH",
"455 375 OFFCURVE",
"400 320 OFFCURVE",
"400 250 CURVE SMOOTH",
"400 181 OFFCURVE",
"455 125 OFFCURVE",
"525 125 CURVE SMOOTH",
"594 125 OFFCURVE",
"650 181 OFFCURVE",
"650 250 CURVE SMOOTH"
);
}
);
width = 1050;
}
);
unicode = 00B7;
},
{
glyphname = bullet;
lastChange = "2018-11-24 15:41:10 +0000";
layers = (
{
layerId = "ADA7F6FF-5955-4EF3-8FA7-BADC10F8EE4C";
paths = (
{
closed = 1;
nodes = (
"725 361 OFFCURVE",
"636 450 OFFCURVE",
"525 450 CURVE SMOOTH",
"414 450 OFFCURVE",
"325 361 OFFCURVE",
"325 250 CURVE SMOOTH",
"325 139 OFFCURVE",
"414 50 OFFCURVE",
"525 50 CURVE SMOOTH",
"636 50 OFFCURVE",
"725 139 OFFCURVE",
"725 250 CURVE SMOOTH"
);
}
);
width = 1050;
}
);
unicode = 2022;
},
{
glyphname = colon;
lastChange = "2018-11-24 15:40:12 +0000";
layers = (
{
layerId = "ADA7F6FF-5955-4EF3-8FA7-BADC10F8EE4C";
paths = (
{
closed = 1;
nodes = (
"480 398 OFFCURVE",
"500 378 OFFCURVE",
"525 378 CURVE SMOOTH",
"550 378 OFFCURVE",
"570 398 OFFCURVE",
"570 423 CURVE SMOOTH",
"570 448 OFFCURVE",
"550 468 OFFCURVE",
"525 468 CURVE SMOOTH",
"500 468 OFFCURVE",
"480 448 OFFCURVE",
"480 423 CURVE SMOOTH"
);
},
{
closed = 1;
nodes = (
"570 98 OFFCURVE",
"550 118 OFFCURVE",
"525 118 CURVE SMOOTH",
"500 118 OFFCURVE",
"480 98 OFFCURVE",
"480 73 CURVE SMOOTH",
"480 48 OFFCURVE",
"500 28 OFFCURVE",
"525 28 CURVE SMOOTH",
"550 28 OFFCURVE",
"570 48 OFFCURVE",
"570 73 CURVE SMOOTH"
);
}
);
width = 1050;
}
);
unicode = 003A;
},
{
glyphname = ellipsis;
lastChange = "2018-11-24 15:59:08 +0000";
layers = (
{
layerId = "ADA7F6FF-5955-4EF3-8FA7-BADC10F8EE4C";
paths = (
{
closed = 1;
nodes = (
"300 25 OFFCURVE",
"280 45 OFFCURVE",
"255 45 CURVE SMOOTH",
"230 45 OFFCURVE",
"210 25 OFFCURVE",
"210 0 CURVE SMOOTH",
"210 -25 OFFCURVE",
"230 -45 OFFCURVE",
"255 -45 CURVE SMOOTH",
"280 -45 OFFCURVE",
"300 -25 OFFCURVE",
"300 0 CURVE SMOOTH"
);
},
{
closed = 1;
nodes = (
"570 25 OFFCURVE",
"550 45 OFFCURVE",
"525 45 CURVE SMOOTH",
"500 45 OFFCURVE",
"480 25 OFFCURVE",
"480 0 CURVE SMOOTH",
"480 -25 OFFCURVE",
"500 -45 OFFCURVE",
"525 -45 CURVE SMOOTH",
"550 -45 OFFCURVE",
"570 -25 OFFCURVE",
"570 0 CURVE SMOOTH"
);
},
{
closed = 1;
nodes = (
"840 25 OFFCURVE",
"820 45 OFFCURVE",
"795 45 CURVE SMOOTH",
"770 45 OFFCURVE",
"750 25 OFFCURVE",
"750 0 CURVE SMOOTH",
"750 -25 OFFCURVE",
"770 -45 OFFCURVE",
"795 -45 CURVE SMOOTH",
"820 -45 OFFCURVE",
"840 -25 OFFCURVE",
"840 0 CURVE SMOOTH"
);
}
);
width = 1050;
}
);
unicode = 2026;
},
{
glyphname = exclam;
lastChange = "2018-11-25 13:28:30 +0000";
layers = (
{
layerId = "ADA7F6FF-5955-4EF3-8FA7-BADC10F8EE4C";
paths = (
{
closed = 1;
nodes = (
"550 105 OFFCURVE",
"570 125 OFFCURVE",
"570 150 CURVE SMOOTH",
"570 500 LINE SMOOTH",
"570 525 OFFCURVE",
"550 545 OFFCURVE",
"525 545 CURVE SMOOTH",
"500 545 OFFCURVE",
"480 525 OFFCURVE",
"480 500 CURVE SMOOTH",
"480 150 LINE SMOOTH",
"480 125 OFFCURVE",
"500 105 OFFCURVE",
"525 105 CURVE SMOOTH"
);
},
{
closed = 1;
nodes = (
"570 25 OFFCURVE",
"550 45 OFFCURVE",
"525 45 CURVE SMOOTH",
"500 45 OFFCURVE",
"480 25 OFFCURVE",
"480 0 CURVE SMOOTH",
"480 -25 OFFCURVE",
"500 -45 OFFCURVE",
"525 -45 CURVE SMOOTH",
"550 -45 OFFCURVE",
"570 -25 OFFCURVE",
"570 0 CURVE SMOOTH"
);
}
);
width = 1050;
}
);
unicode = 0021;
},
{
glyphname = exclamdown;
lastChange = "2018-11-25 13:28:43 +0000";
layers = (
{
layerId = "ADA7F6FF-5955-4EF3-8FA7-BADC10F8EE4C";
paths = (
{
closed = 1;
nodes = (
"500 395 OFFCURVE",
"480 375 OFFCURVE",
"480 350 CURVE SMOOTH",
"480 0 LINE SMOOTH",
"480 -25 OFFCURVE",
"500 -45 OFFCURVE",
"525 -45 CURVE SMOOTH",
"550 -45 OFFCURVE",
"570 -25 OFFCURVE",
"570 0 CURVE SMOOTH",
"570 350 LINE SMOOTH",
"570 375 OFFCURVE",
"550 395 OFFCURVE",
"525 395 CURVE SMOOTH"
);
},
{
closed = 1;
nodes = (
"480 475 OFFCURVE",
"500 455 OFFCURVE",
"525 455 CURVE SMOOTH",
"550 455 OFFCURVE",
"570 475 OFFCURVE",
"570 500 CURVE SMOOTH",
"570 525 OFFCURVE",
"550 545 OFFCURVE",
"525 545 CURVE SMOOTH",
"500 545 OFFCURVE",
"480 525 OFFCURVE",
"480 500 CURVE SMOOTH"
);
}
);
width = 1050;
}
);
unicode = 00A1;
},
{
glyphname = period;
lastChange = "2018-11-24 15:50:17 +0000";
layers = (
{
layerId = "ADA7F6FF-5955-4EF3-8FA7-BADC10F8EE4C";
paths = (
{
closed = 1;
nodes = (
"140 25 OFFCURVE",
"120 45 OFFCURVE",
"95 45 CURVE SMOOTH",
"70 45 OFFCURVE",
"50 25 OFFCURVE",
"50 0 CURVE SMOOTH",
"50 -25 OFFCURVE",
"70 -45 OFFCURVE",
"95 -45 CURVE SMOOTH",
"120 -45 OFFCURVE",
"140 -25 OFFCURVE",
"140 0 CURVE SMOOTH"
);
}
);
width = 1050;
}
);
unicode = 002E;
},
{
glyphname = question;
lastChange = "2018-11-25 13:29:09 +0000";
layers = (
{
layerId = "ADA7F6FF-5955-4EF3-8FA7-BADC10F8EE4C";
paths = (
{
closed = 1;
nodes = (
"225 105 OFFCURVE",
"245 125 OFFCURVE",
"245 150 CURVE SMOOTH",
"245 205 LINE",
"867.466 205 LINE SMOOTH",
"890.589 205 OFFCURVE",
"906.509 211.509 OFFCURVE",
"922.5 227.5 CURVE SMOOTH",
"938.491 243.491 OFFCURVE",
"945 259.411 OFFCURVE",
"945 282.534 CURVE SMOOTH",
"945 467.466 LINE SMOOTH",
"945 490.589 OFFCURVE",
"938.491 506.509 OFFCURVE",
"922.5 522.5 CURVE SMOOTH",
"906.509 538.491 OFFCURVE",
"890.589 545 OFFCURVE",
"867.466 545 CURVE SMOOTH",
"0 545 LINE SMOOTH",
"-24.853 545 OFFCURVE",
"-45 524.853 OFFCURVE",
"-45 500 CURVE SMOOTH",
"-45 475.147 OFFCURVE",
"-24.853 455 OFFCURVE",
"0 455 CURVE SMOOTH",
"855 455 LINE",
"855 295 LINE",
"233 295 LINE SMOOTH",
"209 295 OFFCURVE",
"193 288 OFFCURVE",
"178 273 CURVE SMOOTH",
"162 257 OFFCURVE",
"155 241 OFFCURVE",
"155 217 CURVE SMOOTH",
"155 150 LINE SMOOTH",
"155 125 OFFCURVE",
"175 105 OFFCURVE",
"200 105 CURVE SMOOTH"
);
},
{
closed = 1;
nodes = (
"245 25 OFFCURVE",
"225 45 OFFCURVE",
"200 45 CURVE SMOOTH",
"175 45 OFFCURVE",
"155 25 OFFCURVE",
"155 0 CURVE SMOOTH",
"155 -25 OFFCURVE",
"175 -45 OFFCURVE",
"200 -45 CURVE SMOOTH",
"225 -45 OFFCURVE",
"245 -25 OFFCURVE",
"245 0 CURVE SMOOTH"
);
}
);
width = 900;
}
);
unicode = 003F;
},
{
glyphname = questiondown;
lastChange = "2018-11-25 13:29:36 +0000";
layers = (
{
layerId = "ADA7F6FF-5955-4EF3-8FA7-BADC10F8EE4C";
paths = (
{
closed = 1;
nodes = (
"750 395 OFFCURVE",
"730 375 OFFCURVE",
"730 350 CURVE SMOOTH",
"730 295 LINE",
"107 295 LINE SMOOTH",
"84 295 OFFCURVE",
"68 289 OFFCURVE",
"52 273 CURVE SMOOTH",
"36 257 OFFCURVE",
"30 241 OFFCURVE",
"30 218 CURVE SMOOTH",
"30 33 LINE SMOOTH",
"30 10 OFFCURVE",
"36 -6 OFFCURVE",
"52 -22 CURVE SMOOTH",
"68 -38 OFFCURVE",
"84 -45 OFFCURVE",
"107 -45 CURVE SMOOTH",
"975 -45 LINE SMOOTH",
"1000 -45 OFFCURVE",
"1020 -25 OFFCURVE",
"1020 0 CURVE SMOOTH",
"1020 25 OFFCURVE",
"1000 45 OFFCURVE",
"975 45 CURVE SMOOTH",
"120 45 LINE",
"120 205 LINE",
"742 205 LINE SMOOTH",
"766 205 OFFCURVE",
"782 212 OFFCURVE",
"797 227 CURVE SMOOTH",
"813 243 OFFCURVE",
"820 259 OFFCURVE",
"820 283 CURVE SMOOTH",
"820 350 LINE SMOOTH",
"820 375 OFFCURVE",
"800 395 OFFCURVE",
"775 395 CURVE SMOOTH"
);
},
{
closed = 1;
nodes = (
"730 475 OFFCURVE",
"750 455 OFFCURVE",
"775 455 CURVE SMOOTH",
"800 455 OFFCURVE",
"820 475 OFFCURVE",
"820 500 CURVE SMOOTH",
"820 525 OFFCURVE",
"800 545 OFFCURVE",
"775 545 CURVE SMOOTH",
"750 545 OFFCURVE",
"730 525 OFFCURVE",
"730 500 CURVE SMOOTH"
);
}
);
width = 1050;
}
);
unicode = 00BF;
},
{
glyphname = question.alt1;
lastChange = "2018-11-24 15:55:07 +0000";
layers = (
{
layerId = "ADA7F6FF-5955-4EF3-8FA7-BADC10F8EE4C";
paths = (
{
closed = 1;
nodes = (
"365 155 OFFCURVE",
"372 157 OFFCURVE",
"378 160 CURVE SMOOTH",
"990 442 LINE SMOOTH",
"1015 454 OFFCURVE",
"1024 472 OFFCURVE",
"1018 499 CURVE SMOOTH",
"1017 505 LINE SMOOTH",
"1011 532 OFFCURVE",
"995 545 OFFCURVE",
"967 545 CURVE SMOOTH",
"75 545 LINE SMOOTH",
"50 545 OFFCURVE",
"30 525 OFFCURVE",
"30 500 CURVE SMOOTH",
"30 475 OFFCURVE",
"50 455 OFFCURVE",
"75 455 CURVE SMOOTH",
"803 455 LINE",
"340 241 LINE SMOOTH",
"324 234 OFFCURVE",
"313 218 OFFCURVE",
"313 200 CURVE SMOOTH",
"313 175 OFFCURVE",
"333 155 OFFCURVE",
"358 155 CURVE SMOOTH"
);
},
{
closed = 1;
nodes = (
"394 25 OFFCURVE",
"374 45 OFFCURVE",
"349 45 CURVE SMOOTH",
"324 45 OFFCURVE",
"304 25 OFFCURVE",
"304 0 CURVE SMOOTH",
"304 -25 OFFCURVE",
"324 -45 OFFCURVE",
"349 -45 CURVE SMOOTH",
"374 -45 OFFCURVE",
"394 -25 OFFCURVE",
"394 0 CURVE SMOOTH"
);
}
);
width = 1050;
}
);
},
{
glyphname = questiondown.alt1;
lastChange = "2018-11-24 15:57:04 +0000";
layers = (
{
layerId = "ADA7F6FF-5955-4EF3-8FA7-BADC10F8EE4C";
paths = (
{
closed = 1;
nodes = (
"684 345 OFFCURVE",
"677 343 OFFCURVE",
"671 340 CURVE SMOOTH",
"59 58 LINE SMOOTH",
"34 46 OFFCURVE",
"26 28 OFFCURVE",
"31 1 CURVE SMOOTH",
"32 -5 LINE SMOOTH",
"37 -32 OFFCURVE",
"54 -45 OFFCURVE",
"82 -45 CURVE SMOOTH",
"975 -45 LINE SMOOTH",
"1000 -45 OFFCURVE",
"1020 -25 OFFCURVE",
"1020 0 CURVE SMOOTH",
"1020 25 OFFCURVE",
"1000 45 OFFCURVE",
"975 45 CURVE SMOOTH",
"246 45 LINE",
"709 259 LINE SMOOTH",
"725 266 OFFCURVE",
"736 282 OFFCURVE",
"736 300 CURVE SMOOTH",
"736 325 OFFCURVE",
"716 345 OFFCURVE",
"691 345 CURVE SMOOTH"
);
},
{
closed = 1;
nodes = (
"655 475 OFFCURVE",
"675 455 OFFCURVE",
"700 455 CURVE SMOOTH",
"725 455 OFFCURVE",
"745 475 OFFCURVE",
"745 500 CURVE SMOOTH",
"745 525 OFFCURVE",
"725 545 OFFCURVE",
"700 545 CURVE SMOOTH",
"675 545 OFFCURVE",
"655 525 OFFCURVE",
"655 500 CURVE SMOOTH"
);
}
);
width = 1050;
}
);
},
{
glyphname = bracketleft;
lastChange = "2018-11-24 16:06:22 +0000";
layers = (
{
layerId = "ADA7F6FF-5955-4EF3-8FA7-BADC10F8EE4C";
paths = (
{
closed = 1;
nodes = (
"625 -178 LINE SMOOTH",
"650 -178 OFFCURVE",
"670 -158 OFFCURVE",
"670 -133 CURVE SMOOTH",
"670 -108 OFFCURVE",
"650 -88 OFFCURVE",
"625 -88 CURVE SMOOTH",
"471 -88 LINE",
"470 588 LINE",
"625 588 LINE SMOOTH",
"650 588 OFFCURVE",
"670 608 OFFCURVE",
"670 633 CURVE SMOOTH",
"670 658 OFFCURVE",
"650 678 OFFCURVE",
"625 678 CURVE SMOOTH",
"458 678 LINE SMOOTH",
"434 678 OFFCURVE",
"418 671 OFFCURVE",
"402 655 CURVE SMOOTH",
"386 639 OFFCURVE",
"380 624 OFFCURVE",
"380 600 CURVE SMOOTH",
"381 -101 LINE SMOOTH",
"381 -124 OFFCURVE",
"388 -140 OFFCURVE",
"403 -156 CURVE SMOOTH",
"419 -173 OFFCURVE",
"435 -178 OFFCURVE",
"459 -178 CURVE SMOOTH"
);
}
);
width = 1050;
},
{
associatedMasterId = "ADA7F6FF-5955-4EF3-8FA7-BADC10F8EE4C";
layerId = "D29A66DC-A5F8-442B-9EF4-6F65882D13EF";
name = path;
paths = (
{
closed = 0;
nodes = (
"200 633 LINE",
"0 633 LINE",
"1 -133 LINE",
"200 -133 LINE"
);
}
);
width = 1050;
}
);
unicode = 005B;
},
{
glyphname = bracketright;
lastChange = "2018-11-24 16:07:04 +0000";
layers = (
{
layerId = "ADA7F6FF-5955-4EF3-8FA7-BADC10F8EE4C";
paths = (
{
closed = 1;
nodes = (
"425 674 LINE SMOOTH",
"400 674 OFFCURVE",
"380 654 OFFCURVE",
"380 629 CURVE SMOOTH",
"380 604 OFFCURVE",
"400 584 OFFCURVE",
"425 584 CURVE SMOOTH",
"579 584 LINE",
"580 -92 LINE",
"425 -92 LINE SMOOTH",
"400 -92 OFFCURVE",
"380 -112 OFFCURVE",
"380 -137 CURVE SMOOTH",
"380 -162 OFFCURVE",
"400 -182 OFFCURVE",
"425 -182 CURVE SMOOTH",
"592 -182 LINE SMOOTH",
"616 -182 OFFCURVE",
"632 -175 OFFCURVE",
"648 -159 CURVE SMOOTH",
"664 -143 OFFCURVE",
"670 -128 OFFCURVE",
"670 -104 CURVE SMOOTH",
"669 597 LINE SMOOTH",
"669 620 OFFCURVE",
"662 636 OFFCURVE",
"647 652 CURVE SMOOTH",
"631 669 OFFCURVE",
"615 674 OFFCURVE",
"591 674 CURVE SMOOTH"
);
}
);
width = 1050;
}
);
unicode = 005D;
},
{
glyphname = emdash;
lastChange = "2018-11-24 16:04:27 +0000";
layers = (
{
layerId = "ADA7F6FF-5955-4EF3-8FA7-BADC10F8EE4C";
paths = (
{
closed = 1;
nodes = (
"975 205 LINE SMOOTH",
"1000 205 OFFCURVE",
"1020 225 OFFCURVE",
"1020 250 CURVE SMOOTH",
"1020 275 OFFCURVE",
"1000 295 OFFCURVE",
"975 295 CURVE SMOOTH",
"75 295 LINE SMOOTH",
"50 295 OFFCURVE",
"30 275 OFFCURVE",
"30 250 CURVE SMOOTH",
"30 225 OFFCURVE",
"50 205 OFFCURVE",
"75 205 CURVE SMOOTH"
);
}
);
width = 1050;
}
);
unicode = 2014;
},
{
glyphname = endash;
lastChange = "2018-11-24 16:04:01 +0000";
layers = (
{
layerId = "ADA7F6FF-5955-4EF3-8FA7-BADC10F8EE4C";
paths = (
{
closed = 1;
nodes = (
"880 205 LINE SMOOTH",
"905 205 OFFCURVE",
"925 225 OFFCURVE",
"925 250 CURVE SMOOTH",
"925 275 OFFCURVE",
"905 295 OFFCURVE",
"880 295 CURVE SMOOTH",
"170 295 LINE SMOOTH",
"145 295 OFFCURVE",
"125 275 OFFCURVE",
"125 250 CURVE SMOOTH",
"125 225 OFFCURVE",
"145 205 OFFCURVE",
"170 205 CURVE SMOOTH"
);
}
);
width = 1050;
}
);
unicode = 2013;
},
{
glyphname = hyphen;
lastChange = "2018-11-24 16:03:06 +0000";
layers = (
{
layerId = "ADA7F6FF-5955-4EF3-8FA7-BADC10F8EE4C";
paths = (
{
closed = 1;
nodes = (
"780 205 LINE SMOOTH",
"805 205 OFFCURVE",
"825 225 OFFCURVE",
"825 250 CURVE SMOOTH",
"825 275 OFFCURVE",
"805 295 OFFCURVE",
"780 295 CURVE SMOOTH",
"270 295 LINE SMOOTH",
"245 295 OFFCURVE",
"225 275 OFFCURVE",
"225 250 CURVE SMOOTH",
"225 225 OFFCURVE",
"245 205 OFFCURVE",
"270 205 CURVE SMOOTH"
);
}
);
width = 1050;
}
);
unicode = 002D;
},
{
glyphname = cent;
lastChange = "2018-11-23 13:33:39 +0000";
layers = (
{
associatedMasterId = "ADA7F6FF-5955-4EF3-8FA7-BADC10F8EE4C";
layerId = "4B0415CE-085C-4CCF-B7A2-AF1E71116310";
name = "Nov 23 18, 14:27";
width = 1050;
},
{
layerId = "ADA7F6FF-5955-4EF3-8FA7-BADC10F8EE4C";
paths = (
{
closed = 1;
nodes = (
"550 -125 OFFCURVE",
"570 -105 OFFCURVE",
"570 -80 CURVE SMOOTH",
"570 -45 LINE",
"975 -45 LINE SMOOTH",
"1000 -45 OFFCURVE",
"1020 -25 OFFCURVE",
"1020 0 CURVE SMOOTH",
"1020 25 OFFCURVE",
"1000 45 OFFCURVE",
"975 45 CURVE SMOOTH",
"570 45 LINE",
"570 455 LINE",
"975 455 LINE SMOOTH",
"1000 455 OFFCURVE",
"1020 475 OFFCURVE",
"1020 500 CURVE SMOOTH",
"1020 525 OFFCURVE",
"1000 545 OFFCURVE",
"975 545 CURVE SMOOTH",
"570 545 LINE",
"570 580 LINE SMOOTH",
"570 605 OFFCURVE",
"550 625 OFFCURVE",
"525 625 CURVE SMOOTH",
"500 625 OFFCURVE",
"480 605 OFFCURVE",
"480 580 CURVE SMOOTH",
"480 545 LINE",
"108 545 LINE SMOOTH",
"84 545 OFFCURVE",
"68 538 OFFCURVE",
"53 523 CURVE SMOOTH",
"37 507 OFFCURVE",
"30 491 OFFCURVE",
"30 467 CURVE SMOOTH",
"30 33 LINE SMOOTH",
"30 9 OFFCURVE",
"37 -7 OFFCURVE",
"53 -23 CURVE SMOOTH",
"68 -38 OFFCURVE",
"84 -45 OFFCURVE",
"108 -45 CURVE SMOOTH",
"480 -45 LINE",
"480 -80 LINE SMOOTH",
"480 -105 OFFCURVE",
"500 -125 OFFCURVE",
"525 -125 CURVE SMOOTH"
);
},
{
closed = 1;
nodes = (
"120 455 LINE",
"480 455 LINE",
"480 45 LINE",
"120 45 LINE"
);
}
);
width = 1050;
}
);
unicode = 00A2;
},
{
glyphname = currency;
lastChange = "2018-11-22 09:02:20 +0000";
layers = (
{
layerId = "ADA7F6FF-5955-4EF3-8FA7-BADC10F8EE4C";
paths = (
{
closed = 1;
nodes = (
"83 -45 OFFCURVE",
"91 -43 OFFCURVE",
"98 -39 CURVE SMOOTH",
"236 38 LINE",
"814 38 LINE",
"952 -39 LINE SMOOTH",
"959 -43 OFFCURVE",
"967 -45 OFFCURVE",
"975 -45 CURVE SMOOTH",
"1000 -45 OFFCURVE",
"1020 -25 OFFCURVE",
"1020 0 CURVE SMOOTH",
"1020 17 OFFCURVE",
"1010 32 OFFCURVE",
"996 40 CURVE SMOOTH",
"870 110 LINE",
"870 390 LINE",
"996 460 LINE SMOOTH",
"1010 468 OFFCURVE",
"1020 483 OFFCURVE",
"1020 500 CURVE SMOOTH",
"1020 525 OFFCURVE",
"1000 545 OFFCURVE",
"975 545 CURVE SMOOTH",
"967 545 OFFCURVE",
"959 543 OFFCURVE",
"952 539 CURVE SMOOTH",
"814 462 LINE",
"236 462 LINE",
"98 539 LINE SMOOTH",
"91 543 OFFCURVE",
"83 545 OFFCURVE",
"75 545 CURVE SMOOTH",
"50 545 OFFCURVE",
"30 525 OFFCURVE",
"30 500 CURVE SMOOTH",
"30 483 OFFCURVE",
"40 468 OFFCURVE",
"54 460 CURVE SMOOTH",
"180 390 LINE",
"180 110 LINE",
"54 40 LINE SMOOTH",
"40 32 OFFCURVE",
"30 17 OFFCURVE",
"30 0 CURVE SMOOTH",
"30 -25 OFFCURVE",
"50 -45 OFFCURVE",
"75 -45 CURVE SMOOTH"
);
},
{
closed = 1;
nodes = (
"270 372 LINE",
"780 372 LINE",
"780 128 LINE",
"270 128 LINE"
);
}
);
width = 1050;
},
{
associatedMasterId = "ADA7F6FF-5955-4EF3-8FA7-BADC10F8EE4C";
layerId = "80A0A934-C923-4D40-9DD5-3711F3B9C13A";
name = path;
paths = (
{
closed = 1;
nodes = (
"800 417 LINE",
"800 83 LINE",
"200 83 LINE",
"200 417 LINE"
);
},
{
closed = 0;
nodes = (
"50 0 LINE",
"201 84 LINE"
);
},
{
closed = 0;
nodes = (
"950 0 LINE",
"799 84 LINE"
);
},
{
closed = 0;
nodes = (
"201 416 LINE",
"50 500 LINE"
);
},
{
closed = 0;
nodes = (
"799 416 LINE",
"950 500 LINE"
);
}
);
width = 1000;
}
);
unicode = 00A4;
},
{
glyphname = dollar;
lastChange = "2018-11-23 13:26:13 +0000";
layers = (
{
layerId = "ADA7F6FF-5955-4EF3-8FA7-BADC10F8EE4C";
paths = (
{
closed = 1;
nodes = (
"550 -125 OFFCURVE",
"570 -105 OFFCURVE",
"570 -80 CURVE SMOOTH",
"570 -45 LINE",
"942 -45 LINE SMOOTH",
"966 -45 OFFCURVE",
"982 -38 OFFCURVE",
"998 -23 CURVE SMOOTH",
"1013 -7 OFFCURVE",
"1020 9 OFFCURVE",
"1020 33 CURVE SMOOTH",
"1020 217 LINE SMOOTH",
"1020 241 OFFCURVE",
"1013 257 OFFCURVE",
"998 273 CURVE SMOOTH",
"982 288 OFFCURVE",
"966 295 OFFCURVE",
"942 295 CURVE SMOOTH",
"570 295 LINE",
"570 455 LINE",
"975 455 LINE SMOOTH",
"1000 455 OFFCURVE",
"1020 475 OFFCURVE",
"1020 500 CURVE SMOOTH",
"1020 525 OFFCURVE",
"1000 545 OFFCURVE",
"975 545 CURVE SMOOTH",
"570 545 LINE",
"570 580 LINE SMOOTH",
"570 605 OFFCURVE",
"550 625 OFFCURVE",
"525 625 CURVE SMOOTH",
"500 625 OFFCURVE",
"480 605 OFFCURVE",
"480 580 CURVE SMOOTH",
"480 545 LINE",
"108 545 LINE SMOOTH",
"84 545 OFFCURVE",
"68 538 OFFCURVE",
"53 523 CURVE SMOOTH",
"37 507 OFFCURVE",
"30 491 OFFCURVE",
"30 467 CURVE SMOOTH",
"30 283 LINE SMOOTH",
"30 259 OFFCURVE",
"37 243 OFFCURVE",
"53 228 CURVE SMOOTH",
"68 212 OFFCURVE",
"84 205 OFFCURVE",
"108 205 CURVE SMOOTH",
"480 205 LINE",
"480 45 LINE",
"75 45 LINE SMOOTH",
"50 45 OFFCURVE",
"30 25 OFFCURVE",
"30 0 CURVE SMOOTH",
"30 -25 OFFCURVE",
"50 -45 OFFCURVE",
"75 -45 CURVE SMOOTH",
"480 -45 LINE",
"480 -80 LINE SMOOTH",
"480 -105 OFFCURVE",
"500 -125 OFFCURVE",
"525 -125 CURVE SMOOTH"
);
},
{
closed = 1;
nodes = (
"120 455 LINE",
"480 455 LINE",
"480 295 LINE",
"120 295 LINE"
);
},
{
closed = 1;
nodes = (
"570 205 LINE",
"930 205 LINE",
"930 45 LINE",
"570 45 LINE"
);
}
);
width = 1050;
},
{
associatedMasterId = "ADA7F6FF-5955-4EF3-8FA7-BADC10F8EE4C";
layerId = "5C9EACC4-7DA6-420F-B2AB-83A1D7734FFE";
name = path;
paths = (
{
closed = 0;
nodes = (
"950 500 LINE",
"50 500 LINE",
"50 250 LINE",
"950 250 LINE",
"950 0 LINE",
"50 0 LINE"
);
},
{
closed = 0;
nodes = (
"500 580 LINE",
"500 -80 LINE"
);
}
);
width = 1000;
}
);
unicode = 0024;
},
{
glyphname = euro;
lastChange = "2018-11-23 13:41:58 +0000";
layers = (
{
layerId = "ADA7F6FF-5955-4EF3-8FA7-BADC10F8EE4C";
paths = (
{
closed = 1;
nodes = (
"765 125 LINE SMOOTH",
"790 125 OFFCURVE",
"810 145 OFFCURVE",
"810 170 CURVE SMOOTH",
"810 195 OFFCURVE",
"790 215 OFFCURVE",
"765 215 CURVE SMOOTH",
"260 215 LINE",
"260 285 LINE",
"765 285 LINE SMOOTH",
"790 285 OFFCURVE",
"810 305 OFFCURVE",
"810 330 CURVE SMOOTH",
"810 355 OFFCURVE",
"790 375 OFFCURVE",
"765 375 CURVE SMOOTH",
"260 375 LINE",
"260 455 LINE",
"975 455 LINE SMOOTH",
"1000 455 OFFCURVE",
"1020 475 OFFCURVE",
"1020 500 CURVE SMOOTH",
"1020 525 OFFCURVE",
"1000 545 OFFCURVE",
"975 545 CURVE SMOOTH",
"248 545 LINE SMOOTH",
"224 545 OFFCURVE",
"208 538 OFFCURVE",
"193 523 CURVE SMOOTH",
"177 507 OFFCURVE",
"170 491 OFFCURVE",
"170 467 CURVE SMOOTH",
"170 375 LINE",
"75 375 LINE SMOOTH",
"50 375 OFFCURVE",
"30 355 OFFCURVE",
"30 330 CURVE SMOOTH",
"30 305 OFFCURVE",
"50 285 OFFCURVE",
"75 285 CURVE SMOOTH",
"170 285 LINE",
"170 215 LINE",
"75 215 LINE SMOOTH",
"50 215 OFFCURVE",
"30 195 OFFCURVE",
"30 170 CURVE SMOOTH",
"30 145 OFFCURVE",
"50 125 OFFCURVE",
"75 125 CURVE SMOOTH",
"170 125 LINE",
"170 33 LINE SMOOTH",
"170 9 OFFCURVE",
"177 -7 OFFCURVE",
"193 -23 CURVE SMOOTH",
"208 -38 OFFCURVE",
"224 -45 OFFCURVE",
"248 -45 CURVE SMOOTH",
"975 -45 LINE SMOOTH",
"1000 -45 OFFCURVE",
"1020 -25 OFFCURVE",
"1020 0 CURVE SMOOTH",
"1020 25 OFFCURVE",
"1000 45 OFFCURVE",
"975 45 CURVE SMOOTH",
"260 45 LINE",
"260 125 LINE"
);
}
);
width = 1050;
},
{
associatedMasterId = "ADA7F6FF-5955-4EF3-8FA7-BADC10F8EE4C";
layerId = "1E3C0890-EFAF-4871-B57C-7B83B4C0DE22";
name = path;
paths = (
{
closed = 0;
nodes = (
"800 0 LINE",
"150 0 LINE",
"150 500 LINE",
"800 500 LINE"
);
},
{
closed = 0;
nodes = (
"0 170 LINE",
"598 170 LINE"
);
},
{
closed = 0;
nodes = (
"0 330 LINE",
"598 330 LINE"
);
}
);
width = 800;
}
);
unicode = 20AC;
},
{
glyphname = sterling;
lastChange = "2018-11-23 13:40:00 +0000";
layers = (
{
associatedMasterId = "ADA7F6FF-5955-4EF3-8FA7-BADC10F8EE4C";
layerId = "0C27D1B0-A702-4E73-9D41-802D9DF9A669";
name = path;
paths = (
{
closed = 0;
nodes = (
"900 500 LINE",
"450 500 LINE",
"100 0 LINE"
);
},
{
closed = 0;
nodes = (
"0 250 LINE",
"450 250 LINE"
);
},
{
closed = 0;
nodes = (
"0 0 LINE",
"900 0 LINE",
"900 150 LINE"
);
}
);
width = 900;
},
{
associatedMasterId = "ADA7F6FF-5955-4EF3-8FA7-BADC10F8EE4C";
layerId = "5E9B5A7F-1B9E-44CF-AE8F-92E992686F8E";
name = "2";
paths = (
{
closed = 1;
nodes = (
"942 -45 LINE SMOOTH",
"966 -45 OFFCURVE",
"982 -38 OFFCURVE",
"998 -23 CURVE SMOOTH",
"1013 -7 OFFCURVE",
"1020 9 OFFCURVE",
"1020 33 CURVE SMOOTH",
"1020 250 LINE SMOOTH",
"1020 275 OFFCURVE",
"1000 295 OFFCURVE",
"975 295 CURVE SMOOTH",
"950 295 OFFCURVE",
"930 275 OFFCURVE",
"930 250 CURVE SMOOTH",
"930 45 LINE",
"176 45 LINE",
"320 205 LINE",
"525 205 LINE SMOOTH",
"550 205 OFFCURVE",
"570 225 OFFCURVE",
"570 250 CURVE SMOOTH",
"570 275 OFFCURVE",
"550 295 OFFCURVE",
"525 295 CURVE SMOOTH",
"401 295 LINE",
"545 455 LINE",
"975 455 LINE SMOOTH",
"1000 455 OFFCURVE",
"1020 475 OFFCURVE",
"1020 500 CURVE SMOOTH",
"1020 525 OFFCURVE",
"1000 545 OFFCURVE",
"975 545 CURVE SMOOTH",
"554 545 LINE SMOOTH",
"533 545 OFFCURVE",
"520 543 OFFCURVE",
"508 538 CURVE SMOOTH",
"496 532 OFFCURVE",
"486 524 OFFCURVE",
"472 509 CURVE SMOOTH",
"280 295 LINE",
"75 295 LINE SMOOTH",
"50 295 OFFCURVE",
"30 275 OFFCURVE",
"30 250 CURVE SMOOTH",
"30 225 OFFCURVE",
"50 205 OFFCURVE",
"75 205 CURVE SMOOTH",
"199 205 LINE",
"66 58 LINE SMOOTH",
"49 39 OFFCURVE",
"46 19 OFFCURVE",
"57 -4 CURVE SMOOTH",
"60 -11 LINE SMOOTH",
"70 -34 OFFCURVE",
"87 -45 OFFCURVE",
"112 -45 CURVE SMOOTH"
);
}
);
width = 1050;
},
{
layerId = "ADA7F6FF-5955-4EF3-8FA7-BADC10F8EE4C";
paths = (
{
closed = 1;
nodes = (
"942 -45 LINE SMOOTH",
"966 -45 OFFCURVE",
"982 -38 OFFCURVE",
"998 -23 CURVE SMOOTH",
"1013 -7 OFFCURVE",
"1020 9 OFFCURVE",
"1020 33 CURVE SMOOTH",
"1020 150 LINE SMOOTH",
"1020 175 OFFCURVE",
"1000 195 OFFCURVE",
"975 195 CURVE SMOOTH",
"950 195 OFFCURVE",
"930 175 OFFCURVE",
"930 150 CURVE SMOOTH",
"930 45 LINE",
"261 45 LINE",
"373 205 LINE",
"655 205 LINE SMOOTH",
"680 205 OFFCURVE",
"700 225 OFFCURVE",
"700 250 CURVE SMOOTH",
"700 275 OFFCURVE",
"680 295 OFFCURVE",
"655 295 CURVE SMOOTH",
"436 295 LINE",
"548 455 LINE",
"975 455 LINE SMOOTH",
"1000 455 OFFCURVE",
"1020 475 OFFCURVE",
"1020 500 CURVE SMOOTH",
"1020 525 OFFCURVE",
"1000 545 OFFCURVE",
"975 545 CURVE SMOOTH",
"555 545 LINE SMOOTH",
"533 545 OFFCURVE",
"520 542 OFFCURVE",
"507 535 CURVE SMOOTH",
"493 528 OFFCURVE",
"484 519 OFFCURVE",
"471 502 CURVE SMOOTH",
"327 295 LINE",
"75 295 LINE SMOOTH",
"50 295 OFFCURVE",
"30 275 OFFCURVE",
"30 250 CURVE SMOOTH",
"30 225 OFFCURVE",
"50 205 OFFCURVE",
"75 205 CURVE SMOOTH",
"264 205 LINE",
"152 45 LINE",
"75 45 LINE SMOOTH",
"50 45 OFFCURVE",
"30 25 OFFCURVE",
"30 0 CURVE SMOOTH",
"30 -25 OFFCURVE",
"50 -45 OFFCURVE",
"75 -45 CURVE SMOOTH"
);
}
);
width = 1050;
}
);
unicode = 00A3;
},
{
glyphname = yen;
lastChange = "2018-11-23 13:43:20 +0000";
layers = (
{
layerId = "ADA7F6FF-5955-4EF3-8FA7-BADC10F8EE4C";
paths = (
{
closed = 1;
nodes = (
"550 -45 OFFCURVE",
"570 -25 OFFCURVE",
"570 0 CURVE SMOOTH",
"570 60 LINE",
"825 60 LINE SMOOTH",
"850 60 OFFCURVE",
"870 80 OFFCURVE",
"870 105 CURVE SMOOTH",
"870 130 OFFCURVE",
"850 150 OFFCURVE",
"825 150 CURVE SMOOTH",
"570 150 LINE",
"570 220 LINE",
"825 220 LINE SMOOTH",
"850 220 OFFCURVE",
"870 240 OFFCURVE",
"870 265 CURVE SMOOTH",
"870 290 OFFCURVE",
"850 310 OFFCURVE",
"825 310 CURVE SMOOTH",
"641 310 LINE",
"992 458 LINE SMOOTH",
"1008 465 OFFCURVE",
"1020 481 OFFCURVE",
"1020 500 CURVE SMOOTH",
"1020 525 OFFCURVE",
"1000 545 OFFCURVE",
"975 545 CURVE SMOOTH",
"968 545 OFFCURVE",
"962 544 OFFCURVE",
"957 541 CURVE SMOOTH",
"525 359 LINE",
"93 541 LINE SMOOTH",
"88 544 OFFCURVE",
"82 545 OFFCURVE",
"75 545 CURVE SMOOTH",
"50 545 OFFCURVE",
"30 525 OFFCURVE",
"30 500 CURVE SMOOTH",
"30 481 OFFCURVE",
"42 465 OFFCURVE",
"58 458 CURVE SMOOTH",
"409 310 LINE",
"225 310 LINE SMOOTH",
"200 310 OFFCURVE",
"180 290 OFFCURVE",
"180 265 CURVE SMOOTH",
"180 240 OFFCURVE",
"200 220 OFFCURVE",
"225 220 CURVE SMOOTH",
"480 220 LINE",
"480 150 LINE",
"225 150 LINE SMOOTH",
"200 150 OFFCURVE",
"180 130 OFFCURVE",
"180 105 CURVE SMOOTH",
"180 80 OFFCURVE",
"200 60 OFFCURVE",
"225 60 CURVE SMOOTH",
"480 60 LINE",
"480 0 LINE SMOOTH",
"480 -25 OFFCURVE",
"500 -45 OFFCURVE",
"525 -45 CURVE SMOOTH"
);
}
);
width = 1050;
},
{
associatedMasterId = "ADA7F6FF-5955-4EF3-8FA7-BADC10F8EE4C";
layerId = "C6904439-FF68-43AE-86F6-2986ADA02CB7";
name = path;
paths = (
{
closed = 0;
nodes = (
"50 500 LINE",
"500 310 LINE",
"950 500 LINE"
);
},
{
closed = 0;
nodes = (
"500 310 LINE",
"500 0 LINE"
);
},
{
closed = 0;
nodes = (
"200 105 LINE",
"800 105 LINE"
);
},
{
closed = 0;
nodes = (
"200 265 LINE",
"800 265 LINE"
);
}
);
width = 1000;
}
);
unicode = 00A5;
},
{
glyphname = plus;
lastChange = "2018-11-23 14:08:07 +0000";
layers = (
{
layerId = "ADA7F6FF-5955-4EF3-8FA7-BADC10F8EE4C";
paths = (
{
closed = 1;
nodes = (
"885 205 LINE SMOOTH",
"910 205 OFFCURVE",
"930 225 OFFCURVE",
"930 250 CURVE SMOOTH",
"930 275 OFFCURVE",
"910 295 OFFCURVE",
"885 295 CURVE SMOOTH",
"165 295 LINE SMOOTH",
"140 295 OFFCURVE",
"120 275 OFFCURVE",
"120 250 CURVE SMOOTH",
"120 225 OFFCURVE",
"140 205 OFFCURVE",
"165 205 CURVE SMOOTH"
);
},
{
closed = 1;
nodes = (
"480 115 LINE SMOOTH",
"480 90 OFFCURVE",
"500 70 OFFCURVE",
"525 70 CURVE SMOOTH",
"550 70 OFFCURVE",
"570 90 OFFCURVE",
"570 115 CURVE SMOOTH",
"570 385 LINE SMOOTH",
"570 410 OFFCURVE",
"550 430 OFFCURVE",
"525 430 CURVE SMOOTH",
"500 430 OFFCURVE",
"480 410 OFFCURVE",
"480 385 CURVE SMOOTH"
);
}
);
width = 1050;
}
);
unicode = 002B;
},
{
glyphname = minus;
lastChange = "2018-11-23 14:08:07 +0000";
layers = (
{
layerId = "ADA7F6FF-5955-4EF3-8FA7-BADC10F8EE4C";
paths = (
{
closed = 1;
nodes = (
"885 205 LINE SMOOTH",
"910 205 OFFCURVE",
"930 225 OFFCURVE",
"930 250 CURVE SMOOTH",
"930 275 OFFCURVE",
"910 295 OFFCURVE",
"885 295 CURVE SMOOTH",
"165 295 LINE SMOOTH",
"140 295 OFFCURVE",
"120 275 OFFCURVE",
"120 250 CURVE SMOOTH",
"120 225 OFFCURVE",
"140 205 OFFCURVE",
"165 205 CURVE SMOOTH"
);
}
);
width = 1050;
}
);
unicode = 2212;
},
{
color = 0;
glyphname = multiply;
lastChange = "2018-11-25 13:32:47 +0000";
layers = (
{
layerId = "ADA7F6FF-5955-4EF3-8FA7-BADC10F8EE4C";
paths = (
{
closed = 1;
nodes = (
"659 52 LINE SMOOTH",
"677 34 OFFCURVE",
"705 34 OFFCURVE",
"723 52 CURVE SMOOTH",
"741 70 OFFCURVE",
"741 98 OFFCURVE",
"723 116 CURVE SMOOTH",
"391 448 LINE SMOOTH",
"373 466 OFFCURVE",
"345 466 OFFCURVE",
"327 448 CURVE SMOOTH",
"309 430 OFFCURVE",
"309 402 OFFCURVE",
"327 384 CURVE SMOOTH"
);
},
{
closed = 1;
nodes = (
"723 384 LINE SMOOTH",
"741 402 OFFCURVE",
"741 430 OFFCURVE",
"723 448 CURVE SMOOTH",
"705 466 OFFCURVE",
"677 466 OFFCURVE",
"659 448 CURVE SMOOTH",
"327 116 LINE SMOOTH",
"309 98 OFFCURVE",
"309 70 OFFCURVE",
"327 52 CURVE SMOOTH",
"345 34 OFFCURVE",
"373 34 OFFCURVE",
"391 52 CURVE SMOOTH"
);
}
);
width = 1050;
}
);
unicode = 00D7;
},
{
glyphname = divide;
lastChange = "2018-11-23 14:12:07 +0000";
layers = (
{
layerId = "ADA7F6FF-5955-4EF3-8FA7-BADC10F8EE4C";
paths = (
{
closed = 1;
nodes = (
"480 405 OFFCURVE",
"500 385 OFFCURVE",
"525 385 CURVE SMOOTH",
"550 385 OFFCURVE",
"570 405 OFFCURVE",
"570 430 CURVE SMOOTH",
"570 455 OFFCURVE",
"550 475 OFFCURVE",
"525 475 CURVE SMOOTH",
"500 475 OFFCURVE",
"480 455 OFFCURVE",
"480 430 CURVE SMOOTH"
);
},
{
closed = 1;
nodes = (
"570 95 OFFCURVE",
"550 115 OFFCURVE",
"525 115 CURVE SMOOTH",
"500 115 OFFCURVE",
"480 95 OFFCURVE",
"480 70 CURVE SMOOTH",
"480 45 OFFCURVE",
"500 25 OFFCURVE",
"525 25 CURVE SMOOTH",
"550 25 OFFCURVE",
"570 45 OFFCURVE",
"570 70 CURVE SMOOTH"
);
},
{
closed = 1;
nodes = (
"885 205 LINE SMOOTH",
"910 205 OFFCURVE",
"930 225 OFFCURVE",
"930 250 CURVE SMOOTH",
"930 275 OFFCURVE",
"910 295 OFFCURVE",
"885 295 CURVE SMOOTH",
"165 295 LINE SMOOTH",
"140 295 OFFCURVE",
"120 275 OFFCURVE",
"120 250 CURVE SMOOTH",
"120 225 OFFCURVE",
"140 205 OFFCURVE",
"165 205 CURVE SMOOTH"
);
}
);
width = 1050;
}
);
unicode = 00F7;
},
{
glyphname = equal;
lastChange = "2018-11-23 14:08:07 +0000";
layers = (
{
layerId = "ADA7F6FF-5955-4EF3-8FA7-BADC10F8EE4C";
paths = (
{
closed = 1;
nodes = (
"885 295 LINE SMOOTH",
"910 295 OFFCURVE",
"930 315 OFFCURVE",
"930 340 CURVE SMOOTH",
"930 365 OFFCURVE",
"910 385 OFFCURVE",
"885 385 CURVE SMOOTH",
"165 385 LINE SMOOTH",
"140 385 OFFCURVE",
"120 365 OFFCURVE",
"120 340 CURVE SMOOTH",
"120 315 OFFCURVE",
"140 295 OFFCURVE",
"165 295 CURVE SMOOTH"
);
},
{
closed = 1;
nodes = (
"885 115 LINE SMOOTH",
"910 115 OFFCURVE",
"930 135 OFFCURVE",
"930 160 CURVE SMOOTH",
"930 185 OFFCURVE",
"910 205 OFFCURVE",
"885 205 CURVE SMOOTH",
"165 205 LINE SMOOTH",
"140 205 OFFCURVE",
"120 185 OFFCURVE",
"120 160 CURVE SMOOTH",
"120 135 OFFCURVE",
"140 115 OFFCURVE",
"165 115 CURVE SMOOTH"
);
}
);
width = 1050;
}
);
unicode = 003D;
},
{
color = 3;
glyphname = notequal;
lastChange = "2018-11-23 14:13:13 +0000";
layers = (
{
layerId = "ADA7F6FF-5955-4EF3-8FA7-BADC10F8EE4C";
paths = (
{
closed = 1;
nodes = (
"885 295 LINE SMOOTH",
"910 295 OFFCURVE",
"930 315 OFFCURVE",
"930 340 CURVE SMOOTH",
"930 365 OFFCURVE",
"910 385 OFFCURVE",
"885 385 CURVE SMOOTH",
"165 385 LINE SMOOTH",
"140 385 OFFCURVE",
"120 365 OFFCURVE",
"120 340 CURVE SMOOTH",
"120 315 OFFCURVE",
"140 295 OFFCURVE",
"165 295 CURVE SMOOTH"
);
},
{
closed = 1;
nodes = (
"885 115 LINE SMOOTH",
"910 115 OFFCURVE",
"930 135 OFFCURVE",
"930 160 CURVE SMOOTH",
"930 185 OFFCURVE",
"910 205 OFFCURVE",
"885 205 CURVE SMOOTH",
"165 205 LINE SMOOTH",
"140 205 OFFCURVE",
"120 185 OFFCURVE",
"120 160 CURVE SMOOTH",
"120 135 OFFCURVE",
"140 115 OFFCURVE",
"165 115 CURVE SMOOTH"
);
},
{
closed = 1;
nodes = (
"723 384 LINE SMOOTH",
"741 402 OFFCURVE",
"741 430 OFFCURVE",
"723 448 CURVE SMOOTH",
"705 466 OFFCURVE",
"677 466 OFFCURVE",
"659 448 CURVE SMOOTH",
"327 116 LINE SMOOTH",
"309 98 OFFCURVE",
"309 70 OFFCURVE",
"327 52 CURVE SMOOTH",
"345 34 OFFCURVE",
"373 34 OFFCURVE",
"391 52 CURVE SMOOTH"
);
}
);
width = 1050;
}
);
unicode = 2260;
},
{
color = 3;
glyphname = greater;
lastChange = "2018-11-22 09:03:17 +0000";
layers = (
{
layerId = "ADA7F6FF-5955-4EF3-8FA7-BADC10F8EE4C";
paths = (
{
closed = 1;
nodes = (
"80 -45 OFFCURVE",
"84 -44 OFFCURVE",
"88 -43 CURVE SMOOTH",
"949 196 LINE SMOOTH",
"975 203 OFFCURVE",
"987 220 OFFCURVE",
"987 246 CURVE SMOOTH",
"987 254 LINE SMOOTH",
"987 280 OFFCURVE",
"975 297 OFFCURVE",
"949 304 CURVE SMOOTH",
"88 543 LINE SMOOTH",
"84 544 OFFCURVE",
"80 545 OFFCURVE",
"75 545 CURVE SMOOTH",
"50 545 OFFCURVE",
"30 525 OFFCURVE",
"30 500 CURVE SMOOTH",
"30 479 OFFCURVE",
"44 461 OFFCURVE",
"64 456 CURVE SMOOTH",
"807 250 LINE",
"64 44 LINE SMOOTH",
"44 39 OFFCURVE",
"30 21 OFFCURVE",
"30 0 CURVE SMOOTH",
"30 -25 OFFCURVE",
"50 -45 OFFCURVE",
"75 -45 CURVE SMOOTH"
);
}
);
width = 1017;
},
{
associatedMasterId = "ADA7F6FF-5955-4EF3-8FA7-BADC10F8EE4C";
layerId = "4E16E731-9AC3-411A-A67A-B681B70E3A60";
name = path;
paths = (
{
closed = 0;
nodes = (
"50 500 LINE",
"950 250 LINE",
"50 0 LINE"
);
}
);
width = 1000;
}
);
unicode = 003E;
},
{
color = 3;
glyphname = less;
lastChange = "2018-11-22 09:03:17 +0000";
layers = (
{
layerId = "ADA7F6FF-5955-4EF3-8FA7-BADC10F8EE4C";
paths = (
{
closed = 1;
nodes = (
"974.853 -45 OFFCURVE",
"995 -24.853 OFFCURVE",
"995 0 CURVE SMOOTH",
"995 21.019 OFFCURVE",
"980.589 38.671 OFFCURVE",
"961.109 43.618 CURVE SMOOTH",
"218.133 250 LINE",
"961.11 456.382 LINE SMOOTH",
"980.59 461.329 OFFCURVE",
"995 478.981 OFFCURVE",
"995 500 CURVE SMOOTH",
"995 524.853 OFFCURVE",
"974.853 545 OFFCURVE",
"950 545 CURVE SMOOTH",
"945.472 545 OFFCURVE",
"941.1 544.33 OFFCURVE",
"936.977 543.086 CURVE SMOOTH",
"76.132 303.962 LINE SMOOTH",
"50.355 296.802 OFFCURVE",
"37.956 280.49 OFFCURVE",
"37.956 253.737 CURVE SMOOTH",
"37.956 246.263 LINE SMOOTH",
"37.956 219.51 OFFCURVE",
"50.355 203.198 OFFCURVE",
"76.132 196.038 CURVE SMOOTH",
"936.977 -43.086 LINE SMOOTH",
"941.1 -44.331 OFFCURVE",
"945.472 -45 OFFCURVE",
"950 -45 CURVE SMOOTH"
);
}
);
width = 1000;
}
);
unicode = 003C;
},
{
glyphname = plusminus;
lastChange = "2018-11-23 14:03:07 +0000";
layers = (
{
layerId = "ADA7F6FF-5955-4EF3-8FA7-BADC10F8EE4C";
paths = (
{
closed = 1;
nodes = (
"925 293 LINE SMOOTH",
"950 293 OFFCURVE",
"970 313 OFFCURVE",
"970 338 CURVE SMOOTH",
"970 363 OFFCURVE",
"950 383 OFFCURVE",
"925 383 CURVE SMOOTH",
"125 383 LINE SMOOTH",
"100 383 OFFCURVE",
"80 363 OFFCURVE",
"80 338 CURVE SMOOTH",
"80 313 OFFCURVE",
"100 293 OFFCURVE",
"125 293 CURVE SMOOTH"
);
},
{
closed = 1;
nodes = (
"475 230 LINE SMOOTH",
"475 205 OFFCURVE",
"495 185 OFFCURVE",
"520 185 CURVE SMOOTH",
"545 185 OFFCURVE",
"565 205 OFFCURVE",
"565 230 CURVE SMOOTH",
"565 453 LINE SMOOTH",
"565 478 OFFCURVE",
"545 498 OFFCURVE",
"520 498 CURVE SMOOTH",
"495 498 OFFCURVE",
"475 478 OFFCURVE",
"475 453 CURVE SMOOTH"
);
},
{
closed = 1;
nodes = (
"925 47 LINE SMOOTH",
"950 47 OFFCURVE",
"970 67 OFFCURVE",
"970 92 CURVE SMOOTH",
"970 117 OFFCURVE",
"950 137 OFFCURVE",
"925 137 CURVE SMOOTH",
"125 137 LINE SMOOTH",
"100 137 OFFCURVE",
"80 117 OFFCURVE",
"80 92 CURVE SMOOTH",
"80 67 OFFCURVE",
"100 47 OFFCURVE",
"125 47 CURVE SMOOTH"
);
}
);
width = 1050;
}
);
unicode = 00B1;
},
{
color = 3;
glyphname = summation;
lastChange = "2018-11-22 09:03:17 +0000";
layers = (
{
layerId = "ADA7F6FF-5955-4EF3-8FA7-BADC10F8EE4C";
paths = (
{
closed = 1;
nodes = (
"937 -45 LINE SMOOTH",
"962 -45 OFFCURVE",
"982 -25 OFFCURVE",
"982 0 CURVE SMOOTH",
"982 25 OFFCURVE",
"962 45 OFFCURVE",
"937 45 CURVE SMOOTH",
"367 45 LINE",
"911 196 LINE SMOOTH",
"937 203 OFFCURVE",
"949 220 OFFCURVE",
"949 246 CURVE SMOOTH",
"949 254 LINE SMOOTH",
"949 280 OFFCURVE",
"937 297 OFFCURVE",
"911 304 CURVE SMOOTH",
"367 455 LINE",
"937 455 LINE SMOOTH",
"962 455 OFFCURVE",
"982 475 OFFCURVE",
"982 500 CURVE SMOOTH",
"982 525 OFFCURVE",
"962 545 OFFCURVE",
"937 545 CURVE SMOOTH",
"79 545 LINE SMOOTH",
"51 545 OFFCURVE",
"35 531 OFFCURVE",
"31 503 CURVE SMOOTH",
"31 498 LINE SMOOTH",
"27 471 OFFCURVE",
"39 453 OFFCURVE",
"66 445 CURVE SMOOTH",
"769 250 LINE",
"66 55 LINE SMOOTH",
"39 47 OFFCURVE",
"27 29 OFFCURVE",
"31 2 CURVE SMOOTH",
"31 -3 LINE SMOOTH",
"35 -31 OFFCURVE",
"51 -45 OFFCURVE",
"79 -45 CURVE SMOOTH"
);
}
);
width = 1012;
},
{
associatedMasterId = "ADA7F6FF-5955-4EF3-8FA7-BADC10F8EE4C";
layerId = "BB2149DF-FB73-46C9-859A-A9FCE9D22667";
name = path;
paths = (
{
closed = 0;
nodes = (
"900 500 LINE",
"0 500 LINE",
"900 250 LINE",
"0 0 LINE",
"900 0 LINE"
);
}
);
width = 900;
}
);
unicode = 2211;
},
{
color = 1;
glyphname = radical;
lastChange = "2018-11-25 13:32:43 +0000";
layers = (
{
layerId = "ADA7F6FF-5955-4EF3-8FA7-BADC10F8EE4C";
paths = (
{
closed = 1;
nodes = (
"280 -24 LINE SMOOTH",
"305 -21 OFFCURVE",
"320 -11 OFFCURVE",
"331 11 CURVE SMOOTH",
"553 455 LINE",
"975 455 LINE SMOOTH",
"1000 455 OFFCURVE",
"1020 475 OFFCURVE",
"1020 500 CURVE SMOOTH",
"1020 525 OFFCURVE",
"1000 545 OFFCURVE",
"975 545 CURVE SMOOTH",
"555 545 LINE SMOOTH",
"533 545 OFFCURVE",
"519 542 OFFCURVE",
"505 533 CURVE SMOOTH",
"490 524 OFFCURVE",
"481 513 OFFCURVE",
"471 493 CURVE SMOOTH",
"266 83 LINE",
"110 278 LINE SMOOTH",
"102 288 OFFCURVE",
"89 295 OFFCURVE",
"75 295 CURVE SMOOTH",
"50 295 OFFCURVE",
"30 275 OFFCURVE",
"30 250 CURVE SMOOTH",
"30 239 OFFCURVE",
"34 229 OFFCURVE",
"40 222 CURVE SMOOTH",
"218 -1 LINE SMOOTH",
"233 -20 OFFCURVE",
"250 -27 OFFCURVE",
"275 -24 CURVE SMOOTH"
);
}
);
width = 1050;
},
{
associatedMasterId = "ADA7F6FF-5955-4EF3-8FA7-BADC10F8EE4C";
layerId = "14308471-BB64-48DD-B92B-DD9EA0CA8A93";
name = path;
paths = (
{
closed = 0;
nodes = (
"50 250 LINE",
"250 0 LINE",
"500 500 LINE",
"1000 500 LINE"
);
}
);
width = 1000;
}
);
unicode = 221A;
},
{
glyphname = at;
lastChange = "2018-11-23 09:44:14 +0000";
layers = (
{
associatedMasterId = "ADA7F6FF-5955-4EF3-8FA7-BADC10F8EE4C";
layerId = "D2E54E0F-EE23-4F8C-B4C4-5BF881ABB958";
name = path;
paths = (
{
closed = 0;
nodes = (
"200 250 LINE",
"950 250 LINE",
"950 600 LINE",
"51 600 LINE",
"51 -100 LINE",
"850 -100 LINE"
);
},
{
closed = 0;
nodes = (
"200 50 LINE",
"200 450 LINE",
"800 450 LINE",
"800 50 LINE"
);
}
);
width = 1000;
},
{
associatedMasterId = "ADA7F6FF-5955-4EF3-8FA7-BADC10F8EE4C";
layerId = "821D7E03-83E6-498C-984C-4BE2DEB4A001";
name = "Nov 22 18, 12:30";
paths = (
{
closed = 0;
nodes = (
"133 250 LINE",
"750 250 LINE"
);
},
{
closed = 0;
nodes = (
"133 0 LINE",
"133 500 LINE",
"750 500 LINE",
"750 0 LINE",
"883 0 LINE",
"883 633 LINE",
"0 633 LINE",
"1 -133 LINE",
"900 -133 LINE"
);
}
);
width = 900;
},
{
associatedMasterId = "ADA7F6FF-5955-4EF3-8FA7-BADC10F8EE4C";
layerId = "42750AE6-2497-4422-BAAA-7F7301DA2E15";
name = "Nov 23 18, 10:38";
paths = (
{
closed = 1;
nodes = (
"974 -145 LINE SMOOTH",
"999 -145 OFFCURVE",
"1019 -125 OFFCURVE",
"1019 -100 CURVE SMOOTH",
"1019 -75 OFFCURVE",
"999 -55 OFFCURVE",
"974 -55 CURVE SMOOTH",
"120 -55 LINE",
"120 555 LINE",
"929 555 LINE",
"929 95 LINE",
"869 95 LINE",
"869 417 LINE SMOOTH",
"869 441 OFFCURVE",
"862 457 OFFCURVE",
"847 473 CURVE SMOOTH",
"831 488 OFFCURVE",
"815 495 OFFCURVE",
"791 495 CURVE SMOOTH",
"257 495 LINE SMOOTH",
"233 495 OFFCURVE",
"217 488 OFFCURVE",
"202 473 CURVE SMOOTH",
"186 457 OFFCURVE",
"179 441 OFFCURVE",
"179 417 CURVE SMOOTH",
"179 50 LINE SMOOTH",
"179 25 OFFCURVE",
"199 5 OFFCURVE",
"224 5 CURVE SMOOTH",
"249 5 OFFCURVE",
"269 25 OFFCURVE",
"269 50 CURVE SMOOTH",
"269 205 LINE",
"779 205 LINE",
"779 83 LINE SMOOTH",
"779 59 OFFCURVE",
"786 43 OFFCURVE",
"802 28 CURVE SMOOTH",
"817 12 OFFCURVE",
"833 5 OFFCURVE",
"857 5 CURVE SMOOTH",
"941 5 LINE SMOOTH",
"965 5 OFFCURVE",
"981 12 OFFCURVE",
"997 28 CURVE SMOOTH",
"1012 43 OFFCURVE",
"1019 59 OFFCURVE",
"1019 83 CURVE SMOOTH",
"1019 567 LINE SMOOTH",
"1019 591 OFFCURVE",
"1012 607 OFFCURVE",
"997 623 CURVE SMOOTH",
"981 638 OFFCURVE",
"965 645 OFFCURVE",
"941 645 CURVE SMOOTH",
"108 645 LINE SMOOTH",
"84 645 OFFCURVE",
"68 638 OFFCURVE",
"53 623 CURVE SMOOTH",
"37 607 OFFCURVE",
"30 591 OFFCURVE",
"30 567 CURVE SMOOTH",
"30 -67 LINE SMOOTH",
"30 -91 OFFCURVE",
"37 -107 OFFCURVE",
"53 -123 CURVE SMOOTH",
"68 -138 OFFCURVE",
"84 -145 OFFCURVE",
"108 -145 CURVE SMOOTH"
);
},
{
closed = 1;
nodes = (
"269 405 LINE",
"779 405 LINE",
"779 295 LINE",
"269 295 LINE"
);
}
);
width = 1049;
},
{
layerId = "ADA7F6FF-5955-4EF3-8FA7-BADC10F8EE4C";
paths = (
{
closed = 1;
nodes = (
"975 -225 LINE SMOOTH",
"1000 -225 OFFCURVE",
"1020 -205 OFFCURVE",
"1020 -180 CURVE SMOOTH",
"1020 -155 OFFCURVE",
"1000 -135 OFFCURVE",
"975 -135 CURVE SMOOTH",
"121 -135 LINE",
"120 635 LINE",
"930 635 LINE",
"930 45 LINE",
"840 45 LINE",
"840 467 LINE SMOOTH",
"840 491 OFFCURVE",
"833 507 OFFCURVE",
"818 523 CURVE SMOOTH",
"803 539 OFFCURVE",
"786 545 OFFCURVE",
"762 545 CURVE SMOOTH",
"288 545 LINE SMOOTH",
"264 545 OFFCURVE",
"248 538 OFFCURVE",
"233 523 CURVE SMOOTH",
"217 507 OFFCURVE",
"210 491 OFFCURVE",
"210 467 CURVE SMOOTH",
"210 0 LINE SMOOTH",
"210 -25 OFFCURVE",
"230 -45 OFFCURVE",
"255 -45 CURVE SMOOTH",
"280 -45 OFFCURVE",
"300 -25 OFFCURVE",
"300 0 CURVE SMOOTH",
"300 205 LINE",
"750 205 LINE",
"750 33 LINE SMOOTH",
"750 9 OFFCURVE",
"757 -7 OFFCURVE",
"773 -23 CURVE SMOOTH",
"788 -38 OFFCURVE",
"804 -45 OFFCURVE",
"828 -45 CURVE SMOOTH",
"942 -45 LINE SMOOTH",
"966 -45 OFFCURVE",
"982 -38 OFFCURVE",
"998 -23 CURVE SMOOTH",
"1014 -8 OFFCURVE",
"1020 9 OFFCURVE",
"1020 33 CURVE SMOOTH",
"1020 647 LINE SMOOTH",
"1020 671 OFFCURVE",
"1013 687 OFFCURVE",
"998 703 CURVE SMOOTH",
"983 719 OFFCURVE",
"966 725 OFFCURVE",
"942 725 CURVE SMOOTH",
"108 725 LINE SMOOTH",
"84 725 OFFCURVE",
"68 718 OFFCURVE",
"53 702 CURVE SMOOTH",
"37 685 OFFCURVE",
"30 671 OFFCURVE",
"30 647 CURVE SMOOTH",
"31 -148 LINE SMOOTH",
"31 -171 OFFCURVE",
"38 -187 OFFCURVE",
"54 -203 CURVE SMOOTH",
"70 -219 OFFCURVE",
"85 -225 OFFCURVE",
"109 -225 CURVE SMOOTH"
);
},
{
closed = 1;
nodes = (
"300 455 LINE",
"750 455 LINE",
"750 295 LINE",
"300 295 LINE"
);
}
);
width = 1050;
}
);
unicode = 0040;
},
{
color = 0;
glyphname = ampersand;
lastChange = "2018-11-25 13:33:09 +0000";
layers = (
{
layerId = "ADA7F6FF-5955-4EF3-8FA7-BADC10F8EE4C";
paths = (
{
closed = 1;
nodes = (
"864 -45 LINE SMOOTH",
"886 -45 OFFCURVE",
"901 -41 OFFCURVE",
"916 -30 CURVE SMOOTH",
"931 -19 OFFCURVE",
"940 -7 OFFCURVE",
"948 14 CURVE SMOOTH",
"950 21 LINE",
"1076 -38 LINE SMOOTH",
"1082 -41 OFFCURVE",
"1089 -43 OFFCURVE",
"1096 -43 CURVE SMOOTH",
"1121 -43 OFFCURVE",
"1141 -23 OFFCURVE",
"1141 2 CURVE SMOOTH",
"1141 20 OFFCURVE",
"1130 36 OFFCURVE",
"1114 43 CURVE SMOOTH",
"981 106 LINE",
"1117 487 LINE SMOOTH",
"1119 492 OFFCURVE",
"1120 497 OFFCURVE",
"1120 503 CURVE SMOOTH",
"1120 528 OFFCURVE",
"1100 548 OFFCURVE",
"1075 548 CURVE SMOOTH",
"1055 548 OFFCURVE",
"1038 535 OFFCURVE",
"1032 517 CURVE SMOOTH",
"899 145 LINE",
"612 281 LINE",
"884 441 LINE SMOOTH",
"907 455 OFFCURVE",
"914 474 OFFCURVE",
"907 500 CURVE SMOOTH",
"905 507 LINE SMOOTH",
"898 533 OFFCURVE",
"882 545 OFFCURVE",
"855 545 CURVE SMOOTH",
"85 545 LINE SMOOTH",
"58 545 OFFCURVE",
"42 532 OFFCURVE",
"36 505 CURVE SMOOTH",
"35 499 LINE SMOOTH",
"29 472 OFFCURVE",
"38 454 OFFCURVE",
"62 442 CURVE SMOOTH",
"420 273 LINE",
"56 59 LINE SMOOTH",
"33 45 OFFCURVE",
"26 26 OFFCURVE",
"33 0 CURVE SMOOTH",
"35 -7 LINE SMOOTH",
"42 -33 OFFCURVE",
"58 -45 OFFCURVE",
"85 -45 CURVE SMOOTH"
);
},
{
closed = 1;
nodes = (
"518 226 LINE",
"869 60 LINE",
"863 45 LINE",
"210 45 LINE"
);
},
{
closed = 1;
nodes = (
"245 455 LINE",
"730 455 LINE",
"514 328 LINE"
);
}
);
width = 1171;
},
{
associatedMasterId = "ADA7F6FF-5955-4EF3-8FA7-BADC10F8EE4C";
layerId = "A3C7E15A-4CE7-442B-923B-94062F762A4D";
name = "Nov 23 18, 14:53";
paths = (
{
closed = 0;
nodes = (
"1051 2 LINE",
"0 500 LINE",
"850 500 LINE",
"0 0 LINE",
"850 0 LINE",
"1030 503 LINE"
);
}
);
width = 1050;
},
{
associatedMasterId = "ADA7F6FF-5955-4EF3-8FA7-BADC10F8EE4C";
layerId = "AA036E4C-C8C8-47CD-AE4F-78CF02820D77";
name = "Nov 23 18, 14:54";
paths = (
{
closed = 0;
nodes = (
"1050 500 LINE",
"0 500 LINE",
"0 0 LINE",
"1050 0 LINE"
);
},
{
closed = 0;
nodes = (
"0 250 LINE",
"1051 250 LINE"
);
},
{
closed = 0;
nodes = (
"787 0 LINE",
"787 373 LINE"
);
}
);
width = 1050;
}
);
unicode = 0026;
},
{
glyphname = paragraph;
lastChange = "2018-11-24 16:11:48 +0000";
layers = (
{
layerId = "ADA7F6FF-5955-4EF3-8FA7-BADC10F8EE4C";
paths = (
{
closed = 1;
nodes = (
"820 -45 OFFCURVE",
"840 -25 OFFCURVE",
"840 0 CURVE SMOOTH",
"840 467 LINE SMOOTH",
"840 491 OFFCURVE",
"833 507 OFFCURVE",
"817 523 CURVE SMOOTH",
"802 538 OFFCURVE",
"786 545 OFFCURVE",
"762 545 CURVE SMOOTH",
"108 545 LINE SMOOTH",
"84 545 OFFCURVE",
"68 538 OFFCURVE",
"52 523 CURVE SMOOTH",
"37 507 OFFCURVE",
"30 491 OFFCURVE",
"30 467 CURVE SMOOTH",
"30 283 LINE SMOOTH",
"30 259 OFFCURVE",
"37 243 OFFCURVE",
"52 228 CURVE SMOOTH",
"68 212 OFFCURVE",
"84 205 OFFCURVE",
"108 205 CURVE SMOOTH",
"750 205 LINE",
"750 0 LINE SMOOTH",
"750 -25 OFFCURVE",
"770 -45 OFFCURVE",
"795 -45 CURVE SMOOTH"
);
},
{
closed = 1;
nodes = (
"930 0 LINE SMOOTH",
"930 -25 OFFCURVE",
"950 -45 OFFCURVE",
"975 -45 CURVE SMOOTH",
"1000 -45 OFFCURVE",
"1020 -25 OFFCURVE",
"1020 0 CURVE SMOOTH",
"1020 500 LINE SMOOTH",
"1020 525 OFFCURVE",
"1000 545 OFFCURVE",
"975 545 CURVE SMOOTH",
"950 545 OFFCURVE",
"930 525 OFFCURVE",
"930 500 CURVE SMOOTH"
);
}
);
width = 1050;
}
);
unicode = 00B6;
},
{
glyphname = section;
lastChange = "2018-11-24 16:26:04 +0000";
layers = (
{
layerId = "ADA7F6FF-5955-4EF3-8FA7-BADC10F8EE4C";
paths = (
{
closed = 1;
nodes = (
"969 -45 LINE SMOOTH",
"996 -45 OFFCURVE",
"1013 -32 OFFCURVE",
"1018 -5 CURVE SMOOTH",
"1019 1 LINE SMOOTH",
"1024 29 OFFCURVE",
"1014 47 OFFCURVE",
"988 57 CURVE SMOOTH",
"864 105 LINE",
"969 105 LINE SMOOTH",
"996 105 OFFCURVE",
"1013 118 OFFCURVE",
"1018 145 CURVE SMOOTH",
"1019 151 LINE SMOOTH",
"1024 179 OFFCURVE",
"1014 197 OFFCURVE",
"988 207 CURVE SMOOTH",
"315 455 LINE",
"910 455 LINE SMOOTH",
"935 455 OFFCURVE",
"955 475 OFFCURVE",
"955 500 CURVE SMOOTH",
"955 525 OFFCURVE",
"935 545 OFFCURVE",
"910 545 CURVE SMOOTH",
"116 545 LINE SMOOTH",
"89 545 OFFCURVE",
"72 532 OFFCURVE",
"67 505 CURVE SMOOTH",
"66 499 LINE SMOOTH",
"61 471 OFFCURVE",
"71 453 OFFCURVE",
"97 443 CURVE SMOOTH",
"221 395 LINE",
"116 395 LINE SMOOTH",
"89 395 OFFCURVE",
"72 382 OFFCURVE",
"67 355 CURVE SMOOTH",
"66 349 LINE SMOOTH",
"61 321 OFFCURVE",
"71 303 OFFCURVE",
"97 293 CURVE SMOOTH",
"770 45 LINE",
"75 45 LINE SMOOTH",
"50 45 OFFCURVE",
"30 25 OFFCURVE",
"30 0 CURVE SMOOTH",
"30 -25 OFFCURVE",
"50 -45 OFFCURVE",
"75 -45 CURVE SMOOTH"
);
},
{
closed = 1;
nodes = (
"315 305 LINE",
"452 305 LINE",
"770 195 LINE",
"633 195 LINE"
);
}
);
width = 1050;
},
{
associatedMasterId = "ADA7F6FF-5955-4EF3-8FA7-BADC10F8EE4C";
layerId = "9D69C413-6A65-4AD8-BC97-D11B02D410A5";
name = path;
paths = (
{
closed = 0;
nodes = (
"800 500 LINE",
"90 500 LINE",
"800 200 LINE",
"340 200 LINE"
);
},
{
closed = 0;
nodes = (
"560 300 LINE",
"100 300 LINE",
"810 0 LINE",
"100 0 LINE"
);
}
);
width = 900;
},
{
associatedMasterId = "ADA7F6FF-5955-4EF3-8FA7-BADC10F8EE4C";
layerId = "44DFB112-D606-4907-8AAC-DFF970FFCE17";
name = "path 2";
paths = (
{
closed = 0;
nodes = (
"800 500 LINE",
"0 500 LINE",
"900 150 LINE",
"520 150 LINE"
);
},
{
closed = 0;
nodes = (
"380 350 LINE",
"0 350 LINE",
"900 0 LINE",
"0 0 LINE"
);
}
);
width = 900;
}
);
unicode = 00A7;
},
{
color = 0;
glyphname = copyright;
lastChange = "2018-11-25 13:32:50 +0000";
layers = (
{
layerId = "ADA7F6FF-5955-4EF3-8FA7-BADC10F8EE4C";
paths = (
{
closed = 1;
nodes = (
"942 -45 LINE SMOOTH",
"966 -45 OFFCURVE",
"982 -38 OFFCURVE",
"998 -23 CURVE SMOOTH",
"1013 -7 OFFCURVE",
"1020 9 OFFCURVE",
"1020 33 CURVE SMOOTH",
"1020 467 LINE SMOOTH",
"1020 491 OFFCURVE",
"1013 507 OFFCURVE",
"998 523 CURVE SMOOTH",
"982 538 OFFCURVE",
"966 545 OFFCURVE",
"942 545 CURVE SMOOTH",
"108 545 LINE SMOOTH",
"84 545 OFFCURVE",
"68 538 OFFCURVE",
"53 523 CURVE SMOOTH",
"37 507 OFFCURVE",
"30 491 OFFCURVE",
"30 467 CURVE SMOOTH",
"30 33 LINE SMOOTH",
"30 9 OFFCURVE",
"37 -7 OFFCURVE",
"53 -23 CURVE SMOOTH",
"68 -38 OFFCURVE",
"84 -45 OFFCURVE",
"108 -45 CURVE SMOOTH"
);
},
{
closed = 1;
nodes = (
"120 455 LINE",
"930 455 LINE",
"930 45 LINE",
"120 45 LINE"
);
},
{
closed = 1;
nodes = (
"795 135 LINE SMOOTH",
"820 135 OFFCURVE",
"840 155 OFFCURVE",
"840 180 CURVE SMOOTH",
"840 205 OFFCURVE",
"820 225 OFFCURVE",
"795 225 CURVE SMOOTH",
"300 225 LINE",
"300 275 LINE",
"795 275 LINE SMOOTH",
"820 275 OFFCURVE",
"840 295 OFFCURVE",
"840 320 CURVE SMOOTH",
"840 345 OFFCURVE",
"820 365 OFFCURVE",
"795 365 CURVE SMOOTH",
"288 365 LINE SMOOTH",
"264 365 OFFCURVE",
"248 358 OFFCURVE",
"233 343 CURVE SMOOTH",
"217 327 OFFCURVE",
"210 311 OFFCURVE",
"210 287 CURVE SMOOTH",
"210 213 LINE SMOOTH",
"210 189 OFFCURVE",
"217 173 OFFCURVE",
"233 157 CURVE SMOOTH",
"248 142 OFFCURVE",
"264 135 OFFCURVE",
"288 135 CURVE SMOOTH"
);
}
);
width = 1050;
}
);
unicode = 00A9;
},
{
color = 0;
glyphname = ampersand.alt1;
lastChange = "2018-11-25 13:34:58 +0000";
layers = (
{
layerId = "ADA7F6FF-5955-4EF3-8FA7-BADC10F8EE4C";
paths = (
{
closed = 1;
nodes = (
"1125 -45 LINE SMOOTH",
"1150 -45 OFFCURVE",
"1170 -25 OFFCURVE",
"1170 0 CURVE SMOOTH",
"1170 25 OFFCURVE",
"1150 45 OFFCURVE",
"1125 45 CURVE SMOOTH",
"907 45 LINE",
"907 205 LINE",
"1126 205 LINE SMOOTH",
"1151 205 OFFCURVE",
"1171 225 OFFCURVE",
"1171 250 CURVE SMOOTH",
"1171 275 OFFCURVE",
"1151 295 OFFCURVE",
"1126 295 CURVE SMOOTH",
"907 295 LINE",
"907 500 LINE SMOOTH",
"907 525 OFFCURVE",
"887 545 OFFCURVE",
"862 545 CURVE SMOOTH",
"837 545 OFFCURVE",
"817 525 OFFCURVE",
"817 500 CURVE SMOOTH",
"817 295 LINE",
"120 295 LINE",
"120 455 LINE",
"857 455 LINE SMOOTH",
"882 455 OFFCURVE",
"902 475 OFFCURVE",
"902 500 CURVE SMOOTH",
"902 525 OFFCURVE",
"882 545 OFFCURVE",
"857 545 CURVE SMOOTH",
"108 545 LINE SMOOTH",
"84 545 OFFCURVE",
"68 538 OFFCURVE",
"53 523 CURVE SMOOTH",
"37 507 OFFCURVE",
"30 491 OFFCURVE",
"30 467 CURVE SMOOTH",
"30 33 LINE SMOOTH",
"30 9 OFFCURVE",
"37 -7 OFFCURVE",
"53 -23 CURVE SMOOTH",
"68 -38 OFFCURVE",
"84 -45 OFFCURVE",
"108 -45 CURVE SMOOTH"
);
},
{
closed = 1;
nodes = (
"120 205 LINE",
"817 205 LINE",
"817 45 LINE",
"120 45 LINE"
);
}
);
width = 1201;
}
);
},
{
color = 0;
glyphname = copyright.alt1;
lastChange = "2018-11-25 13:32:56 +0000";
layers = (
{
layerId = "ADA7F6FF-5955-4EF3-8FA7-BADC10F8EE4C";
paths = (
{
closed = 1;
nodes = (
"281 559 OFFCURVE",
"265 552 OFFCURVE",
"249 537 CURVE SMOOTH",
"233 522 OFFCURVE",
"227 505 OFFCURVE",
"227 481 CURVE SMOOTH",
"227 7 LINE SMOOTH",
"227 -17 OFFCURVE",
"234 -33 OFFCURVE",
"249 -48 CURVE SMOOTH",
"265 -64 OFFCURVE",
"281 -71 OFFCURVE",
"305 -71 CURVE SMOOTH",
"772 -71 LINE SMOOTH",
"797 -71 OFFCURVE",
"817 -51 OFFCURVE",
"817 -26 CURVE SMOOTH",
"817 -1 OFFCURVE",
"797 19 OFFCURVE",
"772 19 CURVE SMOOTH",
"317 19 LINE",
"317 469 LINE",
"772 469 LINE SMOOTH",
"797 469 OFFCURVE",
"817 489 OFFCURVE",
"817 514 CURVE SMOOTH",
"817 539 OFFCURVE",
"797 559 OFFCURVE",
"772 559 CURVE",
"305 559 LINE SMOOTH"
);
},
{
closed = 1;
nodes = (
"1020 647 LINE SMOOTH",
"1020 671 OFFCURVE",
"1013 687 OFFCURVE",
"998 703 CURVE SMOOTH",
"983 719 OFFCURVE",
"966 725 OFFCURVE",
"942 725 CURVE SMOOTH",
"108 725 LINE SMOOTH",
"84 725 OFFCURVE",
"68 718 OFFCURVE",
"53 702 CURVE SMOOTH",
"37 685 OFFCURVE",
"30 671 OFFCURVE",
"30 647 CURVE SMOOTH",
"31 -148 LINE SMOOTH",
"31 -171 OFFCURVE",
"38 -187 OFFCURVE",
"54 -203 CURVE SMOOTH",
"70 -219 OFFCURVE",
"85 -225 OFFCURVE",
"109 -225 CURVE SMOOTH",
"943 -224 LINE SMOOTH",
"966 -224 OFFCURVE",
"982 -217 OFFCURVE",
"998 -201 CURVE SMOOTH",
"1014 -185 OFFCURVE",
"1020 -172 OFFCURVE",
"1020 -148 CURVE SMOOTH"
);
},
{
closed = 1;
nodes = (
"121 -135 LINE",
"120 635 LINE",
"930 635 LINE",
"930 -134 LINE"
);
}
);
width = 1050;
}
);
},
{
glyphname = dieresiscomb;
lastChange = "2018-11-21 16:59:32 +0000";
layers = (
{
anchors = (
{
name = _top;
position = "{525, 500}";
},
{
name = top;
position = "{525, 693}";
}
);
layerId = "ADA7F6FF-5955-4EF3-8FA7-BADC10F8EE4C";
paths = (
{
closed = 1;
nodes = (
"425 603 LINE SMOOTH",
"450 603 OFFCURVE",
"470 623 OFFCURVE",
"470 648 CURVE SMOOTH",
"470 673 OFFCURVE",
"450 693 OFFCURVE",
"425 693 CURVE SMOOTH",
"75 693 LINE SMOOTH",
"50 693 OFFCURVE",
"30 673 OFFCURVE",
"30 648 CURVE SMOOTH",
"30 623 OFFCURVE",
"50 603 OFFCURVE",
"75 603 CURVE SMOOTH"
);
},
{
closed = 1;
nodes = (
"975 603 LINE SMOOTH",
"1000 603 OFFCURVE",
"1020 623 OFFCURVE",
"1020 648 CURVE SMOOTH",
"1020 673 OFFCURVE",
"1000 693 OFFCURVE",
"975 693 CURVE SMOOTH",
"625 693 LINE SMOOTH",
"600 693 OFFCURVE",
"580 673 OFFCURVE",
"580 648 CURVE SMOOTH",
"580 623 OFFCURVE",
"600 603 OFFCURVE",
"625 603 CURVE SMOOTH"
);
}
);
width = 1050;
}
);
unicode = 0308;
},
{
glyphname = gravecomb;
lastChange = "2018-11-21 16:59:46 +0000";
layers = (
{
anchors = (
{
name = _top;
position = "{525, 500}";
},
{
name = top;
position = "{525, 693}";
}
);
layerId = "ADA7F6FF-5955-4EF3-8FA7-BADC10F8EE4C";
paths = (
{
closed = 1;
nodes = (
"975 603 LINE SMOOTH",
"1000 603 OFFCURVE",
"1020 623 OFFCURVE",
"1020 648 CURVE SMOOTH",
"1020 673 OFFCURVE",
"1000 693 OFFCURVE",
"975 693 CURVE SMOOTH",
"75 693 LINE SMOOTH",
"50 693 OFFCURVE",
"30 673 OFFCURVE",
"30 648 CURVE SMOOTH",
"30 623 OFFCURVE",
"50 603 OFFCURVE",
"75 603 CURVE SMOOTH"
);
}
);
width = 1050;
}
);
unicode = 0300;
},
{
glyphname = acutecomb;
lastChange = "2018-11-21 16:59:51 +0000";
layers = (
{
anchors = (
{
name = _top;
position = "{525, 500}";
},
{
name = top;
position = "{525, 693}";
}
);
layerId = "ADA7F6FF-5955-4EF3-8FA7-BADC10F8EE4C";
paths = (
{
closed = 1;
nodes = (
"975 603 LINE SMOOTH",
"1000 603 OFFCURVE",
"1020 623 OFFCURVE",
"1020 648 CURVE SMOOTH",
"1020 673 OFFCURVE",
"1000 693 OFFCURVE",
"975 693 CURVE SMOOTH",
"75 693 LINE SMOOTH",
"50 693 OFFCURVE",
"30 673 OFFCURVE",
"30 648 CURVE SMOOTH",
"30 623 OFFCURVE",
"50 603 OFFCURVE",
"75 603 CURVE SMOOTH"
);
}
);
width = 1050;
}
);
unicode = 0301;
},
{
glyphname = circumflexcomb;
lastChange = "2018-11-21 16:59:56 +0000";
layers = (
{
anchors = (
{
name = _top;
position = "{525, 500}";
},
{
name = top;
position = "{525, 738}";
}
);
layerId = "ADA7F6FF-5955-4EF3-8FA7-BADC10F8EE4C";
paths = (
{
closed = 1;
nodes = (
"77 588 OFFCURVE",
"79 588 OFFCURVE",
"82 588 CURVE SMOOTH",
"525 648 LINE",
"968 588 LINE SMOOTH",
"971 588 OFFCURVE",
"973 588 OFFCURVE",
"975 588 CURVE SMOOTH",
"1000 588 OFFCURVE",
"1020 608 OFFCURVE",
"1020 633 CURVE SMOOTH",
"1020 656 OFFCURVE",
"1003 675 OFFCURVE",
"980 678 CURVE SMOOTH",
"531 738 LINE",
"519 738 LINE",
"70 678 LINE SMOOTH",
"47 675 OFFCURVE",
"30 656 OFFCURVE",
"30 633 CURVE SMOOTH",
"30 608 OFFCURVE",
"50 588 OFFCURVE",
"75 588 CURVE SMOOTH"
);
}
);
width = 1050;
}
);
unicode = 0302;
},
{
color = 0;
glyphname = ringcomb;
lastChange = "2018-11-25 13:30:56 +0000";
layers = (
{
layerId = "ADA7F6FF-5955-4EF3-8FA7-BADC10F8EE4C";
paths = (
{
closed = 1;
nodes = (
"570 580 OFFCURVE",
"550 600 OFFCURVE",
"525 600 CURVE SMOOTH",
"500 600 OFFCURVE",
"480 580 OFFCURVE",
"480 555 CURVE SMOOTH",
"480 530 OFFCURVE",
"500 510 OFFCURVE",
"525 510 CURVE SMOOTH",
"550 510 OFFCURVE",
"570 530 OFFCURVE",
"570 555 CURVE SMOOTH"
);
},
{
closed = 1;
nodes = (
"660 478 OFFCURVE",
"601 420 OFFCURVE",
"527 419 CURVE SMOOTH",
"450 418 OFFCURVE",
"389 479 OFFCURVE",
"390 553 CURVE",
"390 629 OFFCURVE",
"449 689 OFFCURVE",
"527 689 CURVE SMOOTH",
"601 689 OFFCURVE",
"660 629 OFFCURVE",
"660 553 CURVE SMOOTH"
);
}
);
width = 1050;
}
);
unicode = 030A;
},
{
glyphname = cedillacomb;
lastChange = "2018-11-23 13:12:51 +0000";
layers = (
{
layerId = "ADA7F6FF-5955-4EF3-8FA7-BADC10F8EE4C";
paths = (
{
closed = 1;
nodes = (
"687 -225 LINE SMOOTH",
"711 -225 OFFCURVE",
"727 -218 OFFCURVE",
"743 -203 CURVE SMOOTH",
"759 -188 OFFCURVE",
"765 -171 OFFCURVE",
"765 -147 CURVE SMOOTH",
"765 0 LINE",
"675 0 LINE",
"675 -135 LINE",
"270 -135 LINE SMOOTH",
"245 -135 OFFCURVE",
"225 -155 OFFCURVE",
"225 -180 CURVE SMOOTH",
"225 -205 OFFCURVE",
"245 -225 OFFCURVE",
"270 -225 CURVE SMOOTH"
);
}
);
width = 795;
}
);
rightMetricsKey = "=Ccedilla";
unicode = 0327;
},
{
glyphname = strokeshortcomb;
lastChange = "2018-11-24 16:01:10 +0000";
layers = (
{
layerId = "ADA7F6FF-5955-4EF3-8FA7-BADC10F8EE4C";
paths = (
{
closed = 1;
nodes = (
"780 205 LINE SMOOTH",
"805 205 OFFCURVE",
"825 225 OFFCURVE",
"825 250 CURVE SMOOTH",
"825 275 OFFCURVE",
"805 295 OFFCURVE",
"780 295 CURVE SMOOTH",
"270 295 LINE SMOOTH",
"245 295 OFFCURVE",
"225 275 OFFCURVE",
"225 250 CURVE SMOOTH",
"225 225 OFFCURVE",
"245 205 OFFCURVE",
"270 205 CURVE SMOOTH"
);
}
);
width = 1050;
}
);
unicode = 0335;
},
